<?xml version="1.0" encoding="UTF-8"?>
<svg xmlns="http://www.w3.org/2000/svg" xmlns:xlink="http://www.w3.org/1999/xlink" width="895pt" height="788pt" viewBox="0 0 895 788" version="1.1">
<g id="surface373">
<path style=" stroke:none;fill-rule:nonzero;fill:rgb(0%,0%,0%);fill-opacity:1;" d="M 893.089844 131.273438 C 891.140625 137.617188 884.800781 140.320312 881.382812 141.53125 C 872.582031 145.191406 865.996094 142.992188 858.671875 142.992188 C 838.160156 142.75 817.640625 157.40625 807.625 169.121094 C 803.480469 174 799.09375 180.835938 789.804688 186.464844 C 783.953125 189.882812 781.75 189.632812 778.089844 192.078125 C 766.859375 199.152344 765.640625 215.761719 764.417969 226.503906 C 764.171875 229.191406 759.039062 268.746094 742.929688 301.699219 C 740.238281 307.324219 731.449219 324.175781 713.871094 337.59375 C 702.152344 346.390625 695.3125 347.125 691.15625 346.636719 C 682.613281 345.648438 678.710938 339.554688 672.613281 334.914062 C 660.890625 325.882812 646.234375 326.617188 616.6875 328.082031 C 606.921875 328.5625 600.085938 329.304688 589.835938 330.523438 C 594.472656 365.195312 590.804688 392.785156 588.859375 405.242188 C 585.191406 430.136719 579.820312 443.574219 523.65625 555.890625 C 520.484375 562.238281 517.3125 568.34375 514.390625 574.203125 C 520.726562 573.476562 528.300781 572.003906 537.339844 569.804688 C 571.761719 560.53125 622.0625 536.847656 651.367188 522.921875 C 655.265625 520.984375 666.257812 515.851562 677.976562 519.269531 C 691.15625 518.53125 701.910156 530.007812 704.59375 532.945312 C 714.847656 544.164062 716.558594 559.804688 718.265625 585.445312 C 718.753906 592.027344 718.507812 598.378906 717.535156 604.96875 C 723.144531 597.648438 730.234375 587.875 736.582031 576.15625 C 745.617188 559.546875 746.351562 551.984375 745.617188 545.875 C 744.640625 538.070312 741.21875 534.398438 742.929688 527.324219 C 743.171875 526.34375 746.351562 513.652344 756.601562 512.183594 C 763.441406 511.207031 770.273438 515.113281 773.199219 521.210938 C 776.382812 527.5625 773.695312 533.914062 773.199219 534.890625 C 772.480469 536.847656 771.75 537.335938 766.363281 543.921875 C 759.292969 552.472656 758.550781 553.691406 758.066406 554.914062 C 755.867188 560.777344 756.839844 568.585938 759.527344 569.316406 C 764.417969 570.78125 775.40625 549.054688 781.019531 535.625 C 789.316406 515.363281 793.710938 504.855469 792.734375 490.210938 C 792.25 482.390625 790.292969 475.070312 794.691406 468.226562 C 799.574219 460.671875 808.117188 459.449219 808.375 459.195312 C 814.46875 458.222656 822.273438 460.171875 826.195312 466.03125 C 831.074219 473.355469 827.40625 482.632812 826.195312 485.320312 C 822.777344 493.867188 817.886719 493.628906 810.3125 504.609375 C 806.40625 510.234375 800.796875 520.492188 803.480469 523.164062 C 805.1875 524.878906 810.3125 522.921875 812.515625 521.699219 C 816.175781 519.996094 826.917969 514.625 837.914062 493.378906 C 841.816406 486.050781 845 477.757812 846.9375 473.355469 C 852.070312 460.671875 852.808594 456.027344 857.9375 452.609375 C 865.507812 447.484375 874.539062 450.410156 875.269531 450.410156 C 876 450.648438 886.019531 454.070312 888.453125 462.867188 C 890.894531 471.898438 884.054688 480.195312 879.417969 485.578125 C 872.34375 494.117188 868.429688 493.628906 855.25 503.632812 C 836.449219 517.558594 830.824219 528.054688 828.394531 533.914062 C 826.917969 537.585938 823.753906 544.914062 826.917969 548.328125 C 830.097656 551.984375 838.648438 549.546875 842.792969 547.585938 C 849.394531 544.65625 849.628906 541.492188 855.976562 537.335938 C 858.90625 535.375 870.136719 528.054688 877.960938 532.453125 C 884.800781 536.363281 886.996094 547.585938 883.578125 555.164062 C 880.640625 561.753906 873.804688 564.433594 869.160156 566.144531 C 857.195312 570.539062 846.207031 568.585938 843.519531 568.34375 C 823.507812 565.167969 800.550781 583.734375 778.089844 602.03125 C 730.46875 640.859375 701.175781 693.839844 693.359375 707.515625 C 686.527344 719.726562 676.269531 738.773438 656 756.84375 C 652.585938 761.234375 648.929688 765.632812 645.257812 770.035156 C 638.167969 777.59375 628.65625 786.875 615.957031 786.636719 C 607.65625 786.390625 599.109375 782.484375 593.984375 775.644531 C 585.191406 764.171875 589.34375 748.054688 592.03125 736.085938 C 599.34375 706.054688 604.96875 675.78125 613.277344 645.988281 C 618.398438 627.671875 621.328125 615.46875 623.773438 605.949219 C 597.636719 619.859375 583.238281 628.164062 568.34375 643.054688 C 557.597656 654.046875 556.375 658.195312 542.703125 670.648438 C 526.351562 685.292969 514.878906 695.546875 497.789062 697.257812 C 494.367188 697.515625 476.054688 699.464844 461.894531 687.257812 C 459.195312 684.816406 457 682.125 455.292969 679.4375 C 451.386719 682.613281 448.21875 683.585938 444.546875 683.585938 C 441.128906 683.585938 437.964844 682.367188 435.03125 679.929688 C 433.320312 682.367188 431.125 685.058594 428.679688 687.257812 C 414.523438 699.464844 396.207031 697.757812 392.789062 697.257812 C 375.699219 695.546875 363.964844 685.292969 347.855469 670.648438 C 334.183594 658.195312 332.964844 653.804688 322.222656 643.054688 C 307.328125 627.921875 292.921875 619.859375 266.796875 605.949219 C 269.238281 615.46875 272.164062 627.671875 277.296875 645.988281 C 285.59375 675.78125 291.210938 706.054688 298.53125 736.085938 C 301.46875 748.054688 305.367188 764.171875 296.582031 775.644531 C 291.453125 782.484375 282.664062 786.636719 274.601562 786.636719 C 261.910156 786.875 252.144531 777.84375 245.0625 770.035156 C 241.15625 765.878906 237.484375 761.484375 234.316406 756.84375 C 213.804688 739.019531 203.804688 719.726562 196.960938 707.769531 C 189.140625 694.09375 159.847656 640.859375 112.226562 602.28125 C 89.773438 583.964844 66.820312 565.410156 46.792969 568.585938 C 44.351562 568.828125 33.367188 571.027344 21.402344 566.386719 C 16.765625 564.679688 9.925781 562 6.996094 555.402344 C 3.324219 547.84375 5.777344 536.363281 12.363281 532.691406 C 20.421875 528.296875 31.410156 535.625 34.34375 537.585938 C 40.699219 541.726562 40.929688 545.140625 47.53125 547.84375 C 51.917969 549.785156 60.21875 551.984375 63.402344 548.566406 C 66.570312 545.140625 63.636719 537.824219 61.929688 534.164062 C 59.492188 528.054688 53.882812 517.796875 35.078125 503.886719 C 21.890625 494.117188 17.988281 494.355469 10.902344 485.804688 C 6.507812 480.445312 -0.582031 472.132812 1.875 463.105469 C 4.3125 454.316406 14.328125 450.898438 15.058594 450.648438 C 15.546875 450.410156 24.820312 447.714844 32.386719 452.847656 C 37.507812 456.265625 38.242188 460.671875 43.375 473.609375 C 45.082031 478 48.5 486.050781 52.40625 493.628906 C 63.402344 514.625 74.136719 520.234375 78.042969 521.945312 C 80.242188 522.921875 85.132812 525.125 87.078125 523.417969 C 89.773438 520.722656 83.90625 510.46875 80.242188 504.855469 C 72.679688 493.867188 67.792969 494.117188 64.371094 485.578125 C 63.148438 482.886719 59.492188 473.609375 64.371094 466.285156 C 68.28125 460.171875 76.332031 458.460938 82.195312 459.449219 C 82.6875 459.449219 91.234375 460.898438 96.113281 468.476562 C 100.523438 475.558594 98.554688 482.632812 98.066406 490.449219 C 97.101562 505.109375 101.484375 515.851562 109.789062 535.875 C 115.15625 549.296875 126.390625 571.027344 131.285156 569.5625 C 133.960938 568.828125 134.9375 560.777344 132.742188 555.164062 C 132.257812 553.9375 131.523438 552.714844 124.445312 544.164062 C 118.832031 537.585938 118.335938 537.089844 117.613281 535.132812 C 117.125 534.164062 114.667969 527.5625 117.613281 521.457031 C 120.539062 515.601562 127.378906 511.453125 134.214844 512.433594 C 144.707031 513.890625 147.636719 526.585938 148.125 527.5625 C 149.835938 534.890625 146.414062 538.554688 145.4375 546.132812 C 144.707031 552.226562 145.4375 559.804688 154.472656 576.402344 C 160.820312 588.121094 167.660156 597.890625 173.273438 605.210938 C 172.296875 598.609375 172.050781 592.277344 172.539062 585.679688 C 174.25 560.035156 175.957031 544.421875 186.460938 533.179688 C 189.140625 530.25 199.886719 518.78125 213.070312 519.507812 C 224.796875 516.089844 235.777344 521.210938 239.695312 523.164062 C 268.992188 537.089844 319.292969 560.777344 353.714844 570.058594 C 366.898438 573.71875 376.917969 574.695312 385.210938 575.1875 C 382.046875 568.34375 378.867188 561.023438 375.445312 553.453125 C 327.582031 448.9375 315.625 439.914062 311.960938 398.148438 C 309.765625 373.253906 311.960938 350.546875 315.875 331.257812 C 302.933594 329.789062 295.601562 328.8125 284.617188 328.328125 C 255.074219 326.855469 240.425781 326.128906 228.707031 335.15625 C 222.601562 339.800781 218.6875 345.90625 210.140625 346.871094 C 205.996094 347.359375 199.15625 346.871094 187.4375 337.847656 C 169.859375 324.664062 161.308594 307.570312 158.378906 301.953125 C 142.265625 268.992188 137.378906 229.433594 136.890625 226.75 C 135.667969 216 134.449219 199.394531 122.972656 192.320312 C 119.316406 190.125 116.871094 190.125 111.253906 186.699219 C 101.738281 181.085938 97.578125 174.503906 93.433594 169.371094 C 83.421875 157.40625 62.910156 142.75 42.402344 143.238281 C 35.078125 143.484375 28.476562 145.441406 19.695312 141.773438 C 16.28125 140.320312 9.925781 137.863281 7.96875 131.519531 C 6.257812 125.898438 9.195312 119.804688 12.855469 116.386719 C 17.007812 112.472656 23.109375 111.007812 27.988281 112.226562 C 34.097656 113.691406 34.097656 118.097656 42.402344 124.679688 C 46.058594 127.613281 54.609375 134.203125 65.113281 133.71875 C 67.304688 133.71875 75.367188 133.226562 78.300781 128.101562 C 79.757812 125.421875 79.265625 122.238281 74.136719 111.496094 C 65.84375 94.40625 61.929688 85.855469 54.121094 81.21875 C 47.769531 77.078125 44.601562 78.292969 38.988281 72.921875 C 36.054688 70.234375 30.679688 64.855469 31.410156 57.78125 C 32.148438 51.4375 38 45.8125 44.601562 44.59375 C 52.660156 43.125 59.730469 48.5 62.421875 53.632812 C 65.113281 58.761719 62.660156 61.191406 63.882812 68.03125 C 66.332031 83.90625 83.171875 93.183594 88.789062 96.363281 C 95.625 100.015625 102.460938 104.171875 107.351562 101.234375 C 113.203125 97.820312 112.226562 86.105469 111.5 78.535156 C 111.011719 72.671875 109.789062 61.191406 101.738281 51.671875 C 96.113281 45.085938 92.457031 45.324219 90.007812 39.214844 C 88.066406 34.582031 86.839844 25.296875 92.699219 19.9375 C 97.578125 15.53125 105.394531 15.53125 110.523438 18.46875 C 117.847656 22.613281 118.578125 31.414062 118.832031 32.871094 C 119.316406 38.484375 116.871094 39.960938 116.136719 46.054688 C 115.15625 52.160156 117.613281 58.273438 122.246094 70.234375 C 127.378906 83.414062 130.058594 90.015625 135.425781 92.207031 C 142.507812 95.382812 149.601562 91.71875 149.835938 91.476562 C 159.847656 86.105469 160.085938 71.695312 160.085938 69.503906 C 160.085938 61.191406 156.671875 60.214844 157.402344 52.160156 C 157.648438 49.230469 158.625 38.96875 166.441406 35.558594 C 171.816406 33.121094 178.890625 34.582031 183.042969 38.96875 C 188.65625 45.085938 186.214844 53.382812 185.726562 54.855469 C 183.78125 61.4375 179.625 62.671875 175.46875 68.527344 C 173.023438 71.945312 171.816406 74.867188 169.371094 91.964844 C 166.179688 112.96875 164.472656 123.457031 165.21875 131.273438 C 166.6875 145.191406 170.109375 144.945312 169.371094 155.449219 C 168.636719 166.679688 164.238281 170.34375 165.953125 180.351562 C 166.6875 184.503906 167.898438 186.210938 172.78125 196.21875 C 181.570312 213.304688 180.113281 212.335938 184.507812 220.398438 C 197.691406 244.570312 202.578125 241.152344 208.679688 257.023438 C 213.316406 269.476562 212.828125 278.511719 219.667969 281.191406 C 224.0625 282.902344 228.9375 280.953125 231.386719 279.734375 C 271.671875 261.417969 281.6875 254.347656 281.6875 254.347656 C 294.875 245.058594 304.886719 237.980469 312.457031 233.097656 C 302.429688 208.921875 297.558594 183.042969 298.53125 159.839844 C 299.019531 149.097656 300.726562 138.847656 303.421875 129.566406 C 298.046875 122.238281 296.820312 111.007812 300.726562 99.785156 C 305.621094 86.105469 317.09375 77.316406 327.84375 78.054688 C 330.765625 73.652344 333.453125 70.234375 335.40625 67.792969 C 348.09375 51.4375 387.179688 0.390625 445.765625 1.367188 C 498.015625 2.101562 532.9375 43.867188 553.453125 68.527344 C 555.894531 71.453125 558.574219 74.632812 561.507812 78.292969 C 573.226562 75.113281 586.414062 84.394531 592.03125 99.296875 C 595.6875 109.546875 594.957031 120.039062 590.566406 127.128906 C 593.984375 136.398438 596.664062 146.414062 597.636719 157.15625 C 599.851562 179.628906 595.445312 204.765625 585.433594 228.945312 C 593.496094 233.578125 604.96875 241.882812 621.816406 253.609375 C 621.816406 253.609375 631.835938 260.679688 672.125 279 C 674.566406 279.976562 679.445312 282.171875 683.835938 280.464844 C 690.667969 277.773438 690.191406 268.746094 694.824219 256.289062 C 700.929688 240.421875 705.816406 243.839844 719 219.664062 C 723.398438 211.597656 721.921875 212.578125 730.722656 195.488281 C 735.59375 185.480469 736.820312 183.769531 737.558594 179.628906 C 739.265625 169.855469 734.875 165.953125 734.144531 154.71875 C 733.398438 144.21875 736.820312 144.460938 738.289062 130.546875 C 739.019531 122.726562 737.308594 112.226562 734.144531 91.234375 C 731.449219 74.140625 730.234375 71.210938 728.039062 67.792969 C 723.886719 61.691406 719.488281 60.46875 717.777344 54.121094 C 717.289062 52.648438 715.085938 44.347656 720.464844 38.253906 C 724.617188 33.609375 731.6875 32.390625 737.070312 34.828125 C 744.878906 38.253906 745.851562 48.253906 746.109375 51.4375 C 746.839844 59.25 743.417969 60.46875 743.417969 68.765625 C 743.417969 71.210938 743.65625 85.617188 753.671875 90.75 C 753.910156 90.988281 761 94.40625 768.070312 91.476562 C 773.199219 89.273438 775.894531 82.691406 781.257812 69.503906 C 785.902344 57.539062 788.351562 51.4375 787.375 45.324219 C 786.390625 39.472656 784.183594 37.765625 784.671875 32.140625 C 784.929688 30.679688 785.664062 21.882812 792.984375 17.742188 C 798.355469 14.8125 805.917969 14.554688 810.804688 19.199219 C 816.914062 24.570312 815.445312 33.847656 813.496094 38.484375 C 811.050781 44.59375 807.382812 44.347656 801.773438 50.9375 C 793.710938 60.46875 792.734375 71.945312 792 77.804688 C 791.273438 85.367188 790.058594 97.085938 796.152344 100.503906 C 801.046875 103.4375 808.117188 99.527344 814.71875 95.625 C 820.335938 92.457031 836.9375 83.175781 839.625 67.304688 C 840.84375 60.46875 838.160156 57.78125 841.085938 52.898438 C 844.007812 47.765625 850.851562 42.394531 859.160156 43.867188 C 865.742188 45.085938 871.359375 50.449219 872.34375 57.050781 C 873.320312 64.121094 867.699219 69.503906 864.773438 72.183594 C 859.160156 77.5625 855.976562 76.34375 849.628906 80.492188 C 842.066406 85.367188 837.914062 93.917969 829.609375 110.761719 C 824.488281 121.507812 823.992188 124.679688 825.464844 127.367188 C 828.140625 132.496094 836.449219 132.742188 838.648438 132.984375 C 849.140625 133.476562 857.6875 126.882812 861.359375 123.945312 C 869.648438 117.359375 869.648438 112.96875 875.761719 111.496094 C 880.640625 110.273438 886.742188 111.496094 890.894531 115.648438 C 891.871094 119.550781 894.800781 125.65625 893.089844 131.273438 Z M 893.089844 131.273438 "/>
</g>
</svg>
