<?xml version="1.0" encoding="UTF-8"?>
<svg xmlns="http://www.w3.org/2000/svg" xmlns:xlink="http://www.w3.org/1999/xlink" width="24398pt" height="16935pt" viewBox="0 0 24398 16935" version="1.1">
<g id="surface383">
<path style=" stroke:none;fill-rule:evenodd;fill:rgb(0%,0%,0%);fill-opacity:1;" d="M 2511.023438 65.945312 C 2186.265625 130.578125 1900.71875 259.355469 1658.65625 451.335938 C 1542.636719 543.050781 1431.183594 618.210938 1410.816406 618.210938 C 1390.648438 618.210938 1279.367188 694.476562 1163.382812 787.730469 C 1047.585938 880.445312 873.746094 966.699219 776.765625 979.039062 C 574.65625 1004.570312 35.6875 1283.390625 28.296875 1366.175781 C 25.558594 1397.398438 239.929688 1433.648438 521.8125 1449.296875 C 1005.898438 1476.214844 1030.484375 1484.117188 1353.007812 1720.289062 C 1822.75 2064.054688 1982.351562 2217.648438 2163.410156 2498.648438 C 2371.570312 2821.175781 2369.34375 3084.121094 2155.0625 3594.457031 C 1932.597656 4124.042969 1806.882812 4962.820312 1837.824219 5714.609375 C 1860.09375 6259.476562 1886.460938 6370.082031 2255.074219 7459.808594 C 2471.585938 8099.527344 2740.464844 8971.75 2852.378906 9398.441406 C 3212.707031 10771.140625 3793.410156 11782.445312 4472.882812 12220.171875 C 6257.355469 13369.835938 8706.640625 14239.863281 10172.675781 14244.351562 C 10585.117188 14245.785156 10675.792969 14337.046875 10540.714844 14615.46875 C 10438.117188 14827.328125 9569.773438 15714.683594 9357.59375 15824.238281 C 9244.414062 15883.023438 9011.320312 15903.851562 8501.285156 15901.664062 C 7874.667969 15898.4375 7773.898438 15911.578125 7543.203125 16027.347656 C 7401.179688 16098.4375 7275.035156 16189.804688 7262.671875 16230.542969 C 7244.851562 16288.742188 7273.75 16287.054688 7399.78125 16221.8125 C 7536.429688 16151.140625 7579.226562 16150.347656 7697.042969 16215.070312 C 7772.300781 16257.0625 7929.449219 16292.023438 8045.675781 16293.117188 C 8329.863281 16295.828125 8471.203125 16380.0625 8471.203125 16546.328125 C 8471.203125 16682.570312 8473.042969 16683.210938 9031.085938 16683.210938 C 9586.789062 16683.210938 9590.773438 16683.960938 9559.332031 16809.433594 C 9527.710938 16935.660156 9528.183594 16935.660156 9982.71875 16896.71875 C 10463.875 16855.511719 11587.609375 16612.230469 11893.875 16482.894531 C 11993.878906 16440.433594 12127.351562 16405.902344 12190.523438 16405.902344 C 12278.3125 16405.902344 12295.710938 16383.339844 12264.699219 16309.058594 C 12129.035156 15986.429688 12258.976562 15665.839844 12834.042969 14903.71875 C 13477.359375 14051.96875 13473.046875 14054.773438 14066.289062 14002.347656 C 14294.710938 13981.996094 14780.75 13904.414062 15146.480469 13829.484375 C 15511.890625 13754.640625 16097.746094 13654.21875 16447.910156 13606.402344 C 16798.757812 13558.53125 17368.960938 13469.066406 17715.203125 13407.457031 C 18316.386719 13301.085938 18374.667969 13299.617188 18989.335938 13382.421875 C 19343.339844 13429.898438 20044.738281 13494.808594 20547.515625 13526.253906 C 21676.742188 13596.789062 22103.75 13652.621094 22883.164062 13832.242188 C 23609.15625 13999.261719 24369.703125 14072.933594 24369.703125 13976.089844 C 24369.703125 13887.273438 24126.539062 13741.855469 23317.171875 13347.105469 C 22576.648438 12985.765625 22320.0625 12830.195312 22320.0625 12743.285156 C 22320.0625 12713.433594 22411.167969 12650.882812 22522.457031 12604.367188 L 22724.726562 12519.808594 L 22432.984375 12353.179688 C 22272.382812 12261.367188 22162.84375 12167.828125 22189 12145.117188 C 22215.671875 12121.984375 22355.523438 12059.863281 22500.058594 12006.800781 C 22728.117188 11922.710938 22763.179688 11889.339844 22763.179688 11755.023438 C 22763.179688 11669.71875 22728.613281 11571.621094 22686.050781 11536.164062 C 22586.921875 11453.964844 22019.851562 11337.730469 21189.683594 11229.992188 C 20427.167969 11130.796875 20397.667969 11116.636719 19571.679688 10447.15625 C 19243.664062 10181.539062 18730.464844 9803.34375 18431.445312 9607.300781 C 17564.640625 9039.507812 16767.730469 8426.609375 16228.265625 7913.285156 C 15953.320312 7651.636719 15728.003906 7413.851562 15728.003906 7384.992188 C 15728.003906 7335.152344 14851.894531 6665.785156 14260.074219 6263.445312 C 13625.179688 5831.804688 12715.40625 5393.125 11573.300781 4968.121094 C 11101.140625 4792.441406 10627.378906 4605.523438 10520.832031 4552.742188 C 10164.132812 4376.464844 9112.695312 4008.1875 8692.820312 3912.25 C 8464.226562 3860.542969 8170.046875 3783.101562 8038.824219 3740.929688 C 7907.394531 3698.773438 7568.601562 3626.800781 7285.269531 3581.304688 C 6746.648438 3494.769531 6188.515625 3326.832031 6044.292969 3208.222656 C 5909.265625 3097.289062 5656.851562 2490.980469 5567.714844 2063.707031 C 5480.878906 1647.03125 5217.554688 1098.0625 4892.554688 654.78125 C 4755.722656 468.054688 4609.054688 347.046875 4409.347656 256.058594 C 3926.730469 36.25 3086.0625 -48.089844 2511.023438 65.945312 M 11206.25 15037.625 C 10640.046875 15610.902344 10576.445312 15764.605469 10797.589844 16026.019531 L 10907.90625 16156.683594 L 11130.070312 15907.339844 C 11491.65625 15501.917969 11973.707031 14766.871094 11952.050781 14654.730469 C 11906.09375 14417.164062 11728.707031 14508.011719 11206.25 15037.625 "/>
</g>
</svg>
