<?xml version="1.0" encoding="UTF-8"?>
<svg xmlns="http://www.w3.org/2000/svg" xmlns:xlink="http://www.w3.org/1999/xlink" width="44460pt" height="44460pt" viewBox="0 0 44460 44460" version="1.1">
<g id="surface328">
<path style=" stroke:none;fill-rule:nonzero;fill:rgb(0%,0%,0%);fill-opacity:1;" d="M 36123.75 5557.5 C 37658.382812 5557.5 38902.5 6801.617188 38902.5 8336.25 C 38902.5 9870.882812 37658.382812 11115 36123.75 11115 C 34589.117188 11115 33345 9870.882812 33345 8336.25 C 33345 6801.617188 34589.117188 5557.5 36123.75 5557.5 Z M 36123.75 16672.5 C 40727.933594 16672.5 44460 12940.433594 44460 8336.25 C 44460 3732.066406 40727.933594 0 36123.75 0 C 31519.566406 0 27787.5 3732.066406 27787.5 8336.25 C 27787.5 12940.433594 31519.566406 16672.5 36123.75 16672.5 Z M 8336.25 9725.625 C 8336.25 7424.488281 10203.238281 5557.5 12504.375 5557.5 C 14805.511719 5557.5 16672.5 7424.488281 16672.5 9725.625 L 16672.5 24010.121094 C 16672.5 25512.425781 17289.039062 26780.230469 18001.007812 27700.789062 C 18912.894531 28881.601562 19451.25 30349.175781 19451.25 31955.625 C 19451.25 35793.746094 16342.496094 38902.5 12504.375 38902.5 C 8666.253906 38902.5 5557.5 35793.746094 5557.5 31955.625 C 5557.5 30349.175781 6095.855469 28881.601562 7007.742188 27709.351562 C 7719.710938 26780.230469 8336.25 25512.425781 8336.25 24010.121094 Z M 12504.375 0 C 7129.3125 0 2778.75 4359.136719 2778.75 9725.625 L 2778.75 24010.121094 C 2778.75 24018.789062 2769.984375 24036.074219 2761.410156 24062.242188 C 2743.988281 24114.21875 2692.039062 24201.257812 2613.84375 24305.296875 C 972.675781 26415.464844 0 29072.558594 0 31955.625 C 0 38859.097656 5600.902344 44460 12504.375 44460 C 19407.847656 44460 25008.75 38859.097656 25008.75 31955.625 C 25008.75 29072.558594 24036.074219 26415.464844 22394.90625 24305.296875 C 22316.710938 24201.257812 22264.761719 24114.21875 22247.339844 24062.242188 C 22238.765625 24036.074219 22230 24018.789062 22230 24010.121094 L 22230 9725.625 C 22230 4359.136719 17879.4375 0 12504.375 0 Z M 12504.375 36123.75 C 14805.511719 36123.75 16672.5 34256.761719 16672.5 31955.625 C 16672.5 30140.757812 15508.867188 28594.992188 13893.75 28022.039062 L 13893.75 9725.625 C 13893.75 8961.582031 13268.417969 8336.25 12504.375 8336.25 C 11740.332031 8336.25 11115 8961.582031 11115 9725.625 L 11115 28022.039062 C 9499.882812 28594.992188 8336.25 30140.757812 8336.25 31955.625 C 8336.25 34256.761719 10203.238281 36123.75 12504.375 36123.75 Z M 12504.375 36123.75 "/>
</g>
</svg>
