<?xml version="1.0" encoding="UTF-8"?>
<svg xmlns="http://www.w3.org/2000/svg" xmlns:xlink="http://www.w3.org/1999/xlink" width="161876pt" height="55813pt" viewBox="0 0 161876 55813" version="1.1">
<g id="surface343">
<path style=" stroke:none;fill-rule:nonzero;fill:rgb(0%,0%,0%);fill-opacity:1;" d="M 81504.960938 89.710938 C 81340.417969 132.75 80941.445312 219.398438 80611.824219 297.523438 C 80291.632812 366.871094 79944.851562 488.339844 79840.769531 557.605469 C 79736.609375 635.546875 79563.382812 696.289062 79459.199219 696.289062 C 79268.675781 696.289062 78540.597656 1051.515625 77084.183594 1866.6875 C 76633.597656 2117.898438 76122.328125 2369.230469 75957.582031 2421.347656 C 75567.335938 2551.417969 75411.359375 2672.816406 75238.039062 2993.265625 C 75099.214844 3262.03125 74293.40625 4016.214844 73617.101562 4501.855469 C 73400.382812 4657.355469 73123.171875 4908.917969 72984.457031 5073.738281 C 72854.414062 5229.734375 72507.59375 5541.730469 72204.140625 5767.222656 C 71562.878906 6244.042969 69369.742188 8298.230469 68329.5 9399.027344 C 67211.472656 10578.03125 66327.515625 11444.777344 66240.882812 11444.777344 C 66206.117188 11444.777344 66032.65625 11574.972656 65867.816406 11739.328125 C 65529.851562 12086.355469 64463.976562 12649.40625 63952.25 12762.171875 C 63761.347656 12805.585938 63119.976562 12892.191406 62522.242188 12952.847656 C 61924.128906 13022.261719 61282.644531 13100.429688 61091.847656 13126.296875 C 60693.003906 13178.257812 59626.867188 13239.128906 57884.730469 13308.464844 C 57217.183594 13334.46875 56419.742188 13395.082031 56107.832031 13438.542969 C 55795.5625 13481.457031 55076.046875 13559.300781 54504.171875 13611.496094 C 53932.105469 13663.519531 53134.390625 13767.589844 52727.34375 13828.382812 C 52319.910156 13897.796875 51600.324219 13993.085938 51123.992188 14045.25 C 50646.949219 14097.210938 49927.488281 14192.332031 49519.871094 14261.820312 C 49112.738281 14339.671875 48237.117188 14469.714844 47569.878906 14565.074219 C 46902.082031 14660.613281 46061.585938 14799.355469 45706.085938 14868.582031 C 45350.566406 14937.9375 44709.375 15033.429688 44275.960938 15085.398438 C 43851.195312 15137.433594 43357.050781 15215.386719 43192.671875 15258.46875 C 43027.804688 15301.621094 42360.652344 15423.144531 41718.914062 15527.101562 C 41077.421875 15631.308594 40392.832031 15744.097656 40201.960938 15778.695312 C 40011.132812 15813.378906 39430.324219 15926.132812 38901.722656 16030.203125 C 38381.625 16125.273438 37714.457031 16255.394531 37428.339844 16307.542969 C 37142.050781 16359.5 36873.570312 16428.953125 36821.464844 16472.292969 C 36778.203125 16506.851562 36578.660156 16558.929688 36387.820312 16576.105469 C 36076.203125 16610.507812 35443.292969 16766.777344 34091.082031 17130.878906 C 33830.800781 17200.191406 33458.464844 17304.132812 33267.730469 17356.175781 C 33076.996094 17408.289062 32825.539062 17477.59375 32704.007812 17512.371094 C 32582.863281 17546.960938 32314.21875 17625.007812 32097.34375 17685.828125 C 31880.601562 17746.410156 31629.417969 17824.53125 31534.136719 17867.980469 C 30719.152344 18205.664062 30233.804688 18379.089844 29722.433594 18509.144531 C 29392.882812 18587.109375 29063.925781 18682.5625 28985.765625 18725.832031 C 28907.679688 18760.503906 28656.308594 18838.359375 28422.261719 18890.402344 C 28179.742188 18951.34375 27737.261719 19107.371094 27425.046875 19237.285156 C 27113.414062 19376.078125 26679.984375 19514.730469 26462.972656 19549.433594 C 26246.570312 19584.082031 26029.851562 19644.769531 25986.4375 19679.101562 C 25891.117188 19757.0625 25371.109375 19930.691406 24729.484375 20104.027344 C 24513.210938 20164.695312 24226.914062 20251.414062 24079.539062 20303.429688 C 23801.9375 20399.097656 23351.410156 20511.433594 22779.441406 20624.015625 C 22588.679688 20667.414062 22198.574219 20780.070312 21912.609375 20875.570312 C 21626.378906 20970.617188 21184.546875 21091.949219 20933.082031 21152.804688 C 20690.269531 21213.457031 20464.9375 21291.570312 20438.941406 21326.257812 C 20412.875 21369.492188 20170.480469 21464.898438 19893.136719 21542.820312 C 19624.105469 21620.664062 18540.523438 21959.035156 17491.863281 22297.285156 C 16443.007812 22626.316406 15316.191406 22981.632812 14977.878906 23077.128906 C 14648.828125 23172.550781 14215.179688 23302.441406 14024.4375 23371.855469 C 13834.074219 23432.597656 13443.929688 23545.320312 13157.621094 23614.539062 C 12871.703125 23675.296875 12421.054688 23822.640625 12160.972656 23926.828125 C 11901.074219 24030.886719 11493.425781 24186.417969 11251.222656 24273.210938 C 9361.507812 24966.792969 8563.875 25313.515625 6006.925781 26587.765625 C 4411.710938 27385.164062 2808.195312 28208.496094 2453.195312 28425.511719 C 1092.050781 29239.953125 337.867188 29994.164062 103.863281 30774.316406 C -52.398438 31285.550781 103.863281 31701.761719 658.875 32265.003906 C 1620.617188 33261.960938 2236.308594 33478.777344 3865.675781 33409.457031 C 4914.78125 33366.003906 5452.109375 33452.699219 6180.238281 33782.246094 C 6344.800781 33860.125 6683.03125 34007.617188 6916.640625 34102.847656 C 7644.9375 34406.167969 8433.859375 34865.457031 8433.859375 34986.921875 C 8433.859375 35047.539062 8503.078125 35134.234375 8581.164062 35186.449219 C 8901.75 35359.8125 8676.25 35403.179688 6960.125 35463.910156 C 6154.132812 35489.910156 3952.410156 35368.453125 3493.054688 35273.023438 C 3025.039062 35169.003906 2487.285156 34830.824219 2409.824219 34588.296875 C 2383.894531 34492.851562 2323.039062 34414.6875 2279.699219 34414.6875 C 2244.988281 34414.6875 2193 34336.710938 2166.886719 34250.070312 C 2149.507812 34154.953125 2002.066406 34016.113281 1854.742188 33946.816406 C 1603.308594 33816.816406 1568.953125 33816.816406 1352.027344 33955.585938 C 970.613281 34189.6875 563.4375 34614.273438 468.113281 34874.195312 C 337.867188 35212.382812 346.738281 35836.410156 494.0625 36174.40625 C 771.144531 36824.382812 2071.570312 37942.785156 2773.535156 38142.191406 C 2955.726562 38185.414062 3276.460938 38324.085938 3484.496094 38445.570312 C 3683.886719 38566.871094 3900.414062 38662.152344 3952.410156 38662.152344 C 4004.425781 38662.152344 4108.515625 38714.007812 4177.953125 38783.378906 C 4255.730469 38844.125 4611.042969 39026.328125 4966.851562 39173.714844 C 5321.875 39329.515625 5755.375 39520.414062 5919.992188 39615.851562 C 6570.261719 39962.488281 8823.777344 40742.640625 9179.25 40742.640625 C 9283.355469 40742.640625 9690.589844 40820.480469 10089.285156 40924.769531 C 10488.070312 41019.707031 10990.921875 41132.597656 11207.78125 41175.773438 C 11423.996094 41210.417969 11909.648438 41305.835938 12291.035156 41375.238281 C 13478.714844 41609.433594 14709.5 41783.050781 15194.742188 41783.050781 C 15455.058594 41791.589844 15844.785156 41826.015625 16061.507812 41877.679688 C 16278.257812 41929.730469 16538.457031 41964.5625 16651.222656 41964.5625 C 17266.375 41947.214844 18826.523438 42363.332031 20352.082031 42944.195312 C 21609.042969 43420.910156 22502.085938 43724.308594 22952.527344 43819.398438 C 23238.503906 43888.96875 23724.269531 44027.652344 24036.128906 44123.175781 C 24348.449219 44227.304688 24798.769531 44348.40625 25032.894531 44383.171875 C 25275.859375 44417.8125 25795.664062 44521.890625 26203.28125 44599.628906 C 26610.695312 44686.210938 27104.605469 44764.21875 27312.871094 44781.578125 C 27520.527344 44790.21875 27771.941406 44833.578125 27876.078125 44868.296875 C 27971.566406 44902.890625 28370.097656 44955.007812 28760.390625 44998.410156 C 29557.644531 45076.527344 31039.894531 45293.449219 31230.683594 45362.6875 C 31299.945312 45388.636719 31716.257812 45449.046875 32140.609375 45509.882812 C 32574.121094 45561.824219 33120.34375 45665.796875 33354.457031 45726.652344 C 33596.945312 45787.203125 34255.796875 45891.410156 34827.734375 45943.332031 C 35399.917969 46004.226562 36006.789062 46082.066406 36171.609375 46125.578125 C 36335.941406 46160.269531 36726.246094 46220.699219 37038.261719 46246.613281 C 37350.324219 46281.320312 37913.832031 46359.171875 38294.917969 46437.296875 C 38676.589844 46506.65625 39517.160156 46602.105469 40158.503906 46636.746094 C 40799.878906 46680.019531 41762.25 46775.242188 42282.539062 46853.394531 C 42811.003906 46931.398438 44371.117188 47026.855469 45792.855469 47070.25 C 47197.167969 47113.476562 48601.308594 47174.269531 48913.195312 47208.890625 C 49485.714844 47260.980469 54105.242188 47347.417969 54807.660156 47312.667969 C 55596.605469 47278.28125 58456.609375 47304.101562 60164.261719 47364.746094 C 61447.105469 47408.179688 62053.828125 47399.5625 62418.253906 47321.4375 C 62946.679688 47208.890625 63267.359375 47191.554688 68329.5 47078.804688 C 70201.78125 47035.582031 71762.042969 46957.398438 72013.359375 46896.847656 C 72810.941406 46714.695312 73642.953125 46645.390625 73998.527344 46732.023438 C 74180.609375 46784.0625 74717.941406 46801.394531 75185.886719 46784.0625 C 75818.753906 46749.324219 76079.109375 46775.242188 76191.238281 46862.203125 C 76278.03125 46922.796875 76408.113281 46983.480469 76477.332031 46983.480469 C 76546.835938 46983.480469 76885.066406 47226.253906 77214.367188 47512.050781 C 77552.546875 47806.914062 77976.980469 48144.816406 78167.5 48275.058594 C 78358.417969 48396.585938 78566.605469 48552.53125 78627.382812 48613.039062 C 78696.683594 48665.175781 78930.660156 48838.492188 79147.289062 48994.195312 C 79528.609375 49254.386719 80126.683594 49687.941406 80508.277344 49982.558594 C 80603.285156 50051.925781 80889.363281 50234 81140.878906 50372.757812 C 81383.660156 50520.40625 81591.613281 50675.984375 81591.613281 50719.34375 C 81591.613281 50762.601562 81652.328125 50797.203125 81721.699219 50797.203125 C 81842.941406 50797.203125 82181.195312 50953.363281 82285.121094 51057.28125 C 82337.148438 51109.433594 82614.285156 51248.203125 83065.261719 51438.90625 C 83472.507812 51620.980469 84400.136719 52158.257812 84998.332031 52548.21875 C 85336.105469 52782.261719 85578.867188 52877.703125 85795.574219 52877.703125 C 86003.617188 52877.703125 86211.796875 52955.78125 86402.421875 53103.058594 C 86679.859375 53311.226562 87806.714844 53657.609375 88213.804688 53657.609375 C 88317.828125 53657.609375 88439.214844 53692.367188 88491.386719 53735.757812 C 88534.871094 53770.328125 89106.894531 53874.488281 89756.878906 53961.292969 C 91005.195312 54117.378906 91516.410156 54082.730469 92495.789062 53779 C 92695.246094 53709.664062 92938.046875 53657.609375 93033.226562 53657.609375 C 93232.660156 53657.609375 93640.230469 53484.214844 93640.230469 53397.960938 C 93640.230469 53363.273438 93753.074219 53172.371094 93891.816406 52973.027344 C 94116.832031 52635.007812 94125.417969 52565.53125 94056.113281 52201.53125 C 94012.820312 51976.066406 93960.734375 51733.457031 93951.992188 51664.089844 C 93943.355469 51594.945312 93900.539062 51334.796875 93865.808594 51100.582031 C 93805.015625 50693.335938 93640.230469 50121.230469 93466.828125 49714.039062 C 93423.542969 49618.570312 93284.664062 49254.386719 93146.03125 48908.054688 C 93016.167969 48552.53125 92738.585938 48058.277344 92513.171875 47781.003906 C 92132.046875 47295.605469 92053.914062 47243.585938 90372.21875 46367.960938 C 90060.492188 46203.660156 90138.285156 46142.886719 90762.238281 46038.816406 C 92010.816406 45848.023438 99308.972656 45674.527344 100904.09375 45796.042969 C 101788.109375 45865.433594 102819.441406 45743.960938 103669.214844 45466.292969 C 104024.417969 45345.410156 104353.679688 45276.046875 104405.847656 45301.984375 C 104449.183594 45328.109375 104553.203125 45293.449219 104631.050781 45223.898438 C 104708.949219 45154.582031 105012.636719 45024.375 105298.597656 44946.296875 C 105584.726562 44859.613281 105861.867188 44764.21875 105905.238281 44729.535156 C 105957.386719 44694.722656 106113.394531 44643.054688 106252.15625 44616.878906 C 106459.988281 44582.136719 106572.925781 44625.746094 106798.289062 44825.027344 C 106945.796875 44963.757812 107075.792969 45102.523438 107084.308594 45137.175781 C 107084.308594 45180.574219 107690.902344 45752.535156 108436.4375 46419.941406 C 109173.101562 47087.652344 109901.316406 47781.003906 110048.378906 47962.894531 C 110195.832031 48144.816406 110447.363281 48352.917969 110612.152344 48431.136719 C 110776.898438 48509.011719 110941.402344 48656.355469 110993.433594 48751.84375 C 111036.875 48855.84375 111253.609375 49063.464844 111479.015625 49219.578125 C 111704.179688 49375.75 112007.523438 49610.046875 112146.195312 49740.074219 C 112293.855469 49878.355469 112528.003906 50060.421875 112666.289062 50155.878906 C 112813.691406 50242.707031 113047.820312 50424.921875 113186.480469 50546.164062 C 113836.46875 51117.972656 114469.085938 51620.980469 115266.648438 52201.53125 C 115743.59375 52539.429688 116280.753906 52955.78125 116454.132812 53111.710938 C 116636.398438 53267.867188 116887.90625 53423.558594 117017.722656 53449.359375 C 117156.414062 53484.214844 117416.523438 53622.964844 117606.898438 53761.679688 C 117797.824219 53891.792969 118447.933594 54186.636719 119037.257812 54403.210938 C 120355.082031 54880.277344 120580.183594 54949.398438 121247.777344 55053.597656 C 121533.703125 55096.765625 121889.292969 55174.703125 122045.035156 55217.898438 C 122201.265625 55269.929688 122461.148438 55339.28125 122617.109375 55391.195312 C 122764.496094 55434.59375 123267.339844 55512.632812 123718.054688 55564.710938 C 124168.828125 55616.664062 124740.925781 55694.789062 124975.238281 55746.785156 C 125286.988281 55807.574219 125529.824219 55807.574219 125841.847656 55738.125 C 126084.492188 55677.464844 126431.3125 55616.664062 126621.8125 55599.300781 C 126812.457031 55573.289062 127046.488281 55521.421875 127141.84375 55477.796875 C 127237.335938 55443.210938 127436.800781 55365.402344 127584.25 55304.597656 C 127774.652344 55235.203125 127913.410156 55088.1875 128052.113281 54802.078125 C 128164.652344 54576.621094 128320.863281 54316.484375 128398.710938 54221.429688 C 128624.117188 53961.292969 129309.144531 52695.617188 129482.113281 52219.03125 C 129568.765625 51984.808594 129672.828125 51750.769531 129707.5625 51707.296875 C 129742.214844 51655.28125 129872.378906 51334.796875 129993.914062 50979.332031 C 130115.15625 50632.738281 130262.523438 50285.992188 130314.316406 50216.640625 C 130375.042969 50155.878906 130496.453125 49757.410156 130583.148438 49341.039062 C 130834.539062 48222.976562 130877.726562 48032.242188 131077.277344 47416.753906 C 131207.054688 47000.949219 131259.273438 46628.09375 131259.273438 45978.089844 C 131259.273438 45492.429688 131293.660156 44902.890625 131345.875 44660.320312 C 131432.515625 44175.121094 131467.242188 40490.875 131380.597656 40092.296875 C 131310.988281 39789.167969 130877.726562 39372.859375 130565.839844 39303.425781 C 129300.503906 39043.652344 128832.335938 39008.929688 128095.394531 39138.984375 C 127272.035156 39286.082031 124931.804688 39320.75 125070.007812 39182.5 C 125121.980469 39130.34375 125312.882812 39069.695312 125503.671875 39034.792969 C 125685.859375 39008.929688 125902.320312 38939.675781 125971.699219 38878.832031 C 126188.496094 38705.371094 130167.304688 38159.488281 131337.023438 38150.730469 C 132368.671875 38133.34375 132923.53125 38289.5 133747.160156 38800.859375 C 134154.191406 39060.964844 134865.117188 39477 135324.394531 39719.78125 C 135783.742188 39962.488281 136208.734375 40196.367188 136269.515625 40248.367188 C 136373.542969 40326.257812 137586.859375 40959.40625 138930.34375 41626.773438 C 139216.480469 41774.203125 139623.972656 41955.902344 139840.59375 42042.71875 C 140195.8125 42181.46875 141088.46875 42632.230469 143957.867188 44105.785156 C 145032.636719 44660.320312 145743.238281 44989.679688 145882.027344 44989.679688 C 145925.503906 44989.679688 146081.375 45041.707031 146220.238281 45111.097656 C 146358.761719 45172.011719 146783.753906 45353.964844 147165.308594 45509.882812 C 147546.464844 45665.796875 148023.246094 45865.433594 148231.261719 45952.027344 C 148439.351562 46047.429688 148950.503906 46238.175781 149358.007812 46376.554688 C 149774.183594 46515.3125 150424.167969 46740.625 150805.488281 46879.515625 C 151187.121094 47018.292969 151577.140625 47156.976562 151672.28125 47191.554688 C 151767.632812 47226.253906 152079.703125 47347.417969 152365.886719 47460.210938 C 152651.621094 47572.890625 153215.269531 47746.253906 153613.992188 47850.398438 C 154012.722656 47945.644531 154385.199219 48058.277344 154437.210938 48101.488281 C 154489.359375 48144.816406 154671.390625 48214.148438 154836.242188 48266.195312 C 155000.867188 48318.347656 155416.917969 48457.050781 155746.535156 48587.101562 C 156786.546875 48985.710938 159768.199219 49419.140625 160522.238281 49280.382812 C 160869.003906 49219.578125 160981.683594 49080.824219 161320.046875 48283.527344 C 161874.652344 46957.398438 161857.191406 47148.195312 161805.359375 43637.359375 C 161779.351562 41877.679688 161727.445312 40187.671875 161683.863281 39875.832031 C 161640.652344 39563.644531 161597.125 39086.984375 161597.125 38818.089844 C 161597.125 38541.054688 161562.554688 38150.730469 161510.464844 37951.28125 C 161467.15625 37743.222656 161363.308594 37145.503906 161285.476562 36625.0625 C 161207.226562 36096.335938 161111.886719 35628.585938 161068.472656 35585.238281 C 161033.730469 35533.1875 160955.703125 35143.003906 160903.664062 34718.402344 C 160851.660156 34284.71875 160756.203125 33686.777344 160686.757812 33374.828125 C 160626.242188 33062.445312 160574.191406 32421.179688 160574.191406 31944.410156 C 160574.191406 31467.582031 160539.558594 30921.828125 160487.921875 30730.988281 C 160444.5625 30540.207031 160349.191406 29708.269531 160288.410156 28893.324219 C 160184.433594 27497.886719 160193.222656 27306.941406 160366.472656 26032.734375 C 160470.691406 25278.792969 160635.058594 24307.84375 160730.332031 23883.363281 C 160834.359375 23450.007812 160929.710938 22938.445312 160947.03125 22730.414062 C 160964.445312 22522.132812 161025.195312 22141.132812 161077.199219 21880.859375 C 161146.632812 21534.175781 161155.136719 21196.164062 161085.742188 20650.101562 C 161033.730469 20233.996094 160973.046875 19566.746094 160947.03125 19159.375 C 160851.660156 17885.203125 160834.359375 17737.925781 160738.878906 17338.902344 C 160686.757812 17122.34375 160635.058594 16532.722656 160617.75 16021.605469 C 160600.386719 15310.382812 160565.683594 15059.292969 160453.144531 14937.9375 C 160349.191406 14825.417969 160322.984375 14686.597656 160357.683594 14426.394531 C 160401.113281 14114.488281 160375.230469 14053.785156 160123.761719 13836.875 C 159967.75 13707.003906 159794.085938 13620.148438 159733.5625 13646.222656 C 159672.71875 13663.519531 159438.882812 13707.003906 159204.847656 13741.613281 C 158814.5 13793.660156 158520.183594 13871.644531 158086.664062 14045.25 C 157991.410156 14079.90625 157618.707031 14175.207031 157263.308594 14261.820312 C 156908.046875 14339.671875 156578.441406 14435.144531 156526.261719 14478.34375 C 156482.925781 14513.023438 156283.625 14591.238281 156092.914062 14651.863281 C 155902.371094 14712.652344 155729.140625 14790.546875 155703.210938 14816.824219 C 155590.261719 14955.269531 153631.3125 15770.070312 152105.683594 16307.542969 C 151585.695312 16498.277344 150996.164062 16723.382812 150805.488281 16810.117188 C 150146.683594 17113.535156 149851.933594 17234.832031 149505.519531 17338.902344 C 148838.046875 17546.960938 148638.59375 17616.515625 148465.21875 17685.828125 C 147242.882812 18179.589844 146454.128906 18509.144531 146393.367188 18569.765625 C 146341.355469 18604.410156 146246.414062 18639.101562 146168.253906 18639.101562 C 146090.144531 18639.101562 145795.308594 18751.871094 145509.355469 18890.402344 C 145232.046875 19020.511719 144841.988281 19202.535156 144651.167969 19280.585938 C 143923.109375 19601.464844 142232.941406 20459.578125 141313.933594 20987.882812 C 140230.429688 21603.332031 140091.652344 21672.671875 139970.664062 21672.671875 C 139892.609375 21672.671875 139771.105469 21707.519531 139684.648438 21759.546875 C 139363.875 21932.945312 136641.9375 22825.875 136069.84375 22929.597656 C 135740.441406 22999.179688 135090.582031 23129.257812 134639.773438 23224.535156 C 134136.945312 23337.128906 133495.609375 23406.511719 132992.820312 23406.511719 C 132039.566406 23406.511719 128511.535156 23094.582031 127532.324219 22929.597656 C 127367.3125 22903.730469 127098.5625 22860.421875 126933.796875 22834.515625 C 126708.574219 22799.683594 126665.234375 22765.042969 126760.605469 22704.492188 C 126829.8125 22660.914062 126959.765625 22626.316406 127046.488281 22626.316406 C 127141.84375 22626.316406 127315.242188 22539.675781 127436.800781 22426.949219 C 127566.921875 22314.570312 127895.960938 22158.421875 128182.074219 22071.816406 C 128554.78125 21950.285156 128797.492188 21811.519531 129031.617188 21568.894531 L 129352.484375 21222.089844 L 129352.484375 20424.816406 C 129352.484375 19644.769531 129343.765625 19601.464844 129040.285156 19142.066406 C 128866.972656 18881.730469 128598.035156 18595.707031 128433.390625 18509.144531 C 128268.664062 18422.492188 128138.78125 18318.429688 128138.78125 18283.632812 C 128138.78125 18188.328125 126630.566406 17625.007812 125798.628906 17416.867188 C 125000.554688 17217.527344 124307.507812 17234.832031 123544.730469 17460.289062 C 123327.78125 17520.964844 122981.378906 17625.007812 122764.496094 17685.828125 C 122547.878906 17746.410156 122261.84375 17833.261719 122114.410156 17867.980469 C 121759.207031 17971.359375 120441.785156 18292.417969 120077.675781 18370.402344 C 119912.890625 18413.917969 119505.441406 18569.765625 119167.1875 18717.238281 C 118317.902344 19115.894531 117329.828125 19419.273438 116896.660156 19419.273438 C 116697.003906 19419.273438 116445.570312 19453.941406 116332.707031 19506 C 116220.171875 19549.433594 115665.601562 19627.464844 115093.6875 19670.296875 C 114261.425781 19739.769531 113862.574219 19730.984375 113099.890625 19627.464844 C 112579.5 19549.433594 111894.753906 19462.792969 111583.152344 19419.273438 C 111270.972656 19384.648438 110456 19271.882812 109762.707031 19176.8125 C 109069.007812 19081.324219 108020.484375 18959.855469 107422.296875 18899.199219 C 106824.175781 18847.109375 106000.652344 18743.167969 105593.050781 18673.832031 C 105185.808594 18604.410156 104310.523438 18509.144531 103643.183594 18465.765625 C 102984.058594 18422.492188 102091.449219 18344.371094 101658.03125 18300.992188 C 101233.082031 18248.878906 100453.175781 18171.03125 99924.40625 18118.816406 C 99404.421875 18075.535156 98347.222656 17980.089844 97584 17902.066406 C 96821.207031 17833.261719 95087.796875 17694.40625 93727.144531 17599.183594 C 92365.921875 17494.929688 91195.917969 17399.4375 91126.476562 17382.117188 C 90901.125 17312.816406 87815.261719 16992.175781 87407.988281 16992.175781 C 87191.1875 16992.175781 86957.015625 16957.570312 86887.589844 16914.238281 C 86723.152344 16810.117188 87208.503906 16680.042969 88222.558594 16558.929688 C 88785.972656 16489.554688 89072.195312 16411.527344 89262.976562 16272.671875 C 89522.589844 16082.242188 89652.695312 16056.289062 91472.945312 15865.488281 C 92912.101562 15709.410156 93779.074219 15414.414062 94082.070312 14981.277344 C 94186.222656 14842.507812 94342.179688 14738.582031 94446.183594 14738.582031 C 94983.824219 14738.582031 94940.292969 13472.640625 94376.929688 12562.707031 C 94212.195312 12294.046875 94073.496094 12025.507812 94073.496094 11982.234375 C 94073.496094 11860.753906 93570.929688 11444.777344 93414.730469 11444.777344 C 93345.394531 11444.777344 93293.503906 11401.441406 93293.503906 11357.964844 C 93293.503906 11305.933594 93232.660156 11271.183594 93163.273438 11271.183594 C 93093.992188 11271.183594 93033.226562 11201.925781 93033.226562 11115.128906 C 93033.226562 11028.410156 92816.605469 10751.371094 92556.457031 10491.085938 C 92287.949219 10231.300781 91976.003906 9867.183594 91846.019531 9685.105469 C 91698.476562 9476.910156 91559.679688 9364.320312 91420.941406 9364.320312 C 91282.109375 9364.320312 91100.414062 9208.261719 90814.460938 8844.425781 C 90424.289062 8350.113281 90389.523438 8324.234375 90025.582031 8324.234375 C 89462.34375 8324.234375 89306.273438 8211.453125 89306.273438 7795.464844 C 89306.273438 7362.039062 89158.910156 7067.484375 88708.003906 6616.371094 C 88439.214844 6347.730469 88352.601562 6191.957031 88352.601562 5984.066406 C 88352.601562 5628.351562 88005.894531 5290.476562 87355.953125 5030.347656 C 86896.265625 4839.398438 86878.863281 4822.15625 86922.144531 4562.550781 C 86991.574219 4215.5 86870.070312 3912.265625 86549.902344 3591.550781 C 86411.152344 3444.121094 86194.476562 3106.242188 86064.375 2837.296875 C 85908.4375 2481.953125 85795.574219 2343.191406 85674.324219 2343.191406 C 85578.867188 2343.191406 85466.082031 2291.160156 85431.460938 2230.371094 C 85396.777344 2161.109375 85292.84375 2091.792969 85214.667969 2057.21875 C 85128.007812 2031.277344 85058.566406 1918.324219 85058.566406 1814.777344 C 85058.566406 1676.144531 85015.726562 1641.402344 84885.753906 1676.144531 C 84755.429688 1710.777344 84677.421875 1658.800781 84590.730469 1493.988281 C 84417.398438 1155.730469 84096.667969 895.832031 83784.535156 826.507812 C 83619.808594 791.742188 83481.140625 705.058594 83455.304688 600.820312 C 83420.53125 514.261719 83325.195312 436.214844 83238.820312 436.214844 C 83151.960938 436.214844 82874.480469 340.699219 82614.285156 219.398438 C 82129.113281 -5.652344 81999.261719 -23.089844 81504.960938 89.710938 Z M 81504.960938 89.710938 "/>
</g>
</svg>
