<?xml version="1.0" encoding="UTF-8"?>
<svg xmlns="http://www.w3.org/2000/svg" xmlns:xlink="http://www.w3.org/1999/xlink" width="10926pt" height="14568pt" viewBox="0 0 10926 14568" version="1.1">
<g id="surface298">
<path style=" stroke:none;fill-rule:nonzero;fill:rgb(0%,0%,0%);fill-opacity:1;" d="M 5463 14562.40625 C 2449.304688 14562.40625 4.183594 12117.308594 4.183594 9103.566406 C 4.183594 6510.660156 3705.949219 1646.0625 4740.847656 338.191406 C 4911.441406 124.964844 5164.484375 5.59375 5437.394531 5.59375 L 5488.605469 5.59375 C 5761.515625 5.59375 6014.558594 124.964844 6185.152344 338.191406 C 7220.050781 1646.0625 10921.816406 6510.660156 10921.816406 9103.566406 C 10921.816406 12117.308594 8476.695312 14562.40625 5463 14562.40625 Z M 2733.59375 9558.503906 C 2733.59375 9308.304688 2528.871094 9103.566406 2278.683594 9103.566406 C 2028.507812 9103.566406 1823.773438 9308.304688 1823.773438 9558.503906 C 1823.773438 11318.394531 3248.191406 12742.816406 5008.097656 12742.816406 C 5258.261719 12742.816406 5463 12538.070312 5463 12287.929688 C 5463 12037.714844 5258.261719 11832.996094 5008.097656 11832.996094 C 3751.457031 11832.996094 2733.59375 10815.175781 2733.59375 9558.503906 Z M 2733.59375 9558.503906 "/>
</g>
</svg>
