<?xml version="1.0" encoding="UTF-8"?>
<svg xmlns="http://www.w3.org/2000/svg" xmlns:xlink="http://www.w3.org/1999/xlink" width="18210pt" height="14568pt" viewBox="0 0 18210 14568" version="1.1">
<g id="surface308">
<path style=" stroke:none;fill-rule:nonzero;fill:rgb(0%,0%,0%);fill-opacity:1;" d="M 13654.886719 1369.101562 C 13654.886719 615.539062 13043.484375 4.132812 12289.953125 4.132812 L 9559.984375 4.132812 C 8806.425781 4.132812 8195 615.539062 8195 1369.101562 L 8195 2734.113281 L 6375.046875 2734.113281 L 6375.046875 686.648438 C 6375.046875 308.398438 6070.742188 4.132812 5692.585938 4.132812 C 5314.382812 4.132812 5010.101562 308.398438 5010.101562 686.648438 L 5010.101562 2734.113281 L 3190.101562 2734.113281 L 3190.101562 686.648438 C 3190.101562 308.398438 2885.824219 4.132812 2507.648438 4.132812 C 2129.398438 4.132812 1825.132812 308.398438 1825.132812 686.648438 L 1825.132812 2734.113281 L 1370.136719 2734.113281 C 616.59375 2734.113281 5.175781 3345.515625 5.175781 4099.046875 L 5.175781 13198.898438 C 5.175781 13952.460938 616.59375 14563.867188 1370.136719 14563.867188 L 16839.863281 14563.867188 C 17593.40625 14563.867188 18204.824219 13952.460938 18204.824219 13198.898438 L 18204.824219 6829.015625 C 18204.824219 6075.429688 17593.40625 5464.058594 16839.863281 5464.058594 L 13654.886719 5464.058594 Z M 16384.867188 10468.953125 L 16384.867188 11378.898438 C 16384.867188 11629.1875 16180.132812 11833.886719 15929.878906 11833.886719 L 15019.898438 11833.886719 C 14769.644531 11833.886719 14564.882812 11629.1875 14564.882812 11378.898438 L 14564.882812 10468.953125 C 14564.882812 10218.707031 14769.644531 10013.953125 15019.898438 10013.953125 L 15929.878906 10013.953125 C 16180.132812 10013.953125 16384.867188 10218.707031 16384.867188 10468.953125 Z M 6830.046875 11833.886719 L 5920.046875 11833.886719 C 5669.804688 11833.886719 5465.070312 11629.1875 5465.070312 11378.898438 L 5465.070312 10468.953125 C 5465.070312 10218.707031 5669.804688 10013.953125 5920.046875 10013.953125 L 6830.046875 10013.953125 C 7080.296875 10013.953125 7285.058594 10218.707031 7285.058594 10468.953125 L 7285.058594 11378.898438 C 7285.058594 11629.1875 7080.296875 11833.886719 6830.046875 11833.886719 Z M 3645.117188 11378.898438 C 3645.117188 11629.1875 3440.355469 11833.886719 3190.101562 11833.886719 L 2280.121094 11833.886719 C 2029.867188 11833.886719 1825.132812 11629.1875 1825.132812 11378.898438 L 1825.132812 10468.953125 C 1825.132812 10218.707031 2029.867188 10013.953125 2280.121094 10013.953125 L 3190.101562 10013.953125 C 3440.355469 10013.953125 3645.117188 10218.707031 3645.117188 10468.953125 Z M 15929.878906 7284 C 16180.132812 7284 16384.867188 7488.742188 16384.867188 7738.984375 L 16384.867188 8648.96875 C 16384.867188 8899.21875 16180.132812 9103.941406 15929.878906 9103.941406 L 15019.898438 9103.941406 C 14769.644531 9103.941406 14564.882812 8899.21875 14564.882812 8648.96875 L 14564.882812 7738.984375 C 14564.882812 7488.742188 14769.644531 7284 15019.898438 7284 Z M 7285.058594 5009.046875 L 7285.058594 5919.03125 C 7285.058594 6169.257812 7080.296875 6374 6830.046875 6374 L 5920.046875 6374 C 5669.804688 6374 5465.070312 6169.257812 5465.070312 5919.03125 L 5465.070312 5009.046875 C 5465.070312 4758.773438 5669.804688 4554.046875 5920.046875 4554.046875 L 6830.046875 4554.046875 C 7080.296875 4554.046875 7285.058594 4758.773438 7285.058594 5009.046875 Z M 3190.101562 4554.046875 C 3440.355469 4554.046875 3645.117188 4758.773438 3645.117188 5009.046875 L 3645.117188 5919.03125 C 3645.117188 6169.257812 3440.355469 6374 3190.101562 6374 L 2280.121094 6374 C 2029.867188 6374 1825.132812 6169.257812 1825.132812 5919.03125 L 1825.132812 5009.046875 C 1825.132812 4758.773438 2029.867188 4554.046875 2280.121094 4554.046875 Z M 7285.058594 8648.96875 C 7285.058594 8899.21875 7080.296875 9103.941406 6830.046875 9103.941406 L 5920.046875 9103.941406 C 5669.804688 9103.941406 5465.070312 8899.21875 5465.070312 8648.96875 L 5465.070312 7738.984375 C 5465.070312 7488.742188 5669.804688 7284 5920.046875 7284 L 6830.046875 7284 C 7080.296875 7284 7285.058594 7488.742188 7285.058594 7738.984375 Z M 3190.101562 9103.941406 L 2280.121094 9103.941406 C 2029.867188 9103.941406 1825.132812 8899.21875 1825.132812 8648.96875 L 1825.132812 7738.984375 C 1825.132812 7488.742188 2029.867188 7284 2280.121094 7284 L 3190.101562 7284 C 3440.355469 7284 3645.117188 7488.742188 3645.117188 7738.984375 L 3645.117188 8648.96875 C 3645.117188 8899.21875 3440.355469 9103.941406 3190.101562 9103.941406 Z M 11834.953125 7738.984375 L 11834.953125 8648.96875 C 11834.953125 8899.21875 11630.226562 9103.941406 11379.953125 9103.941406 L 10469.96875 9103.941406 C 10219.742188 9103.941406 10015 8899.21875 10015 8648.96875 L 10015 7738.984375 C 10015 7488.742188 10219.742188 7284 10469.96875 7284 L 11379.953125 7284 C 11630.226562 7284 11834.953125 7488.742188 11834.953125 7738.984375 Z M 11379.953125 1824.117188 C 11630.226562 1824.117188 11834.953125 2028.867188 11834.953125 2279.097656 L 11834.953125 3189.101562 C 11834.953125 3439.289062 11630.226562 3644.070312 11379.953125 3644.070312 L 10469.96875 3644.070312 C 10219.742188 3644.070312 10015 3439.289062 10015 3189.101562 L 10015 2279.097656 C 10015 2028.867188 10219.742188 1824.117188 10469.96875 1824.117188 Z M 11834.953125 5009.046875 L 11834.953125 5919.03125 C 11834.953125 6169.257812 11630.226562 6374 11379.953125 6374 L 10469.96875 6374 C 10219.742188 6374 10015 6169.257812 10015 5919.03125 L 10015 5009.046875 C 10015 4758.773438 10219.742188 4554.046875 10469.96875 4554.046875 L 11379.953125 4554.046875 C 11630.226562 4554.046875 11834.953125 4758.773438 11834.953125 5009.046875 Z M 11834.953125 5009.046875 "/>
</g>
</svg>
