<?xml version="1.0" encoding="UTF-8"?>
<svg xmlns="http://www.w3.org/2000/svg" xmlns:xlink="http://www.w3.org/1999/xlink" width="31pt" height="28pt" viewBox="0 0 31 28" version="1.1">
<g id="surface1">
<path style=" stroke:none;fill-rule:nonzero;fill:rgb(0%,0%,0%);fill-opacity:1;" d="M 6.890625 24.332031 L 10.335938 24.332031 L 10.335938 27.777344 L 6.890625 27.777344 Z M 6.890625 24.332031 "/>
<path style=" stroke:none;fill-rule:nonzero;fill:rgb(0%,0%,0%);fill-opacity:1;" d="M 20.667969 24.332031 L 24.113281 24.332031 L 24.113281 27.777344 L 20.667969 27.777344 Z M 20.667969 24.332031 "/>
<path style=" stroke:none;fill-rule:nonzero;fill:rgb(0%,0%,0%);fill-opacity:1;" d="M 6.890625 0.222656 L 10.335938 0.222656 L 10.335938 3.667969 L 6.890625 3.667969 Z M 6.890625 0.222656 "/>
<path style=" stroke:none;fill-rule:nonzero;fill:rgb(0%,0%,0%);fill-opacity:1;" d="M 20.667969 0.222656 L 24.113281 0.222656 L 24.113281 3.667969 L 20.667969 3.667969 Z M 20.667969 0.222656 "/>
<path style=" stroke:none;fill-rule:nonzero;fill:rgb(0%,0%,0%);fill-opacity:1;" d="M 24.117188 14 L 24.117188 7.109375 L 20.667969 7.109375 L 20.667969 3.664062 L 17.222656 3.664062 L 17.222656 7.109375 L 13.777344 7.109375 L 13.777344 3.664062 L 10.335938 3.664062 L 10.335938 7.109375 L 6.890625 7.109375 L 6.890625 14 L 3.445312 14 L 3.445312 17.441406 L 6.890625 17.441406 L 6.890625 20.890625 L 10.335938 20.890625 L 10.335938 24.332031 L 13.777344 24.332031 L 13.777344 20.890625 L 17.222656 20.890625 L 17.222656 24.332031 L 20.667969 24.332031 L 20.667969 20.890625 L 24.117188 20.890625 L 24.117188 17.441406 L 27.558594 17.441406 L 27.558594 14 Z M 13.777344 14 L 10.332031 14 L 10.332031 10.554688 L 13.777344 10.554688 Z M 20.664062 14 L 17.21875 14 L 17.21875 10.554688 L 20.664062 10.554688 Z M 20.664062 14 "/>
<path style=" stroke:none;fill-rule:nonzero;fill:rgb(0%,0%,0%);fill-opacity:1;" d="M 27.558594 7.105469 L 31.007812 7.105469 L 31.007812 14 L 27.558594 14 Z M 27.558594 7.105469 "/>
<path style=" stroke:none;fill-rule:nonzero;fill:rgb(0%,0%,0%);fill-opacity:1;" d="M 0 7.105469 L 3.445312 7.105469 L 3.445312 14 L 0 14 Z M 0 7.105469 "/>
</g>
</svg>
