<?xml version="1.0" encoding="UTF-8"?>
<svg xmlns="http://www.w3.org/2000/svg" xmlns:xlink="http://www.w3.org/1999/xlink" width="361pt" height="270pt" viewBox="0 0 361 270" version="1.1">
<g id="surface313">
<path style=" stroke:none;fill-rule:nonzero;fill:rgb(0%,0%,0%);fill-opacity:1;" d="M 279.921875 163.359375 L 279.921875 220.289062 L 194.660156 220.289062 L 194.660156 248.71875 L 251.539062 248.71875 L 251.539062 191.863281 L 109.460938 191.863281 L 109.460938 248.71875 L 166.339844 248.71875 L 166.339844 220.289062 L 81.078125 220.289062 L 81.078125 163.359375 L 52.652344 163.359375 L 52.652344 220.289062 L 24.1875 220.289062 L 24.1875 135 L 52.652344 135 L 52.652344 106.640625 L 81.078125 106.640625 L 81.078125 78.136719 L 109.460938 78.136719 L 109.460938 21.28125 L 81.078125 21.28125 L 81.078125 49.710938 L 137.894531 49.710938 L 137.894531 106.640625 L 109.460938 106.640625 L 109.460938 135 L 137.894531 135 L 137.894531 78.136719 L 223.105469 78.136719 L 223.105469 135 L 251.539062 135 L 251.539062 106.640625 L 223.105469 106.640625 L 223.105469 49.710938 L 279.921875 49.710938 L 279.921875 21.28125 L 251.539062 21.28125 L 251.539062 78.136719 L 279.921875 78.136719 L 279.921875 106.640625 L 308.347656 106.640625 L 308.347656 135 L 336.8125 135 L 336.8125 220.289062 L 308.347656 220.289062 L 308.347656 163.359375 "/>
</g>
</svg>
