<?xml version="1.0" encoding="UTF-8"?>
<svg xmlns="http://www.w3.org/2000/svg" xmlns:xlink="http://www.w3.org/1999/xlink" width="6563pt" height="8654pt" viewBox="0 0 6563 8654" version="1.1">
<g id="surface338">
<path style=" stroke:none;fill-rule:nonzero;fill:rgb(0%,0%,0%);fill-opacity:1;" d="M 4727.988281 8507.609375 C 4501.859375 8470.914062 4433.480469 8284.019531 4319.347656 8155.371094 C 4269.125 8092.097656 4223.109375 8025.84375 4181.175781 7956.566406 C 4066.507812 7784.484375 3926.351562 7879.011719 3820.847656 7946.886719 C 3660.601562 8048.957031 3831.566406 8116.078125 3878.8125 8183.921875 C 3976.34375 8322.027344 4143.25 8401.152344 4231.859375 8598.324219 C 4040.804688 8589.089844 3955.394531 8465.617188 3848.335938 8369.488281 C 3721.257812 8253.324219 3603.8125 8124.9375 3469.101562 8018.78125 C 3393.992188 7955.914062 3282.566406 7962.476562 3215.335938 8033.707031 C 3141.554688 8120.265625 3239.902344 8183.921875 3294.285156 8229.460938 C 3388.023438 8306.695312 3496.8125 8367.347656 3556.019531 8479.953125 C 3060.816406 8468.160156 2998.050781 7749.257812 2417.082031 7896.449219 C 2432.261719 8114.652344 2652.46875 8214.945312 2742.152344 8420.746094 C 2296.988281 8307.203125 2268.238281 7729.746094 1820.824219 7643.308594 C 1759.960938 7875.6875 1980.265625 8011.480469 1963.644531 8254.175781 C 1756.484375 8084.980469 1694.304688 7875.6875 1609.996094 7682.085938 C 1577.894531 7608.101562 1562.328125 7527.621094 1528.453125 7454.867188 C 1459.632812 7306.050781 1351.4375 7129.5625 1201.0625 7140.761719 C 1051.210938 7151.816406 1105.109375 7369.089844 1063.246094 7493.746094 C 1038.261719 7562.726562 1075.617188 7657.144531 969.332031 7722.128906 C 859.1875 7543.109375 959.996094 7367.316406 969.332031 7197.074219 C 973.152344 7094.453125 1015.574219 6993.261719 1018.746094 6891.3125 C 1025.144531 6738.699219 947.605469 6595.367188 816.585938 6517.613281 C 709.375 6459.410156 617.496094 6594.878906 524.089844 6655.675781 C 431.066406 6716.449219 385.957031 6872.582031 203.066406 6872.582031 C 227.335938 6656.320312 417.753906 6583.355469 528.855469 6458.15625 C 603.679688 6373.253906 717.558594 6319.96875 743.1875 6197.785156 C 762.667969 6105.246094 767.421875 6006.320312 678.289062 5946.976562 C 589.15625 5887.476562 531.949219 5969.570312 471.144531 6016.136719 C 356.464844 6099.632812 282.367188 6240.554688 97.382812 6292.234375 C 132.6875 6059.65625 310.742188 5971.796875 423.59375 5839.914062 C 492.230469 5761.054688 573.511719 5695.519531 634.800781 5613.171875 C 715.324219 5523.410156 725.695312 5390.417969 659.542969 5289.402344 C 565.136719 5169.417969 452.5625 5269.4375 353.015625 5320.289062 C 265.046875 5378.203125 170.007812 5424.660156 70.640625 5458.769531 C 116.851562 5274.714844 256.863281 5182.355469 415.890625 5107.046875 C 521.15625 5061.46875 624.136719 5010.195312 723.183594 4952.136719 C 799.679688 4914.234375 832.460938 4822.625 797.175781 4745.089844 C 760.441406 4663.464844 681.707031 4685.476562 615.359375 4696.464844 C 438.652344 4720.960938 259.628906 4753.433594 24.140625 4796.144531 C 224.355469 4545.90625 469.886719 4545.90625 689.964844 4494.671875 C 807.359375 4466.65625 987 4494.671875 955.804688 4310.492188 C 931.035156 4162.589844 765.3125 4217.855469 659.542969 4220.542969 C 502.824219 4224.085938 346.84375 4252.414062 107 4279.285156 C 365.203125 4063.808594 597.535156 4032.34375 835.3125 4009.160156 C 956.675781 3997.429688 1135.613281 4009.160156 1111.320312 3836.613281 C 1091.992188 3686.660156 923.289062 3759.449219 817.140625 3754.503906 C 710.625 3749.660156 621.519531 3823.230469 478.976562 3754.503906 C 659.542969 3596.949219 850.398438 3589.285156 1038.929688 3588.601562 C 1227.4375 3587.847656 1341.984375 3519.300781 1315.230469 3327.460938 C 1284.667969 3114.507812 1124.546875 3237.308594 1016.777344 3243.902344 C 896.542969 3252.203125 778.375 3273.542969 577.570312 3299.917969 C 801.800781 3079.5625 1022.285156 3109.328125 1212.128906 3055.972656 C 1295.59375 3032.585938 1423.730469 3042.871094 1408.371094 2912.898438 C 1393.109375 2782.957031 1266.753906 2774.90625 1163.671875 2787.28125 C 1038.261719 2808.363281 911.265625 2819.230469 784.058594 2819.230469 C 915.867188 2656.113281 1095 2611.691406 1297.796875 2625.777344 C 1360.550781 2625.777344 1452.710938 2666.269531 1479.171875 2579.441406 C 1509.402344 2479.21875 1409.953125 2449.503906 1344.035156 2408.449219 C 1178.5625 2309.277344 990.492188 2339.515625 804.738281 2299.65625 C 969.660156 2173.089844 1156.378906 2192.46875 1347.019531 2233.777344 C 1415.957031 2248.234375 1496.996094 2280.746094 1533.363281 2206.945312 C 1585.550781 2103.507812 1477.550781 2068.972656 1415.957031 2031.132812 C 1269.03125 1934.113281 1095 1871.949219 979.957031 1685.660156 C 1228.675781 1676.484375 1369.667969 1888.023438 1613.601562 1878.265625 C 1528.128906 1628.851562 1236.574219 1628.851562 1115.671875 1447.511719 C 1143.992188 1425.980469 1167.941406 1399.664062 1175.085938 1403.523438 C 1486.527344 1576.863281 1697.050781 1545.988281 1727.589844 1138.566406 C 1727.589844 1116.203125 1747.578125 1095.925781 1752.433594 1074.035156 C 1781.515625 928.960938 2012.722656 852.464844 1934.292969 692.804688 C 1835.011719 493.757812 1626.871094 383.136719 1432.707031 285.378906 C 1113.835938 123.617188 742.089844 285.378906 587.566406 650.746094 C 467.640625 939.566406 430.320312 1251.089844 370.878906 1555.496094 C 357.304688 1644.699219 369.617188 1743.015625 284.441406 1809.953125 C 184.316406 1484.316406 406.292969 524.261719 630.25 310.15625 C 917.125 29.847656 1309.515625 -49.074219 1669.5625 228.710938 C 2131.671875 585.007812 2619.097656 647.601562 3171.339844 627.734375 C 3723.21875 607.902344 4000.277344 883.59375 4073.339844 1418.664062 C 4137.820312 1880.058594 4020.847656 2317.054688 3935.519531 2758.847656 L 3830.417969 2750.117188 C 3850.359375 2588.277344 3873.929688 2427.296875 3890.355469 2266.441406 C 3916.234375 2073.28125 3931.203125 1878.617188 3935.519531 1683.484375 C 3922.320312 875.824219 3432.765625 692.804688 2712.640625 831.199219 C 2690.390625 835.152344 2658 834.351562 2643.597656 848.414062 C 2441.25 1109.515625 2690.390625 1401.074219 2587.699219 1690.296875 C 2536.433594 1833.203125 2774.660156 1750.601562 2885.523438 1753.144531 C 2950.308594 1753.144531 3015.957031 1753.144531 3137.460938 1753.144531 C 2940.804688 1953.53125 2705.730469 1891.3125 2506.488281 2003.289062 C 2705.730469 2141.4375 2932.894531 2091.003906 3161.078125 2172.445312 C 2979.351562 2310.585938 2801.738281 2274.15625 2628.191406 2269.214844 C 2536.078125 2269.214844 2421.308594 2282.78125 2425.179688 2401.316406 C 2431.386719 2502.152344 2548.109375 2480.597656 2624.117188 2486.886719 C 2757.503906 2498.03125 2893.011719 2498.523438 3064.398438 2624.992188 C 2827.875 2635.375 2658.863281 2640.886719 2489.660156 2651.179688 C 2431.386719 2651.179688 2367.957031 2674.089844 2361.917969 2741.597656 C 2355.535156 2809.285156 2426.503906 2825.042969 2478.410156 2844.605469 C 2642.175781 2904.425781 2839.78125 2892.945312 2983.582031 3064.828125 C 2812.15625 3109.328125 2686.894531 3035.335938 2555.015625 3014.511719 C 2450.90625 2998.046875 2338.792969 2973.699219 2284.472656 3094.679688 C 2219.9375 3237.308594 2353.347656 3265.835938 2434.796875 3317.664062 C 2582.691406 3410.410156 2772.789062 3451.847656 2866.820312 3648.875 C 2688.3125 3679.636719 2590.488281 3554.035156 2463.789062 3518.804688 C 2372.730469 3489.257812 2264.242188 3352.484375 2171.847656 3510.105469 C 2093.8125 3648.015625 2115.175781 3762.949219 2240.792969 3875.085938 C 2383.035156 4000.925781 2557.753906 4108.09375 2618.609375 4346.960938 C 2450.90625 4322.957031 2395.671875 4175.441406 2284.9375 4115.070312 C 2200.648438 4068.886719 2122.800781 3941.09375 2020.449219 4045.878906 C 1906.566406 4163.304688 1979.917969 4275.867188 2081.828125 4372.09375 C 2229.148438 4510.0625 2427.421875 4601.21875 2557.753906 4850.246094 C 2330.59375 4793.511719 2209.226562 4662.175781 2065.390625 4573.65625 C 1996.316406 4529.453125 1914.800781 4423.710938 1840.257812 4556.265625 C 1785.699219 4653.207031 1840.257812 4734.621094 1932.578125 4784.09375 C 2118.554688 4886.597656 2306.402344 4984.582031 2493.683594 5084.296875 L 2461.945312 5167.640625 C 2303.648438 5112.128906 2146.9375 5056.757812 1988.015625 5003.347656 C 1895.105469 4971.625 1780.9375 4887.5625 1718.601562 5024.519531 C 1649.566406 5180.027344 1802.257812 5217.039062 1901.539062 5258.644531 C 2071.070312 5320.140625 2236.597656 5391.347656 2397.566406 5472.570312 C 2190.394531 5535.722656 2004.417969 5437.804688 1811.96875 5403.4375 C 1748.320312 5392.464844 1657.527344 5356.296875 1637.203125 5449.777344 C 1610.703125 5565.683594 1710.292969 5571.898438 1791.894531 5575.84375 C 1996.21875 5583.003906 2199.554688 5606.832031 2400.234375 5644.980469 C 2239.410156 5799.816406 2041.777344 5714.277344 1864.085938 5743.886719 C 1779.453125 5758.433594 1657.046875 5735.59375 1674.855469 5877.375 C 1692.285156 6001.003906 1795.949219 5994.535156 1892.984375 5972.710938 C 2169.261719 5909.839844 2435.636719 5779.179688 2703.710938 6028.515625 C 2810.636719 6128.738281 2821.890625 6166.585938 2721.628906 6256.597656 C 2634.988281 6332.015625 2559.019531 6419.394531 2496.492188 6516.125 C 2440.292969 6610.816406 2243.652344 6707.46875 2388.675781 6818.796875 C 2504.109375 6906.570312 2562.722656 6716.449219 2629.195312 6634.792969 C 2738.277344 6477.214844 2871.761719 6337.253906 3024.242188 6220.5625 C 2966.183594 6468.640625 2834.34375 6584.6875 2747.765625 6726.210938 C 2694.476562 6813.097656 2621.230469 6913.246094 2784.472656 6971.386719 C 2904.628906 7014.910156 3003.355469 7025.441406 3053.914062 6865.21875 C 3122.941406 6650.074219 3122.941406 6411.824219 3304.480469 6186.425781 C 3366.125 6485.859375 3170.652344 6739.335938 3266.5 7034.285156 C 3529.648438 6819.433594 3428.910156 6474.742188 3632.632812 6228.753906 C 3701.855469 6426.351562 3586.722656 6584.6875 3607.101562 6744.867188 C 3618.960938 6837.484375 3615.40625 6945.332031 3745.257812 6940.898438 C 3850.359375 6940.898438 3858.835938 6843.667969 3868.523438 6762.105469 C 3894.070312 6554.65625 3833.078125 6333.777344 3941.769531 6077.976562 C 4050.101562 6255.121094 4002.566406 6404.949219 4024.367188 6541.761719 C 4039.652344 6641.027344 3965.109375 6822.238281 4134.824219 6808.589844 C 4258.0625 6797.96875 4196.660156 6636.171875 4181.175781 6540.761719 C 4143.105469 6319.480469 4141.511719 6092.53125 4177.152344 5870.324219 C 4334.386719 6039.699219 4271.507812 6203.851562 4300.710938 6342.019531 C 4322.207031 6442.160156 4266.933594 6618.332031 4438.957031 6594.878906 C 4560.519531 6577.234375 4637.125 6436.046875 4609.347656 6292.96875 C 4559.574219 6048.917969 4550.703125 5798 4583.082031 5551.050781 C 4782.0625 5753.363281 4635.484375 6034.707031 4844.398438 6241.820312 C 4889.816406 5878.730469 4711.253906 5551.050781 4876.75 5213.226562 C 4979.792969 5408.109375 4866.675781 5622.050781 5021.167969 5828.214844 C 5232.765625 5441.984375 5435.6875 5082.851562 5627.464844 4716.71875 C 5717.722656 4543.160156 5781.074219 4357.179688 5952.40625 4238.46875 C 6075.433594 4153.894531 6194.742188 4111.574219 6335.144531 4197.125 C 6475.207031 4282.820312 6572.832031 4381.503906 6527.78125 4560.609375 C 6403.542969 5057.851562 6280.632812 5555.277344 6044.421875 6011.28125 C 6002.898438 6091.332031 5927.691406 6156.242188 5935.945312 6280.5 C 6086.511719 6320.660156 6155.539062 6124.390625 6331.785156 6150.722656 C 6262.496094 6347.933594 6075.433594 6400.730469 5949.535156 6511.394531 C 5855.492188 6594.449219 5731.15625 6644.15625 5644.359375 6732.269531 C 5388.761719 6990.28125 5415.039062 7072.1875 5765.09375 7182.117188 C 5870.871094 7216.007812 5972.535156 7257.3125 6159.78125 7320.054688 C 5920.589844 7421.742188 5781.804688 7330.007812 5640.054688 7296.078125 C 5518.550781 7267.652344 5390.105469 7200.769531 5275.210938 7219.425781 C 5118.476562 7244.917969 4956.839844 7352.488281 4912.09375 7504.019531 C 4867.164062 7655.585938 5054.921875 7710.976562 5156.035156 7798.460938 C 5256.773438 7885.363281 5392.839844 7884.574219 5475.433594 8036.703125 C 5190.519531 8063.535156 5009.976562 7892.84375 4840.414062 7750.671875 C 4670.015625 7608.101562 4554.054688 7626.949219 4420.234375 7750.671875 C 4266.011719 7893.742188 4426.09375 7994.953125 4481.675781 8108.40625 C 4541.800781 8248.792969 4695.640625 8319.585938 4727.988281 8507.609375 Z M 4727.988281 8507.609375 "/>
</g>
</svg>
