<?xml version="1.0" encoding="UTF-8"?>
<svg xmlns="http://www.w3.org/2000/svg" xmlns:xlink="http://www.w3.org/1999/xlink" width="2673pt" height="3054pt" viewBox="0 0 2673 3054" version="1.1">
<g id="surface403">
<path style=" stroke:none;fill-rule:nonzero;fill:rgb(0%,0%,0%);fill-opacity:1;" d="M 2290.753906 477.324219 C 2343.234375 477.324219 2386.175781 520.265625 2386.175781 572.746094 L 2386.175781 2481.253906 C 2386.175781 2533.734375 2343.234375 2576.675781 2290.753906 2576.675781 L 382.246094 2576.675781 C 329.765625 2576.675781 286.824219 2533.734375 286.824219 2481.253906 L 286.824219 572.746094 C 286.824219 520.265625 329.765625 477.324219 382.246094 477.324219 Z M 382.246094 191.046875 C 171.726562 191.046875 0.546875 362.226562 0.546875 572.746094 L 0.546875 2481.253906 C 0.546875 2691.773438 171.726562 2862.953125 382.246094 2862.953125 L 2290.753906 2862.953125 C 2501.273438 2862.953125 2672.453125 2691.773438 2672.453125 2481.253906 L 2672.453125 572.746094 C 2672.453125 362.226562 2501.273438 191.046875 2290.753906 191.046875 Z M 382.246094 191.046875 "/>
</g>
</svg>
