<?xml version="1.0" encoding="UTF-8"?>
<svg xmlns="http://www.w3.org/2000/svg" xmlns:xlink="http://www.w3.org/1999/xlink" width="2341pt" height="1091pt" viewBox="0 0 2341 1091" version="1.1">
<g id="surface378">
<path style=" stroke:none;fill-rule:nonzero;fill:rgb(0%,0%,0%);fill-opacity:1;" d="M 822.511719 9.789062 C 799.929688 12.84375 777.339844 16.207031 772.148438 17.425781 C 748.347656 22.917969 697.367188 43.070312 653.105469 64.734375 C 596.027344 92.519531 570.382812 112.351562 507.816406 176.765625 C 443.714844 243.308594 427.839844 267.417969 406.164062 333.648438 C 389.683594 383.726562 382.957031 417.609375 382.957031 450.875 C 382.957031 486.890625 394.261719 619.675781 400.054688 651.726562 C 402.808594 666.378906 404.640625 678.890625 404.03125 679.503906 C 400.054688 682.867188 313.675781 716.746094 282.226562 727.421875 C 232.171875 744.515625 204.707031 746.042969 122.902344 735.980469 C 58.175781 728.03125 35.90625 729.558594 14.535156 742.6875 L 3.550781 749.707031 L 35.296875 755.199219 C 75.578125 762.226562 207.761719 769.242188 246.523438 766.5 C 284.070312 763.75 298.410156 759.464844 369.839844 729.863281 C 401.886719 716.746094 430.882812 705.761719 434.242188 705.761719 C 440.96875 705.761719 520.320312 732.609375 524.296875 736.285156 C 525.515625 737.199219 516.96875 750.925781 505.371094 766.191406 C 493.769531 781.757812 483.078125 797.023438 482.160156 800.6875 C 475.761719 820.53125 498.34375 844.332031 555.425781 878.515625 C 578.929688 892.5625 616.785156 918.511719 639.371094 936.222656 C 695.535156 979.863281 710.191406 987.191406 750.484375 989.328125 C 778.257812 990.851562 783.152344 992.074219 793.824219 999.703125 C 809.082031 1010.085938 810.925781 1010.085938 807.253906 1000.011719 C 805.421875 995.742188 804.207031 991.769531 804.207031 990.851562 C 804.207031 988.410156 831.675781 989.632812 847.242188 992.988281 C 864.648438 996.65625 888.761719 1007.03125 904.632812 1017.714844 L 915.3125 1024.429688 L 909.203125 1014.351562 C 902.191406 1002.144531 878.070312 979.863281 859.449219 967.652344 C 851.824219 963.074219 831.980469 953.609375 815.195312 947.199219 C 766.050781 927.972656 733.394531 911.792969 719.34375 899.890625 C 712.019531 894.097656 699.195312 887.070312 690.652344 884.324219 C 679.96875 881.269531 668.980469 874.246094 654.933594 862.039062 C 643.957031 852.269531 631.746094 842.507812 628.082031 840.375 C 618.308594 835.488281 618.609375 819 628.382812 807.40625 C 636.929688 797.328125 646.699219 793.964844 686.382812 786.644531 C 711.410156 782.0625 714.46875 782.0625 729.113281 786.644531 C 737.660156 789.394531 750.785156 796.101562 758.410156 801.296875 C 802.988281 832.117188 812.449219 837.316406 827.707031 841.898438 C 837.183594 844.640625 854.570312 847.382812 867.089844 847.691406 C 891.808594 848.910156 897.300781 851.046875 918.0625 868.144531 C 929.355469 877.597656 932.707031 879.125 934.242188 875.472656 C 939.742188 860.808594 889.070312 807.710938 850.910156 788.476562 C 837.792969 781.757812 819.78125 771.6875 810.925781 766.191406 L 795.042969 755.824219 L 805.121094 746.042969 C 810.617188 740.558594 818.246094 736.285156 822.207031 736.285156 C 826.179688 736.285156 841.449219 745.433594 857.308594 757.351562 C 889.371094 781.453125 962.023438 819.308594 1004.449219 833.339844 C 1045.347656 847.082031 1102.128906 854.402344 1219.945312 861.429688 C 1256.269531 863.257812 1273.976562 865.703125 1280.703125 869.058594 C 1285.882812 871.808594 1303.585938 877.597656 1319.761719 881.878906 C 1355.472656 891.039062 1421.40625 915.757812 1437.894531 926.449219 C 1444.613281 930.40625 1459.574219 942.625 1471.164062 953.300781 C 1495.277344 975.289062 1523.0625 996.949219 1541.375 1007.953125 C 1548.089844 1011.925781 1563.050781 1023.207031 1574.640625 1032.972656 C 1588.683594 1044.578125 1601.207031 1052.199219 1611.277344 1055.257812 C 1672.929688 1073.574219 1683.925781 1075.707031 1718.71875 1078.15625 C 1742.53125 1079.679688 1758.699219 1082.117188 1765.121094 1085.480469 C 1789.234375 1098 1790.457031 1086.699219 1766.648438 1067.773438 C 1714.753906 1026.566406 1702.847656 1020.15625 1679.949219 1020.15625 C 1671.101562 1020.15625 1663.78125 1016.183594 1642.105469 999.398438 C 1611.277344 975.898438 1612.191406 974.976562 1654.316406 980.167969 C 1675.675781 982.914062 1679.644531 982.304688 1690.332031 977.121094 C 1701.9375 971.011719 1703.15625 971.011719 1736.121094 975.898438 C 1754.734375 978.648438 1770.917969 981.386719 1772.140625 982.304688 C 1773.359375 982.914062 1775.492188 981.996094 1776.714844 979.863281 C 1780.375 974.0625 1757.5 956.660156 1738.566406 951.167969 C 1711.398438 943.542969 1681.167969 928.277344 1643.328125 903.550781 C 1582.589844 864.175781 1581.976562 859.300781 1624.703125 797.632812 C 1649.734375 761.921875 1661.949219 749.402344 1681.476562 740.558594 C 1690.941406 736.589844 1732.453125 726.8125 1785.574219 716.441406 C 1834.410156 706.980469 1892.410156 693.84375 1914.992188 687.136719 C 1945.820312 677.96875 1960.175781 675.222656 1974.515625 675.527344 C 1989.78125 676.140625 2003.515625 672.785156 2052.046875 657.515625 C 2084.398438 647.148438 2111.269531 638.609375 2112.183594 638.609375 C 2113.101562 638.609375 2113.710938 642.265625 2113.710938 646.535156 C 2113.710938 656.007812 2108.828125 656.296875 2180.875 640.738281 C 2208.644531 634.640625 2247.714844 628.21875 2267.859375 626.386719 C 2317.003906 622.113281 2319.757812 621.207031 2328.90625 610.519531 C 2337.757812 600.140625 2338.367188 595.871094 2331.960938 583.96875 C 2325.246094 570.835938 2306.011719 561.375 2247.714844 542.140625 C 2160.722656 513.757812 2143.625 503.679688 2070.667969 436.832031 C 1986.730469 359.308594 1952.839844 336.105469 1871.34375 299.164062 C 1823.117188 277.191406 1812.734375 269.558594 1804.804688 251.238281 C 1801.75 243.617188 1795.03125 228.960938 1790.152344 218.890625 C 1778.238281 194.472656 1766.339844 163.027344 1750.773438 116.023438 C 1741 87.328125 1735.816406 75.425781 1730.011719 70.84375 C 1719.640625 62.601562 1715.667969 63.214844 1704.070312 73.585938 L 1693.992188 82.4375 L 1693.992188 131.582031 C 1693.992188 164.25 1692.773438 180.730469 1690.632812 180.730469 C 1689.117188 180.730469 1683.625 176.464844 1678.425781 171.269531 C 1656.441406 147.757812 1563.050781 67.484375 1558.457031 68.402344 C 1554.796875 69.011719 1552.972656 75.121094 1550.835938 90.078125 C 1548.699219 108.394531 1549.308594 115.101562 1557.546875 148.066406 C 1562.742188 168.519531 1569.152344 205.148438 1571.890625 229.570312 C 1574.339844 253.984375 1577.082031 279.023438 1578 285.125 C 1578.914062 291.84375 1578.300781 296.730469 1576.472656 296.730469 C 1574.949219 296.730469 1558.15625 292.453125 1539.234375 287.566406 C 1483.078125 272.300781 1458.65625 259.183594 1383.550781 203.316406 C 1323.738281 159.066406 1241.324219 104.417969 1211.710938 89.769531 C 1150.964844 59.558594 1109.453125 44.589844 1020.933594 20.480469 C 956.226562 3.082031 898.519531 -0.277344 822.511719 9.789062 Z M 822.511719 9.789062 "/>
</g>
</svg>
