<?xml version="1.0" encoding="UTF-8"?>
<svg xmlns="http://www.w3.org/2000/svg" xmlns:xlink="http://www.w3.org/1999/xlink" width="16383pt" height="14568pt" viewBox="0 0 16383 14568" version="1.1">
<g id="surface293">
<path style=" stroke:none;fill-rule:nonzero;fill:rgb(0%,0%,0%);fill-opacity:1;" d="M 9101.484375 2733.835938 C 9101.484375 3236.394531 8694.058594 3643.820312 8191.5 3643.820312 C 7688.941406 3643.820312 7281.515625 3236.394531 7281.515625 2733.835938 C 7281.515625 2231.269531 7688.941406 1823.769531 8191.5 1823.769531 C 8694.058594 1823.769531 9101.484375 2231.269531 9101.484375 2733.835938 Z M 9701.621094 5008.894531 C 10438.136719 4519.785156 10921.601562 3683.632812 10921.601562 2733.835938 C 10921.601562 1226.535156 9698.75 3.664062 8191.5 3.664062 C 6684.25 3.664062 5461.398438 1226.535156 5461.398438 2733.835938 C 5461.398438 3683.632812 5944.863281 4519.785156 6681.378906 5008.894531 L 6371.449219 5008.894531 C 5868.078125 5008.894531 5461.398438 5415.609375 5461.398438 5918.964844 C 5461.398438 6422.34375 5868.078125 6828.976562 6371.449219 6828.976562 L 7281.515625 6828.976562 L 7281.515625 12744.230469 L 5916.394531 12744.230469 C 4409.167969 12744.230469 3186.316406 11521.328125 3186.316406 10014.101562 L 3186.316406 9840.640625 L 3385.375 10039.742188 C 3652.730469 10307.046875 4084.953125 10307.046875 4349.453125 10039.742188 C 4613.894531 9772.402344 4616.746094 9340.136719 4349.453125 9075.621094 L 2759.699219 7483.070312 C 2492.351562 7215.707031 2060.117188 7215.707031 1795.625 7483.070312 L 200.226562 9075.621094 C -67.117188 9342.96875 -67.117188 9775.203125 200.226562 10039.742188 C 467.582031 10304.179688 899.824219 10307.046875 1164.3125 10039.742188 L 1363.371094 9840.640625 L 1363.371094 10014.101562 C 1363.371094 12528.109375 3399.566406 14564.335938 5913.570312 14564.335938 L 10463.746094 14564.335938 C 12977.753906 14564.335938 15013.933594 12528.109375 15013.933594 10014.101562 L 15013.933594 9840.640625 L 15213 10039.742188 C 15480.335938 10307.046875 15912.605469 10307.046875 16177.09375 10039.742188 C 16441.523438 9772.402344 16444.40625 9340.136719 16177.09375 9075.621094 L 14584.515625 7483.070312 C 14317.183594 7215.707031 13884.929688 7215.707031 13620.445312 7483.070312 L 12027.847656 9075.621094 C 11760.582031 9342.96875 11760.582031 9775.203125 12027.847656 10039.742188 C 12295.191406 10304.179688 12727.488281 10307.046875 12991.960938 10039.742188 L 13191.007812 9840.640625 L 13191.007812 10014.101562 C 13191.007812 11521.328125 11968.152344 12744.230469 10460.875 12744.230469 L 9101.484375 12744.230469 L 9101.484375 6828.976562 L 10011.550781 6828.976562 C 10514.921875 6828.976562 10921.601562 6422.34375 10921.601562 5918.964844 C 10921.601562 5415.609375 10514.921875 5008.894531 10011.550781 5008.894531 Z M 9701.621094 5008.894531 "/>
</g>
</svg>
