<?xml version="1.0" encoding="UTF-8"?>
<svg xmlns="http://www.w3.org/2000/svg" xmlns:xlink="http://www.w3.org/1999/xlink" width="31999pt" height="26676pt" viewBox="0 0 31999 26676" version="1.1">
<g id="surface333">
<path style=" stroke:none;fill-rule:evenodd;fill:rgb(0%,0%,0%);fill-opacity:1;" d="M 26293.609375 51.539062 C 26215.683594 177.792969 26089.65625 1050.902344 26119.761719 1256.984375 C 26147.015625 1441.515625 26130.917969 1462.457031 25963.128906 1462.457031 C 25860.164062 1462.457031 25678.703125 1481.914062 25559.335938 1505.550781 L 25342.992188 1549.152344 L 25341.875 1211.292969 C 25340.351562 762.429688 25238.851562 600.902344 25180.320312 954.722656 C 25156.75 1100.414062 25136.210938 1303.449219 25136.027344 1405.578125 C 25135.40625 1532.496094 25089.523438 1605.960938 24991.519531 1637.039062 C 24912.550781 1662.332031 24839.851562 1672.117188 24830.097656 1659.160156 C 24820.429688 1646.292969 24757.429688 1427.179688 24690.59375 1172.230469 C 24622.894531 917.734375 24524.988281 652.78125 24472.726562 583.5 C 24386.664062 469.6875 24377.335938 480.308594 24375.597656 703.347656 C 24374.207031 838.078125 24421.519531 1133.558594 24480.40625 1359.792969 C 24580.3125 1742.917969 24579.292969 1777.046875 24467.070312 1859.289062 C 24294.765625 1985.117188 24198.535156 1968.828125 24067.558594 1791.226562 C 23953.585938 1637.039062 23952.710938 1637.945312 23989.445312 1877.984375 C 24021.867188 2089.382812 24000.164062 2138.070312 23819.601562 2258.855469 C 23706.078125 2335.113281 23594.144531 2397.578125 23570.921875 2397.578125 C 23547.441406 2397.578125 23473.804688 2254.355469 23407.421875 2079.566406 C 23281.257812 1746.503906 22858.675781 1084.199219 22805.851562 1136.792969 C 22758.78125 1183.71875 22979.257812 2185.976562 23100.113281 2475.417969 C 23204.433594 2725.789062 23203.222656 2737.53125 23045.996094 2858.449219 C 22841.558594 3015.867188 22780.910156 3017.039062 22777.683594 2865.003906 C 22776.558594 2798.328125 22727.757812 2665.609375 22669.933594 2570.753906 C 22569.351562 2405.359375 22566.429688 2415.328125 22602.425781 2785.21875 C 22640.0625 3169.726562 22638.523438 3174.199219 22381.304688 3357.6875 L 22122.480469 3542.515625 L 22101.851562 3351.136719 C 22048.730469 2856.226562 21591.902344 1688.027344 21407.390625 1573.921875 C 21339.832031 1532.089844 21408.679688 2037.523438 21534.050781 2503.222656 C 21579.742188 2671.660156 21709.132812 2992.792969 21822.113281 3216.875 C 22017.855469 3604.464844 22021.972656 3628.535156 21901.925781 3713.785156 C 21832.585938 3762.609375 21637.113281 3913.332031 21467.828125 4047.976562 L 21159.453125 4293.128906 L 20973.058594 3968.769531 C 20870.460938 3790.027344 20701.066406 3566.074219 20596.25 3471.003906 L 20405.980469 3297.929688 L 20454.507812 3505.640625 C 20481.070312 3619.960938 20608.65625 3874.332031 20738.0625 4071.011719 L 20973.058594 4428.707031 L 20595.527344 4713.84375 C 20387.914062 4870.6875 20179.171875 5013.621094 20131.507812 5032.070312 C 20081.152344 5051.308594 19976.820312 4937.433594 19883.683594 4761.601562 C 19795.46875 4594.628906 19629.421875 4352.523438 19515.699219 4224.214844 L 19308.46875 3990.164062 L 19350.605469 4299.238281 C 19373.78125 4469.210938 19464.402344 4785.53125 19551.582031 5001.695312 L 19710.777344 5394.609375 L 18948.167969 5965.921875 L 18186.324219 6536.820312 L 18042.488281 6337.246094 C 17963.535156 6227.140625 17796.300781 6028.402344 17671.308594 5895.21875 L 17444.136719 5652.535156 L 17487.980469 5860.457031 C 17512.015625 5974.703125 17604.097656 6230.878906 17692.476562 6429.8125 L 17853.402344 6791.433594 L 17598.511719 6989.347656 C 17176.992188 7317.148438 17188.574219 7317.738281 16800.902344 6951.007812 C 16076.652344 6265.894531 15860.71875 6327.710938 16554.546875 7021.535156 L 16977.605469 7444.863281 L 16745.167969 7637.429688 C 16617.082031 7743.644531 16495.886719 7831.355469 16476.234375 7832.402344 C 16455.824219 7833.53125 16304.707031 7648.335938 16139.390625 7421.414062 C 15973.75 7194.273438 15763.3125 6959.398438 15671.394531 6899.128906 C 15506.242188 6791.070312 15504.484375 6792.347656 15546.609375 6983 C 15569.691406 7089.355469 15687.632812 7378.769531 15808.347656 7626.511719 C 15928.738281 7874.003906 16036.753906 8095.910156 16047.824219 8119.460938 C 16058.445312 8143.332031 15787.941406 8370.84375 15446.082031 8625.34375 L 14824.574219 9087.839844 L 14528.109375 8766.085938 C 14364.941406 8589.164062 14220.445312 8476.804688 14206.800781 8517.863281 C 14193.332031 8558.117188 14263.433594 8752.382812 14362.289062 8949.585938 C 14461.460938 9146.589844 14533.546875 9314.046875 14522.957031 9321.128906 C 14512.234375 9328.183594 14394.414062 9415.414062 14261.054688 9514.539062 L 14018.171875 9694.902344 L 13789.683594 9422.496094 C 13474.964844 9047.683594 13393.175781 9081.441406 13604.710938 9499.011719 C 13701.851562 9690.832031 13767.234375 9870.8125 13750.253906 9898.976562 C 13732.878906 9926.796875 13582.070312 10047.734375 13415.339844 10167.640625 L 13111.914062 10385.367188 L 12929.503906 10096.648438 C 12828.847656 9937.917969 12647.558594 9714.773438 12526.964844 9600.308594 L 12306.644531 9392.621094 L 12355.949219 9634.988281 C 12383.039062 9768.476562 12476.609375 10057.328125 12563.847656 10276.609375 L 12722.347656 10675.621094 L 12505.660156 10845.347656 L 12289.28125 11015.015625 L 11985.78125 10667.933594 C 11818.78125 10477.050781 11668.011719 10335.5 11650.6875 10352.738281 C 11597.714844 10405.402344 11813.671875 10768.078125 12004.578125 10946.5 L 12184.910156 11114.847656 L 12010.265625 11297.683594 L 11835.339844 11480.097656 L 11386.117188 11030.816406 C 11139.019531 10783.664062 10918.527344 10599.792969 10896.054688 10622.394531 C 10837.046875 10681.671875 11195.335938 11267.949219 11439.644531 11512.269531 C 11761.417969 11834.058594 11597.714844 11882.769531 11016.480469 11638.46875 C 10739.519531 11522.214844 10480.667969 11437.8125 10441.054688 11450.992188 C 10369.035156 11475.15625 10835.910156 11934.984375 11129.007812 12128.363281 C 11273.085938 12223.609375 11279.277344 12250.914062 11200.367188 12457.226562 C 11103.027344 12712.839844 11074.992188 12721.332031 10803.488281 12581.089844 C 10582.496094 12466.90625 9609.878906 12186.023438 9570.40625 12224.890625 C 9530.9375 12264.75 10417.359375 12808.167969 10718.632812 12928.644531 C 10984.832031 13035.277344 10988.5625 13041.5625 10930.164062 13292.738281 C 10897.429688 13433.484375 10870.105469 13649.867188 10869.359375 13773.644531 L 10867.722656 13999.078125 L 10296.128906 13958.316406 C 9981.949219 13936.144531 9600.292969 13945.730469 9447.71875 13979.707031 L 9170.5 14041.988281 L 9581.972656 14197.136719 C 9807.769531 14282.667969 10189.835938 14370.511719 10430.175781 14393.074219 C 11038.300781 14449.929688 11028.847656 14601.285156 10400.074219 14869.546875 C 9876.519531 15093.011719 9957.648438 15167.886719 10553.691406 15012.046875 C 10845.074219 14936.1875 10952.164062 14930.59375 10970.671875 14990.796875 C 11167.679688 15628.203125 11174.363281 15562.464844 10888.660156 15824.347656 C 10403.960938 16268.867188 8836.398438 16611.851562 6987.964844 16677.035156 L 5844.277344 16717.683594 L 5517.15625 16033.144531 C 5337.414062 15656.953125 5049.5 14913.945312 4878.023438 14382.410156 C 4435.375 13012.675781 4058.011719 12493.238281 3314.28125 12230.710938 C 2900.03125 12084.804688 2304.511719 12033.832031 1967.742188 12116.035156 C 1699.347656 12181.53125 1704.941406 12183.835938 2156.65625 12190.84375 C 2993.738281 12203.347656 3650.773438 12572.152344 3998.398438 13223.789062 C 4134.5625 13478.847656 4335.464844 14095.839844 4524.90625 14839.152344 C 4693.078125 15500.457031 4882.167969 16161.8125 4944.398438 16308.808594 C 5007.050781 16455.832031 5048.421875 16585.640625 5036.613281 16597.542969 C 4998.75 16634.828125 3409.679688 16433.695312 3098.40625 16351.644531 C 2458.570312 16183.929688 1038 15340.367188 346.398438 14718.28125 C -184.9375 14240.199219 22.707031 14558.898438 629.542969 15152.625 C 1212.914062 15723.089844 2086.535156 16368.507812 2594.609375 16604.214844 C 2807.265625 16702.847656 3416.488281 16848.046875 4150.050781 16974.640625 C 5088.714844 17136.613281 5369.726562 17209.832031 5420.09375 17304.648438 C 5532.734375 17514.957031 6108.289062 18022.726562 6469.921875 18230.664062 L 6815.929688 18429.84375 L 6143.988281 18430.421875 C 5394.652344 18430.898438 4056.0625 18273.589844 3422.074219 18110.363281 C 2954.816406 17989.828125 2108.691406 17615.722656 1789.890625 17388.644531 C 1400.246094 17111.269531 1513.074219 17296.253906 1916.078125 17595.484375 C 2712.824219 18187.34375 3646.539062 18537.777344 4895.914062 18713.804688 C 5249.136719 18763.695312 5498.792969 18826.785156 5450.085938 18853.480469 C 5401.449219 18880.34375 4956.292969 19005.03125 4461.101562 19129.890625 C 3642.789062 19336.414062 3462.636719 19357.363281 2487.253906 19361.386719 C 1896.652344 19363.984375 1195.542969 19344.011719 928.773438 19316.539062 L 444.078125 19267.070312 L 998.042969 19407.617188 C 1341.234375 19494.234375 1895.316406 19562.058594 2452.546875 19585.035156 C 3249.46875 19617.890625 3455.128906 19601.296875 4242.476562 19437.621094 C 4732.175781 19336.148438 5440.308594 19161.296875 5816.109375 19049.734375 C 6191.980469 18938.085938 6574.832031 18846.429688 6666.648438 18846.429688 C 6758.605469 18846.429688 6965.761719 18799.785156 7127.835938 18742.671875 C 7317.265625 18676.035156 7679.519531 18638.875 8144.582031 18638.875 C 8541.824219 18638.875 9013.265625 18604.210938 9192.15625 18562.121094 C 9686.28125 18445.492188 10725.375 17924.449219 11468.257812 17420.628906 C 11957.722656 17088.570312 12154.46875 16989.71875 12210.976562 17046.289062 C 12291.570312 17127.75 12164.398438 17255.722656 11453.351562 17808.480469 C 10785.925781 18327.273438 9574.332031 18743.664062 7837.726562 19051.867188 C 6352.988281 19315.429688 6091.234375 19395.851562 5084.339844 19897.855469 C 4004.304688 20436.589844 3244.507812 20946.375 2614.578125 21554.777344 L 2106.425781 22045.421875 L 2590.886719 21631.695312 C 3186.953125 21122.640625 3629.660156 20839.386719 4546.65625 20379.351562 C 5525.441406 19888.34375 6098.273438 19711.515625 7265.949219 19539.496094 C 8870.832031 19303.414062 10050.472656 18940.890625 10911.441406 18419.652344 C 11121.21875 18292.894531 11553.21875 17964.226562 11871.398438 17690.425781 C 12350.507812 17277.898438 12464.011719 17208.96875 12530.9375 17289.617188 C 12594.582031 17365.949219 12581.402344 17430.339844 12471.699219 17584.601562 C 12024.351562 18212.480469 11286.15625 18646.671875 9551.648438 19300.046875 C 7652.851562 20015.8125 7094.1875 20357.371094 5821.4375 21582.417969 C 4955.878906 22414.90625 4563.113281 22947.933594 4207.789062 23772.871094 C 3947.609375 24375.539062 3225.453125 26603.203125 3274.242188 26651.761719 C 3287.304688 26665.066406 3400.761719 26387.164062 3525.886719 26033.808594 C 4518.234375 23232.394531 4969.054688 22484.476562 6379.222656 21301.597656 C 7101.175781 20696.007812 7480.875 20493.097656 8928.578125 19939.84375 C 10966.203125 19161.210938 11700.390625 18737.257812 12432.429688 17918.789062 L 12826.546875 17478.128906 L 13214.988281 17653.136719 C 13428.503906 17749.546875 13612.914062 17835.480469 13623.851562 17844.328125 C 13635.316406 17852.96875 13536.542969 18058.921875 13404.246094 18301.761719 C 13168.34375 18735.152344 12828.832031 19722.621094 12893.597656 19787.246094 C 12998.957031 19892.515625 13845.878906 18281.015625 13845.878906 17974.945312 C 13845.878906 17909.632812 13884.378906 17877.042969 13937.582031 17897.425781 C 13988.34375 17916.726562 14239.472656 17955.101562 14496.558594 17982.429688 L 14963.113281 18032.585938 L 14914.816406 18484.050781 C 14853.910156 19053.246094 14961.691406 19016.773438 15125.464844 18412.707031 L 15243.421875 17977.140625 L 15704.445312 17867.996094 C 15958.242188 17808.203125 16220.675781 17735.648438 16287.199219 17706.476562 C 16395.609375 17659.875 16408.960938 17704.609375 16415.527344 18129.210938 C 16419.054688 18390.53125 16445.097656 18682.441406 16472.804688 18777.078125 C 16516.820312 18928.15625 16533.609375 18903.476562 16604.351562 18583.699219 C 16648.867188 18381.601562 16685.496094 18064.941406 16685.496094 17879.378906 C 16685.496094 17544.71875 16687.808594 17541.402344 17130.574219 17225.09375 C 17375.703125 17050.460938 17593.621094 16907.351562 17615.679688 16907.351562 C 17636.964844 16907.351562 17655.027344 17017.648438 17655.027344 17152.589844 C 17655.027344 17459.664062 17827.464844 18304.398438 17997.382812 18829.265625 L 18126.039062 19227.65625 L 18132.933594 18357.140625 C 18136.492188 17878.484375 18106.871094 17306.453125 18065.761719 17086.40625 C 17958.386719 16503.550781 18027.953125 16403.589844 18278.398438 16781.640625 C 18391 16951.683594 18550.375 17150.855469 18632.429688 17224.296875 C 18781.398438 17357.335938 18781.554688 17357.335938 18730.171875 17184.4375 C 18701.820312 17089.160156 18604.082031 16860.570312 18513 16676.703125 C 18323.441406 16292.695312 18321.46875 16283.894531 18424.253906 16283.894531 C 18466.453125 16283.894531 18599.082031 16201.550781 18718.785156 16100.742188 L 18936.5 15917.25 L 18980.105469 16118.050781 C 19004.136719 16228.394531 19029.589844 16443.40625 19036.527344 16595.585938 C 19047.078125 16829.070312 19058.703125 16848.742188 19110.242188 16721.582031 C 19143.539062 16638.242188 19192.125 16389.195312 19218.425781 16167.632812 C 19256.476562 15842.296875 19302.820312 15734.492188 19457 15609.964844 L 19648.492188 15454.980469 L 19766.363281 15815.859375 C 19892.28125 16201.152344 20438.5 17041.578125 20480.796875 16914.964844 C 20531.804688 16761.738281 20143.671875 15845.03125 19855.121094 15437.613281 C 19783.863281 15337.074219 19807.519531 15280.605469 20008.738281 15073.203125 C 20139.628906 14938.054688 20276.398438 14837.503906 20312.792969 14849.585938 C 20349.171875 14861.609375 20427.476562 15025.765625 20487.773438 15214.113281 L 20597.015625 15556.683594 L 20632.21875 15037.363281 C 20654.851562 14703.820312 20697.015625 14518.007812 20750.113281 14518.007812 C 20794.820312 14518.007812 20958.496094 14767.0625 21113.527344 15072.050781 C 21382.363281 15601.195312 21713.367188 16058.140625 21779.835938 15991.835938 C 21851.355469 15920.363281 21500.722656 15042.96875 21257.308594 14685.316406 L 20994.453125 14298.746094 L 21212.082031 14125.453125 L 21429.847656 13952.695312 L 21696.726562 14494.757812 C 21843.523438 14793.230469 21986.761719 15037.363281 22015.199219 15037.363281 C 22071.269531 15037.363281 21986.304688 14400.949219 21872.996094 13976.019531 C 21820.960938 13780.359375 21824.96875 13684.207031 21886.851562 13609.222656 C 21958.980469 13522.261719 22004.378906 13539.917969 22202.742188 13731.957031 C 22462.171875 13983.394531 22499.875 13934.507812 22300.085938 13606.492188 L 22166.707031 13387.34375 L 22440.203125 13197.65625 C 22590.4375 13093.589844 22724.554688 13020.609375 22738.285156 13035.875 C 22751.761719 13050.996094 22812.214844 13156.789062 22873.21875 13271.195312 C 22933.839844 13385.503906 23049.367188 13556.898438 23129.726562 13652.09375 L 23276.121094 13825.316406 L 23231.394531 13622.320312 C 23207.238281 13510.34375 23126.386719 13294.324219 23052.992188 13141.582031 C 22979.257812 12989.261719 22918.777344 12859.078125 22918.777344 12852.722656 C 22918.777344 12846.460938 23102.183594 12697.25 23326.21875 12521.195312 L 23734.015625 12201.144531 L 23988.039062 12635.535156 C 24127.402344 12874.601562 24319.480469 13161.976562 24414.613281 13274.699219 L 24587.398438 13478.847656 L 24541.144531 13167.335938 C 24515.585938 12995.972656 24420.789062 12649.613281 24330.285156 12396.867188 C 24239.71875 12144.71875 24165.164062 11924.027344 24165.164062 11906.742188 C 24165.164062 11862.335938 24793.65625 11415.589844 24813.621094 11445.617188 C 24822.921875 11459.46875 24934.910156 11681.003906 25062.476562 11938.140625 C 25380.328125 12578.789062 25481.101562 12651.40625 25399.660156 12181.242188 C 25365.0625 11980.800781 25287.953125 11666.742188 25228.589844 11483.125 C 25127.300781 11169.289062 25128.625 11143.734375 25249.21875 11048.917969 C 25536.558594 10824.058594 25608.695312 10805.878906 25653.691406 10948.0625 C 25732.851562 11197.371094 26797.566406 12046.882812 26797.566406 11860.503906 C 26797.566406 11727.414062 26335.722656 11188.953125 26020.671875 10955.027344 L 25699.769531 10716.714844 L 26055.890625 10450.839844 L 26412 10185.398438 L 26580.933594 10516.171875 C 26774.808594 10895.96875 26848.597656 10813 26731.929688 10347.785156 C 26687.6875 10173.011719 26676.539062 10005.1875 26707.453125 9974.789062 C 26737.675781 9944.15625 26964.175781 9763.59375 27210.636719 9572.957031 L 27658.425781 9226.09375 L 27834.164062 9522.402344 C 27930.277344 9684.964844 28081.902344 9909.4375 28170.488281 10021.085938 L 28330.941406 10223.769531 L 28290.640625 9985.671875 C 28268.414062 9854.746094 28176.445312 9587.296875 28087.125 9390.828125 L 27923.554688 9034.339844 L 28420.359375 8654.917969 L 28917.1875 8275.070312 L 29141.746094 8600.789062 C 29395.6875 8968.828125 29619.011719 9191.289062 29676.960938 9133.5 C 29725.839844 9084.625 29467.726562 8564.800781 29251.582031 8276.148438 L 29089.738281 8059.925781 L 29256.757812 7903.222656 C 29406.636719 7762.269531 29465.480469 7751.285156 29848.457031 7794.699219 C 30330.929688 7848.992188 30349.042969 7779.058594 29909.355469 7554.753906 C 29759.621094 7478.359375 29637.160156 7401.847656 29637.160156 7385.332031 C 29637.160156 7303.441406 29876.953125 6864.539062 29921.429688 6864.539062 C 29949.382812 6864.539062 30159.644531 6912.832031 30388.589844 6971.308594 C 30647.671875 7037.691406 31024.484375 7070.375 31381.347656 7058.109375 L 31957.273438 7037.78125 L 31499.257812 6810.632812 C 31247.296875 6685.765625 30817.046875 6529.71875 30542.949219 6464.496094 C 30068.992188 6350.78125 30046.464844 6336.5625 30082.738281 6172.230469 C 30103.683594 6076.914062 30141.144531 5850.878906 30165.867188 5669.964844 C 30207.695312 5359.472656 30222.421875 5340.589844 30425.992188 5333.917969 C 30544.402344 5330.421875 30719.265625 5304.050781 30814.445312 5275.859375 C 30978.304688 5227.289062 30972.816406 5220.359375 30710.625 5144.789062 C 30558.019531 5100.660156 30377.472656 5064.636719 30309.042969 5064.285156 C 30204.460938 5064.097656 30192.078125 5025.253906 30230.933594 4818.597656 C 30264.519531 4639.015625 30246.328125 4539.941406 30162.546875 4447.09375 C 30099.800781 4377.804688 30020.273438 4224.007812 29986.523438 4104.964844 C 29925.800781 3894.253906 29931.621094 3886.988281 30211.941406 3811.730469 C 30534.34375 3724.769531 31192.398438 3403.449219 31403.453125 3229.320312 C 31533.894531 3121.816406 31512.046875 3117.132812 31022.226562 3149.238281 C 30727.882812 3168.007812 30329.4375 3249.417969 30102.601562 3337.113281 C 29717.570312 3485.898438 29698.53125 3486.777344 29610.070312 3365.511719 C 29527.003906 3252.3125 29556.195312 3214.234375 29906.445312 2980.085938 C 30120.070312 2837.371094 30370.894531 2639.671875 30463.519531 2541.078125 L 30632.136719 2361.339844 L 30249.5 2493.15625 C 30039.402344 2565.445312 29760.753906 2676.636719 29630.941406 2740.828125 C 29402.777344 2852.835938 29405.84375 2846.351562 29715.125 2557.8125 C 30188.390625 2116.433594 30826.625 1254.46875 30680.152344 1254.46875 C 30556.515625 1254.46875 29709.683594 2095.765625 29486.113281 2440.183594 C 29366 2626.316406 29246.1875 2778.378906 29220.742188 2778.378906 C 29194.859375 2778.378906 29117.59375 2716.457031 29048.738281 2640.390625 C 28927.648438 2506.660156 28929.941406 2498.210938 29124.621094 2351.128906 C 29428.832031 2121.628906 30070.316406 1457.125 30028.246094 1415.046875 C 29981.078125 1367.550781 29636.734375 1604.625 29145.058594 2023.605469 L 28756.773438 2354.546875 L 28487.03125 2175.785156 C 28338.472656 2077.5625 28190.441406 1972.949219 28157.613281 1943.839844 C 28124.714844 1914.425781 28199.964844 1742.347656 28324.050781 1561.820312 C 28636.027344 1108.652344 28961.453125 215.828125 28814.621094 215.828125 C 28707.746094 215.828125 28121.367188 1130.777344 28002.042969 1483.8125 C 27914.050781 1745.203125 27865.179688 1807.292969 27776.570312 1770.417969 C 27714.199219 1744.667969 27608.503906 1708.070312 27541.878906 1688.691406 C 27438.742188 1659.429688 27420.761719 1566.644531 27420.761719 1069.441406 C 27420.761719 372.941406 27344.839844 369.296875 27136.113281 1055.953125 C 27004.007812 1490.257812 26972 1538.929688 26840.824219 1504.058594 C 26759.734375 1482.015625 26631.222656 1464.09375 26555.066406 1463.609375 C 26425.851562 1462.699219 26418.054688 1423.449219 26438.335938 891.027344 C 26458.820312 347.421875 26383.027344 -93.046875 26293.609375 51.539062 M 25135.078125 2125 L 24892.679688 2223.054688 L 25117.980469 2183.597656 C 25257.484375 2159.117188 25342.992188 2172.226562 25342.992188 2218.730469 C 25342.992188 2260.003906 25367.738281 2293.453125 25397.222656 2293.453125 C 25427.390625 2293.453125 25451.804688 2231.132812 25451.804688 2154.84375 C 25451.804688 1995.136719 25455.394531 1995.34375 25135.078125 2125 M 27299.097656 2241.472656 C 27314.839844 2289.144531 27403.222656 2338.402344 27495.191406 2350.96875 C 27659.898438 2373.179688 27660.28125 2371.355469 27524.542969 2266.386719 C 27355.484375 2135.828125 27260.984375 2125.351562 27299.097656 2241.472656 M 26507.90625 2479.746094 C 26429.964844 2665.609375 26425.066406 2667.328125 26399.164062 2518.617188 C 26364.535156 2319.292969 26102.613281 2308.460938 25982.683594 2501.289062 C 25907.765625 2620.601562 25913.121094 2640.042969 26021.113281 2640.042969 C 26090.085938 2640.042969 26183.789062 2602.300781 26229.472656 2556.867188 C 26293.863281 2492.140625 26312.734375 2507.738281 26312.734375 2627.320312 C 26312.734375 2807.949219 25964.503906 3014.726562 25914.246094 2863.941406 C 25873.574219 2742.390625 25689.554688 2757.296875 25689.554688 2881.964844 C 25689.554688 2939.460938 25720.445312 2986.164062 25758.460938 2986.164062 C 25796.566406 2986.164062 25827.832031 3032.960938 25827.832031 3090.246094 C 25827.832031 3146.972656 25800.652344 3193.765625 25766.851562 3193.765625 C 25733.523438 3193.765625 25667.375 3146.972656 25620.078125 3090.246094 C 25510.9375 2959.238281 25221.960938 2957.878906 24996.777344 3088.023438 C 24901.496094 3142.777344 24757.957031 3217.910156 24677.480469 3254.71875 C 24594.351562 3292.539062 24512.949219 3413.5 24488.59375 3535.015625 C 24461.980469 3668.515625 24403.910156 3747.875 24332.820312 3747.875 C 24249.25 3747.875 24230.4375 3706.089844 24259.550781 3588.730469 C 24295.609375 3445.753906 24274.558594 3428.089844 24059.179688 3422.316406 C 23927.109375 3418.480469 23801.605469 3443.425781 23780.59375 3477.761719 C 23759.109375 3512.027344 23665.628906 3540.164062 23572.578125 3540.164062 C 23476.480469 3540.164062 23403.730469 3580.507812 23403.730469 3634.515625 C 23403.730469 3741.328125 24173.972656 3932.292969 24297.644531 3855.964844 C 24381.628906 3803.949219 24395.515625 3886.429688 24331.355469 4054.039062 C 24284.472656 4176.558594 23972.695312 4194.027344 23490.546875 4100.492188 L 23195.785156 4043.824219 L 23195.785156 4345.980469 C 23195.785156 4512.175781 23164.839844 4647.972656 23126.386719 4647.972656 C 23088.835938 4647.972656 23057.421875 4614.574219 23057.421875 4573.46875 C 23057.421875 4420.359375 22879.839844 4562.910156 22741.289062 4826.492188 C 22602.425781 5090.011719 22277.90625 5346.035156 22192.039062 5260.136719 C 22168.554688 5236.703125 22232.210938 5128.789062 22333.617188 5019.582031 C 22509.488281 4831.035156 22511.320312 4820.441406 22376.980469 4799.832031 C 22299.808594 4788.308594 22198.949219 4733.535156 22153.351562 4678.902344 C 22038.789062 4540.273438 21949.191406 4554.394531 21949.191406 4710.433594 C 21949.191406 4782.398438 21897.160156 4861.027344 21833.839844 4885.476562 C 21746.390625 4919.25 21737.921875 4949.480469 21798.078125 5009.636719 C 21858.628906 5070.078125 21854.628906 5116.242188 21782.046875 5198.339844 C 21729.824219 5257.253906 21675.414062 5365.921875 21661.996094 5439.210938 C 21648.507812 5512.386719 21544.089844 5628.734375 21429.847656 5698.042969 C 21201.082031 5836.898438 21176.996094 5847.371094 20875.480469 5940.011719 C 20718.53125 5988.140625 20672.8125 6039.71875 20688.328125 6150.726562 C 20704.683594 6265.894531 20654.425781 6315.644531 20455.089844 6381.632812 C 20272.351562 6441.808594 20227.839844 6481.585938 20295.382812 6523.527344 C 20460.15625 6625.28125 20245.003906 6756.859375 19910.136719 6758.847656 C 19680.304688 6760.097656 19527.300781 6815.9375 19286.339844 6985.863281 C 18907.777344 7252.757812 18849.992188 7260.933594 18817.988281 7055.210938 C 18795.640625 6910.78125 18784.972656 6916 18673.054688 7124.445312 C 18606.378906 7248.359375 18519.734375 7349.429688 18480.347656 7349.429688 C 18440.835938 7349.429688 18428.261719 7380.800781 18451.734375 7418.984375 C 18479.792969 7464.714844 18541.859375 7463.371094 18634.195312 7413.457031 C 18806.609375 7321.628906 18971.246094 7376.617188 18971.246094 7526.183594 C 18971.246094 7714.980469 19141.980469 7593.621094 19179.015625 7378.519531 C 19208.34375 7210.140625 19251.597656 7172.574219 19438.792969 7154.726562 C 19667.855469 7132.375 19748.519531 7232.984375 19559.832031 7305.164062 C 19433.832031 7353.496094 19421.476562 7487.605469 19542.464844 7488.859375 C 19590.109375 7489.691406 19673.667969 7518.488281 19728.40625 7553.269531 C 19810.769531 7604.96875 19812.355469 7634.628906 19737.269531 7725.332031 C 19623.027344 7862.972656 19525.378906 7865.429688 19525.378906 7730.335938 C 19525.378906 7588.21875 19438.792969 7599.988281 19218.761719 7772.964844 C 19110.242188 7858.984375 18869.535156 7940.847656 18638.433594 7971.371094 C 18421.410156 7999.964844 18044.066406 8097.640625 17799.6875 8188.757812 C 17468.964844 8311.761719 17348.136719 8331.832031 17326.109375 8266.9375 C 17288.199219 8153.160156 17170.398438 8155.5625 17170.398438 8269.996094 C 17170.398438 8318.859375 17108.375 8480.644531 17032.394531 8628.882812 C 16904.121094 8880.679688 16902.886719 8907.554688 17009.660156 9025.628906 C 17161.550781 9193.152344 17358.511719 9131.742188 17620.265625 8834.46875 C 17756.25 8680.339844 17912.59375 8585.128906 18070.554688 8559.949219 C 18285.464844 8525.929688 18297.886719 8531.78125 18180.074219 8610.480469 C 18106.925781 8659.929688 17935.3125 8797.03125 17799.054688 8915.203125 C 17662.84375 9033.449219 17481.386719 9167.0625 17395.371094 9211.886719 C 17309.867188 9257.082031 17239.6875 9339.347656 17239.6875 9395.027344 C 17239.6875 9450.90625 17202.808594 9496.222656 17157.3125 9496.222656 C 17112.316406 9496.222656 17002.929688 9564.257812 16915.136719 9647.160156 C 16795.589844 9759.230469 16754.476562 9771.757812 16754.476562 9695.585938 C 16754.476562 9639.417969 16790.003906 9558.214844 16833.304688 9515.15625 C 16876.269531 9471.785156 16893.011719 9387.675781 16870.117188 9328.007812 C 16824.039062 9208.183594 16510.824219 9178.957031 16442.910156 9288.589844 C 16419.515625 9326.789062 16277.242188 9357.992188 16127.4375 9357.992188 C 15923.480469 9357.992188 15854.105469 9329.980469 15854.105469 9247.65625 C 15854.105469 9186.773438 15916.394531 9120.894531 15992.800781 9100.808594 C 16149.167969 9060.277344 16181.773438 8942.441406 16036.761719 8942.441406 C 15936.769531 8942.441406 15577.195312 9270.585938 15577.195312 9362.027344 C 15577.195312 9391.902344 15484.421875 9436.660156 15370.25 9461.683594 C 15145.046875 9511.296875 15017.867188 9634.988281 15192.367188 9634.988281 C 15343.230469 9634.988281 15329.339844 9674.953125 15092.558594 9923.109375 C 14871.171875 10154.503906 14814.714844 10349.867188 14988.503906 10283.621094 C 15045.796875 10261.289062 15092.558594 10200.867188 15092.558594 10148.871094 C 15092.558594 10046.269531 15762.609375 9565.683594 15905.324219 9565.683594 C 15953.582031 9565.683594 15992.800781 9612.609375 15992.800781 9669.644531 C 15992.800781 9726.929688 15934.171875 9773.53125 15862.464844 9773.53125 C 15790.285156 9773.53125 15680.496094 9851.445312 15618.21875 9946.726562 C 15555.652344 10041.957031 15453.460938 10119.835938 15391.074219 10119.835938 C 15328.210938 10119.835938 15297.929688 10141.007812 15323.226562 10166.023438 C 15348.953125 10191.789062 15447.921875 10170.960938 15542.6875 10119.835938 C 15637.863281 10068.996094 15736.273438 10048.011719 15761.535156 10073.039062 C 15817.226562 10128.992188 15586.621094 10396.242188 15479.976562 10398.929688 C 15087.109375 10410.355469 14053.496094 11282.324219 14053.496094 11602.796875 C 14053.496094 11785.203125 13603.609375 12266.605469 13432.507812 12266.980469 C 13374.050781 12267.507812 13237.148438 12314.0625 13128.746094 12370.972656 C 13019.839844 12427.714844 12900.417969 12455.351562 12863.742188 12432.445312 C 12770.515625 12374.660156 12460.691406 12679.824219 12460.691406 12829.503906 C 12460.691406 12896.4375 12367.039062 13006.972656 12253 13074.414062 C 12138.726562 13141.710938 12041.777344 13213.953125 12038.117188 13234.09375 C 11982.605469 13528.101562 11999.082031 13840.648438 12075.003906 13926.832031 C 12231.292969 14104.6875 12273.871094 14448.878906 12151.898438 14550.035156 C 12051.144531 14633.535156 11999.9375 14898.765625 12084.066406 14898.765625 C 12105.816406 14898.765625 12183.789062 14866.691406 12257.449219 14827.027344 C 12349.746094 14777.746094 12391.261719 14777.746094 12391.261719 14827.027344 C 12391.261719 14937.714844 12579.378906 14911.746094 12624.171875 14794.84375 C 12692.789062 14616.226562 12797.230469 14681.023438 12819.984375 14916.113281 C 12839.464844 15117.898438 12861.664062 15138.679688 13035.839844 15118.339844 C 13142.578125 15105.96875 13277.988281 15135.964844 13337.0625 15184.863281 C 13395.789062 15233.644531 13534.011719 15266.605469 13644.15625 15258.1875 C 13832.257812 15243.8125 13839.339844 15252.761719 13766.316406 15412.605469 C 13664.601562 15636.386719 13713.84375 15744.414062 14026.144531 15982.222656 C 14291.375 16184.242188 14377.546875 16198.394531 15493.800781 16224.75 C 15657.097656 16228.8125 15780.601562 16262.589844 15768.078125 16300.511719 C 15739.765625 16385.578125 15090.683594 16637.179688 15017.085938 16591.585938 C 14987.671875 16573.695312 14943.910156 16590.273438 14920.046875 16629.160156 C 14892.210938 16673.714844 15029.558594 16699.609375 15296.1875 16699.609375 C 15595.261719 16699.609375 15710.792969 16674.804688 15698.585938 16612.710938 C 15687.144531 16555.773438 15778.808594 16523.816406 15969.28125 16518.847656 C 16346.148438 16508.667969 16501.511719 16445.726562 16453.722656 16321.554688 C 16404.683594 16193.796875 16678.582031 15865.296875 16730.414062 15989.753906 C 16774.582031 16095.820312 17031.808594 16105.269531 17031.808594 16000.722656 C 17031.808594 15918.996094 17307.023438 15666.941406 17400.136719 15662.910156 C 17431.199219 15661.71875 17436.988281 15723.089844 17412.582031 15799.367188 C 17381.636719 15897.707031 17400.144531 15937.632812 17477.371094 15937.632812 C 17671.308594 15937.632812 17592.316406 16069.996094 17313.589844 16212.261719 C 16997.195312 16373.792969 16950.613281 16429.621094 17028.757812 16555.773438 C 17095.710938 16664.679688 17239.6875 16595.585938 17239.6875 16454.578125 C 17239.6875 16400.84375 17333.167969 16308.652344 17447.402344 16249.292969 C 17607.378906 16166.527344 17655.027344 16094.785156 17655.027344 15936.019531 C 17655.027344 15822.421875 17680.066406 15737.707031 17710.535156 15747.214844 C 17741.109375 15756.554688 17865.894531 15651.246094 17987.703125 15512.925781 C 18215.085938 15254.753906 18287.183594 15094.066406 18109.558594 15241.46875 C 18038.792969 15300.324219 17971.742188 15303.445312 17876.207031 15252.5 C 17802.964844 15213.027344 17722.828125 15200.546875 17698.863281 15224.726562 C 17650.027344 15273.378906 17309.0625 14977.734375 17309.0625 14886.617188 C 17309.0625 14855.277344 17386.859375 14829.605469 17481.976562 14829.605469 C 17577.019531 14829.605469 17655.027344 14860.714844 17655.027344 14898.765625 C 17655.027344 15019.503906 17855.234375 14973.554688 17928.773438 14836.339844 C 17986.277344 14728.1875 18051.425781 14710.832031 18279.273438 14741.292969 C 18554.597656 14778.644531 18567.128906 14770.203125 19096.425781 14215.566406 C 19452.800781 13841.898438 19685.886719 13652.09375 19787.453125 13652.09375 C 19949.015625 13652.09375 20155.976562 13481.632812 20284.140625 13241.617188 C 20326.464844 13162.804688 20406.691406 13098.054688 20462.417969 13098.054688 C 20518.324219 13098.054688 20564.285156 13053.589844 20564.285156 12999.25 C 20564.285156 12887.417969 20747.410156 12682.429688 20847.394531 12682.429688 C 20883.515625 12682.429688 20893.496094 12760.582031 20869.621094 12855.761719 C 20797.109375 13143.527344 20968.761719 13057.109375 21172.804688 12702.859375 C 21275.867188 12523.417969 21473.511719 12263.402344 21612.167969 12124.183594 C 21750.589844 11985.859375 21900.507812 11803.839844 21945.617188 11719.851562 C 22002.980469 11612.480469 22066.332031 11580.195312 22161.113281 11610.324219 C 22235.332031 11633.476562 22295.417969 11623.207031 22295.417969 11587.324219 C 22295.417969 11551.511719 22396.660156 11481.273438 22520.640625 11431.191406 C 22644.164062 11381.265625 22894.640625 11208.394531 23076.371094 11047.023438 C 23258.65625 10885.390625 23501.972656 10732.839844 23617.601562 10707.164062 C 23828.429688 10660.964844 23828.429688 10660.964844 23811.941406 10209.398438 C 23798.914062 9848.195312 23818.765625 9744.707031 23911.441406 9693.042969 C 24079.117188 9598.898438 24053.15625 9496.222656 23861.714844 9496.222656 C 23761.492188 9496.222656 23651.648438 9565.5 23581.910156 9671.851562 C 23450.3125 9872.65625 23293.480469 9840.429688 23403.222656 9635.226562 C 23504.152344 9447.40625 23490.128906 9412.535156 23334.402344 9461.980469 C 23156.644531 9518.234375 23157.757812 9425.28125 23336.867188 9232.625 C 23507.300781 9049.972656 23624.929688 9036.085938 23597.269531 9202.15625 C 23561.339844 9415.808594 23885.363281 9398.738281 24061.640625 9177.902344 L 24215.15625 8985.128906 L 24248.425781 9212.691406 C 24270.636719 9364.40625 24251.046875 9451.871094 24188.847656 9475.816406 C 24137.164062 9495.433594 24099.90625 9593.9375 24105.695312 9694.78125 C 24110.992188 9795.035156 24093.15625 9959.648438 24065.8125 10060.460938 C 23972.214844 10402.65625 24217.382812 10347.242188 24457.125 9971.816406 C 24521.359375 9871.660156 24714.671875 9721.101562 24886.453125 9638.273438 C 25068.882812 9549.804688 25260.902344 9386.976562 25347.335938 9247.398438 C 25428.367188 9115.542969 25597.074219 8965.203125 25721.480469 8913.445312 C 25971.683594 8808.664062 26192.609375 8388.210938 25997.277344 8388.210938 C 25868.085938 8388.210938 25867.257812 8152.824219 25996.242188 8046.175781 C 26075.496094 7980.359375 26110.742188 7992.394531 26171.578125 8106.792969 C 26262.015625 8275.453125 26400.785156 8290.109375 26545.183594 8146.042969 C 26602.175781 8088.910156 26680.003906 8042.074219 26717.875 8042.074219 C 26830.28125 8042.074219 27213.246094 7691.183594 27213.246094 7588.21875 C 27213.246094 7535.847656 27275.464844 7459.414062 27351.367188 7418.816406 C 27471.535156 7354.597656 27489.96875 7366.226562 27489.96875 7506.140625 C 27489.96875 7738.574219 27337.054688 8029.328125 27195.53125 8066.8125 C 27115.984375 8087.75 27088.972656 8137.613281 27117.4375 8212.214844 C 27176.632812 8366.890625 27370.746094 8318.671875 27454.535156 8128.066406 C 27494.242188 8037.796875 27584.332031 7972.71875 27668.976562 7972.71875 C 27803.847656 7972.71875 28044.089844 7780.832031 28044.089844 7672.8125 C 28044.089844 7576.007812 27852.703125 7632 27732.363281 7765.179688 C 27602.078125 7908.941406 27489.96875 7945.804688 27489.96875 7844.871094 C 27489.96875 7812.71875 27601.179688 7671.65625 27736.847656 7531.988281 C 28024.265625 7236.363281 28049.164062 6953.378906 27784.339844 6990.109375 C 27566.21875 7020.5 27578.257812 6795.914062 27810.472656 6520.96875 C 28021.402344 6269.761719 28157.359375 6278.628906 28125.640625 6541.746094 C 28095.125 6793.207031 28253.859375 6781.816406 28448.851562 6518.375 C 28533.589844 6403.984375 28648.066406 6310.488281 28704.246094 6310.488281 C 28760.042969 6310.488281 28806.089844 6281.148438 28806.089844 6245.195312 C 28806.089844 6135.222656 28659.617188 6082.925781 28578.21875 6164.511719 C 28430.820312 6311.679688 28367.378906 6240.148438 28507.9375 6085.457031 C 28585.789062 5999.679688 28670.734375 5835.941406 28696.648438 5722.035156 C 28853.910156 5019.84375 29001.140625 4587.847656 29141.6875 4418.921875 C 29216.28125 4328.703125 29206.046875 4298.664062 29079.953125 4230.996094 C 28997.304688 4187.125 28903.933594 4176.875 28872.351562 4209.164062 C 28819.996094 4262.582031 28759.582031 4636.835938 28735.433594 5064.097656 L 28725.566406 5237.066406 L 28641.167969 5046.53125 C 28584.402344 4918.917969 28533.617188 4879.082031 28487.03125 4925.867188 C 28370.613281 5042.28125 28094.121094 4733.535156 28142.804688 4541.132812 C 28164.839844 4452.386719 28151.941406 4360.515625 28113.742188 4336.777344 C 27999.226562 4265.757812 28035.003906 4163.648438 28174.128906 4163.648438 C 28245.636719 4163.648438 28342.167969 4209.164062 28388.433594 4264.902344 C 28460.628906 4351.894531 28496.824219 4338.011719 28639.796875 4168.027344 C 28842.289062 3926.925781 28939.417969 3540.226562 28797.285156 3539.921875 C 28744.761719 3539.550781 28629.253906 3432.867188 28540.960938 3302.726562 C 28358.65625 3035 27863.003906 2792.972656 27743.101562 2913.441406 C 27692.003906 2964.414062 27695.058594 3011.148438 27753.1875 3069.15625 C 27865.863281 3181.660156 27857.796875 3263.113281 27734.296875 3263.113281 C 27678.070312 3263.113281 27585.460938 3173.460938 27529.015625 3063.695312 C 27400.871094 2815.882812 27264.335938 2759.140625 27098.40625 2884.652344 C 27028.089844 2938.335938 26905.332031 2982.363281 26825.414062 2983.976562 C 26745.511719 2985.117188 26581.773438 3035.5 26461.019531 3095.527344 C 26136.644531 3257.039062 26051.75 3182.207031 26293.609375 2948.132812 C 26588.917969 2661.96875 26753.328125 2386.804688 26662.355469 2330.265625 C 26622.378906 2305.441406 26552.820312 2372.945312 26507.90625 2479.746094 M 24764.914062 2414.414062 C 24706.921875 2508.585938 24885.554688 2813 24998.542969 2813 C 25065.738281 2813 25100.304688 2741.804688 25100.304688 2605.46875 C 25100.304688 2445.332031 25066.484375 2392.546875 24951.453125 2376.121094 C 24869.117188 2364.4375 24785.3125 2381.824219 24764.914062 2414.414062 M 27936.25 2537.945312 C 28009.910156 2594.3125 28117.285156 2640.042969 28174.523438 2640.042969 C 28252.757812 2640.042969 28245.265625 2615.144531 28143.785156 2537.945312 C 28069.847656 2482.285156 27962.589844 2436.550781 27905.320312 2436.550781 C 27827.097656 2436.550781 27834.570312 2461.539062 27936.25 2537.945312 M 24234.511719 2709.027344 C 24172.539062 2749.476562 24163.75 2776.523438 24213.414062 2777.308594 C 24258.695312 2777.675781 24315.0625 2747.207031 24338.703125 2709.027344 C 24391.984375 2623.074219 24367.664062 2623.074219 24234.511719 2709.027344 M 25290.847656 3342.289062 C 25153.527344 3480.9375 25188.289062 3526.808594 25424.734375 3515.566406 C 25603.722656 3507.597656 25652.980469 3536.753906 25685.875 3670.566406 C 25721.976562 3817.089844 25736.296875 3823.34375 25817.152344 3726.117188 C 25867.152344 3665.953125 26045.9375 3564.296875 26214.1875 3499.890625 C 26382.429688 3435.535156 26520.25 3352.425781 26520.25 3315.398438 C 26520.25 3276.804688 26469.28125 3271.601562 26398.957031 3303.617188 C 26245.855469 3373.277344 25932.007812 3374.777344 25620.078125 3307.464844 C 25455.394531 3271.601562 25349.730469 3282.941406 25290.847656 3342.289062 M 28113.429688 3332.472656 C 28113.429688 3370.363281 28160.144531 3401.4375 28217.222656 3401.4375 C 28274.4375 3401.4375 28321.230469 3370.363281 28321.230469 3332.472656 C 28321.230469 3294.539062 28274.4375 3263.113281 28217.222656 3263.113281 C 28160.144531 3263.113281 28113.429688 3294.539062 28113.429688 3332.472656 M 21117.972656 3551.828125 C 21117.972656 3651.042969 21182.507812 3806.199219 21261.613281 3896.023438 L 21405.066406 4059.472656 L 21361.007812 3857.425781 C 21337.28125 3746.238281 21272.234375 3591.148438 21217.886719 3512.964844 C 21120.105469 3373.707031 21117.972656 3374.371094 21117.972656 3551.828125 M 27005.132812 3472.804688 C 27005.132812 3511.601562 27090.757812 3575.988281 27195.914062 3615.523438 C 27300.46875 3655.308594 27448.46875 3744.441406 27524.542969 3814.015625 C 27714.46875 3986.304688 27975.175781 4061.1875 27974.285156 3943.058594 C 27973.613281 3839.84375 27622.863281 3585.414062 27329.53125 3474.980469 C 27085.3125 3382.796875 27005.132812 3382.574219 27005.132812 3472.804688 M 26222.695312 3653.246094 C 26196.019531 3679.890625 26173.980469 3748.921875 26173.980469 3807.03125 C 26173.980469 3864.753906 26106.25 3984.257812 26023.335938 4072.5625 C 25894.074219 4210.199219 25889.609375 4232.65625 25990.421875 4232.65625 C 26054.9375 4232.65625 26142.832031 4155.472656 26186.191406 4061.179688 C 26229.246094 3966.480469 26323.734375 3870.242188 26396.015625 3847.511719 C 26468.46875 3824.210938 26515.851562 3769.28125 26501.179688 3724.769531 C 26469.542969 3629.386719 26292.078125 3583.867188 26222.695312 3653.246094 M 31212.277344 3961.746094 C 30929.300781 4028.5625 30260.253906 4347.167969 30260.253906 4416.238281 C 30260.253906 4499.957031 30855.558594 4360.515625 31246.289062 4185.332031 C 31808.019531 3933.367188 31791.382812 3825.273438 31212.277344 3961.746094 M 22953.542969 4094.132812 C 22929.871094 4132.25 22943.746094 4163.648438 22984.046875 4163.648438 C 23024.476562 4163.648438 23057.421875 4132.25 23057.421875 4094.132812 C 23057.421875 4055.945312 23043.652344 4024.902344 23027.011719 4024.902344 C 23009.960938 4024.902344 22977.03125 4055.945312 22953.542969 4094.132812 M 24996.777344 4371.378906 C 24996.777344 4497.648438 25025.253906 4569.304688 25065.738281 4544.558594 C 25104.179688 4520.695312 25135.078125 4442.679688 25135.078125 4371.378906 C 25135.078125 4299.5 25104.179688 4221.734375 25065.738281 4198.082031 C 25025.253906 4173.285156 24996.777344 4244.878906 24996.777344 4371.378906 M 24373.296875 4302.042969 C 24373.296875 4340.265625 24427.875 4371.621094 24494.445312 4372.078125 C 24561.191406 4372.738281 24693.695312 4390.515625 24789.09375 4411.929688 C 24955.945312 4449.285156 24957.222656 4446.921875 24827.546875 4341.730469 C 24678.09375 4220.660156 24373.296875 4194.027344 24373.296875 4302.042969 M 27143.710938 4717.527344 C 27143.710938 4755.589844 27245.003906 4784.769531 27368.671875 4782.105469 C 27557.410156 4777.957031 27571.378906 4767.4375 27455.4375 4717.527344 C 27264.039062 4635.550781 27143.710938 4635.550781 27143.710938 4717.527344 M 23844.359375 4821.542969 C 23818.175781 4889.757812 23710.117188 4925.445312 23529.25 4925.445312 C 23204.050781 4925.445312 23190.976562 5085.046875 23512.910156 5121.523438 C 23624.027344 5134.4375 23768.171875 5192.632812 23833.3125 5250.5625 C 23898.289062 5308.816406 24046.929688 5364.191406 24163.75 5373.074219 C 24280.320312 5382.1875 24396.441406 5410.160156 24420.789062 5434.832031 C 24506.464844 5520.472656 24581.167969 5478.601562 24581.167969 5345.125 C 24581.167969 5238.886719 24515.351562 5201.203125 24265.636719 5163.765625 C 23961.339844 5117.941406 23952.027344 5109.242188 23994.113281 4917 C 24040.253906 4706.980469 23918.035156 4628.839844 23844.359375 4821.542969 M 26122.421875 4879.84375 C 25999.320312 5150.128906 26122.8125 5220.761719 26331.628906 4999.261719 C 26487.53125 4834.320312 26500.816406 4794.074219 26410.023438 4759.339844 C 26236.546875 4693.09375 26201.027344 4707.71875 26122.421875 4879.84375 M 25308.230469 4856.238281 C 25284.707031 4894.203125 25329.589844 4925.445312 25408.273438 4925.445312 C 25486.480469 4925.445312 25550.855469 4894.203125 25550.855469 4856.238281 C 25550.855469 4818 25505.613281 4786.871094 25451.070312 4786.871094 C 25395.804688 4786.871094 25331.847656 4818 25308.230469 4856.238281 M 24927.378906 4925.445312 C 24927.378906 4963.65625 24958.566406 4994.613281 24996.777344 4994.613281 C 25034.804688 4994.613281 25065.738281 4963.65625 25065.738281 4925.445312 C 25065.738281 4887.488281 25034.804688 4856.238281 24996.777344 4856.238281 C 24958.566406 4856.238281 24927.378906 4887.488281 24927.378906 4925.445312 M 18278.398438 4998.972656 C 18278.398438 5090.488281 18954.890625 5756.546875 19047.539062 5756.546875 C 19157.378906 5756.546875 18983.324219 5491.371094 18680.394531 5197.242188 C 18397.367188 4922.59375 18278.398438 4863.992188 18278.398438 4998.972656 M 21440.070312 5096.265625 C 21418.765625 5152.359375 21430.855469 5216.625 21467.648438 5238.886719 C 21503.78125 5261.425781 21533.476562 5215.699219 21533.476562 5137.183594 C 21533.476562 4970.003906 21495.121094 4953.070312 21440.070312 5096.265625 M 29170.144531 5219.695312 C 29132.121094 5267.671875 29084.332031 5384.230469 29063.09375 5479.421875 C 29042.101562 5574.84375 29004.304688 5718.53125 28979.328125 5798.867188 C 28947.734375 5898.894531 28967.734375 5958.484375 29042.90625 5986.96875 C 29128.605469 6020.023438 29152.867188 5980.667969 29154.488281 5806.394531 C 29155.734375 5683.414062 29202.429688 5522.941406 29258.460938 5449.015625 C 29431.890625 5219.636719 29346.152344 4996.613281 29170.144531 5219.695312 M 21048.828125 5275.859375 C 21048.828125 5316.171875 21080.238281 5329.523438 21117.972656 5306.035156 C 21156.171875 5282.9375 21187.460938 5249.578125 21187.460938 5232.984375 C 21187.460938 5216.269531 21156.171875 5202.367188 21117.972656 5202.367188 C 21080.238281 5202.367188 21048.828125 5235.257812 21048.828125 5275.859375 M 22272.292969 5412.78125 C 22133.023438 5487.433594 21960.46875 5548.652344 21888.644531 5548.652344 C 21816.808594 5548.652344 21719.628906 5595.660156 21672.25 5652.535156 C 21599.585938 5740.042969 21611.800781 5755.589844 21750.398438 5751.796875 C 21840.742188 5749 21976.929688 5722.035156 22053.121094 5691.421875 C 22129.140625 5661.242188 22257.761719 5661.242188 22338.746094 5691.421875 C 22506.097656 5753.863281 22641.859375 5654.511719 22641.859375 5469.769531 C 22641.859375 5280.925781 22546.066406 5266.023438 22272.292969 5412.78125 M 23018.683594 5414.796875 C 22886.382812 5560.933594 22886.425781 5561.082031 23093.027344 5537.492188 C 23214.257812 5523.746094 23299.699219 5473.492188 23299.699219 5415.707031 C 23299.699219 5257.253906 23161.738281 5257.027344 23018.683594 5414.796875 M 28301.667969 5433.136719 C 28224.496094 5629.214844 28237.242188 5729.515625 28327.597656 5638.988281 C 28369.160156 5597.664062 28391.570312 5505.597656 28377.601562 5434.832031 C 28352.652344 5311.0625 28350.019531 5311.0625 28301.667969 5433.136719 M 25868.933594 5521.925781 C 25834.105469 5612.980469 25765.171875 5624.820312 25497.761719 5585.796875 C 25180.855469 5539.628906 25173.851562 5542.316406 25293.640625 5664.523438 C 25379.246094 5752.4375 25511.640625 5789.058594 25727.730469 5784.597656 C 26007.304688 5778.222656 26042.507812 5795.570312 26080.730469 5957.59375 C 26104.421875 6056.414062 26171.578125 6192.660156 26230.355469 6260.144531 C 26312.070312 6354.558594 26318.226562 6402.226562 26255.71875 6464.582031 C 26120.996094 6599.214844 26162.875 6648.121094 26364.238281 6591.1875 C 26479.515625 6558.695312 26544.265625 6499.097656 26527.257812 6441.386719 C 26511.847656 6388.226562 26485.5625 6261.78125 26468.441406 6160.257812 C 26451.0625 6058.484375 26362.265625 5904.890625 26270.878906 5819.332031 C 26179.609375 5733.367188 26104.875 5606.355469 26104.875 5536.789062 C 26104.875 5380.515625 25927.335938 5369.339844 25868.933594 5521.925781 M 20252.046875 5618 C 20228.753906 5656.246094 20242.621094 5687.320312 20282.984375 5687.320312 C 20323.179688 5687.320312 20356.246094 5656.246094 20356.246094 5618 C 20356.246094 5579.804688 20342.492188 5548.652344 20325.730469 5548.652344 C 20309.082031 5548.652344 20275.851562 5579.804688 20252.046875 5618 M 30623.898438 5839.210938 C 30424.066406 5875.839844 30260.253906 5934.34375 30260.253906 5969.5625 C 30260.253906 6060.652344 31004.460938 6048.160156 31334.0625 5951.492188 L 31610.988281 5870.070312 L 31403.453125 5821.65625 C 31133.023438 5758.394531 31058.832031 5759.789062 30623.898438 5839.210938 M 26898.425781 5968.972656 C 26873.339844 6009.386719 26869.167969 6059.214844 26889.453125 6079.234375 C 26946.304688 6136.222656 27351.367188 6030.367188 27351.367188 5958.546875 C 27351.367188 5869.6875 26953.941406 5878.46875 26898.425781 5968.972656 M 19802.214844 6033.542969 C 19718.152344 6088.015625 19728.253906 6100.75 19854.140625 6101.882812 C 19939.953125 6102.136719 20009.714844 6071.691406 20009.714844 6033.542969 C 20009.714844 5946.800781 19936.535156 5946.800781 19802.214844 6033.542969 M 21785.246094 6099.640625 C 21631.273438 6199.527344 21544.175781 6213.496094 21398.507812 6162.925781 C 21270.394531 6118.066406 21146.414062 6123.839844 21008.421875 6181.117188 C 20814.1875 6261.492188 20825.292969 6267.078125 21286.511719 6323.355469 C 21550.53125 6355.648438 21783.84375 6399.148438 21804.792969 6420.15625 C 21826.140625 6441.449219 21766.175781 6516.792969 21672.25 6587.925781 C 21577.949219 6658.71875 21522.984375 6738.457031 21549.609375 6765.441406 C 21618.925781 6834.730469 21949.191406 6603.6875 21949.191406 6486.332031 C 21949.191406 6415.5 22085.429688 6374.6875 22438.664062 6340.101562 C 22964.539062 6288.132812 22996.988281 6198.46875 22526.046875 6099.667969 C 22380.304688 6069.140625 22198.75 6027.789062 22122.480469 6007.621094 C 22045.945312 5987.628906 21894.8125 6028.917969 21785.246094 6099.640625 M 25429.464844 6052.773438 C 25343.625 6091.945312 25273.480469 6166.035156 25273.480469 6217.125 C 25273.480469 6345.203125 25367.773438 6334.128906 25554.1875 6182.902344 C 25737.722656 6034.347656 25656.410156 5948.863281 25429.464844 6052.773438 M 24666.894531 6114.070312 C 24562.984375 6218.265625 24554.136719 6379.835938 24652.460938 6379.835938 C 24736.316406 6379.835938 24812.820312 6209.332031 24777.335938 6102.53125 C 24760.714844 6052.960938 24724.273438 6057.023438 24666.894531 6114.070312 M 24995.398438 6138.925781 C 24947.214844 6197.210938 24926.671875 6263.792969 24950.511719 6287.535156 C 25000.722656 6337.769531 25204.507812 6182.832031 25204.507812 6094.402344 C 25204.507812 5998.824219 25091.445312 6023.207031 24995.398438 6138.925781 M 24177.402344 6217.125 C 24125.355469 6310.300781 24042.046875 6324.414062 23731.144531 6292.109375 C 23327.027344 6250.449219 23057.421875 6356.800781 23057.421875 6556.839844 C 23057.421875 6840.078125 24366.21875 6439.59375 24372.355469 6154.941406 C 24374.207031 6059.214844 24242.273438 6101.464844 24177.402344 6217.125 M 27247.226562 6310.488281 C 27224.3125 6348.570312 27251.523438 6379.835938 27308.6875 6379.835938 C 27365.78125 6379.835938 27431.867188 6348.570312 27455.4375 6310.488281 C 27479.039062 6272.25 27451.484375 6241.125 27394.339844 6241.125 C 27337.054688 6241.125 27270.984375 6272.25 27247.226562 6310.488281 M 27043.121094 6680.605469 C 26824.8125 6967.292969 26813.707031 7076.078125 27022.375 6883.46875 C 27108.191406 6804.550781 27240.375 6728.480469 27316.117188 6715.175781 C 27391.632812 6701.300781 27464.066406 6635.71875 27476.882812 6569.714844 C 27517.390625 6358.878906 27233.371094 6431.757812 27043.121094 6680.605469 M 21187.460938 6656.980469 C 21187.460938 6694.855469 21218.519531 6726.320312 21256.566406 6726.320312 C 21294.457031 6726.320312 21325.898438 6694.855469 21325.898438 6656.980469 C 21325.898438 6618.882812 21294.457031 6587.925781 21256.566406 6587.925781 C 21218.519531 6587.925781 21187.460938 6618.882812 21187.460938 6656.980469 M 29079.796875 6801.3125 C 28961.242188 7023.230469 29061.472656 7046.324219 29252.261719 6841.019531 C 29408.113281 6672.609375 29411.214844 6656.980469 29289.761719 6656.980469 C 29216.8125 6656.980469 29122.113281 6721.730469 29079.796875 6801.3125 M 20291.808594 6824.792969 C 20228.644531 6900.585938 20230.222656 6955.664062 20299.640625 7067.222656 C 20430.644531 7276.558594 20494.90625 7244.0625 20494.90625 6968.625 C 20494.90625 6711.546875 20425.609375 6662.65625 20291.808594 6824.792969 M 28403.777344 6866.230469 C 28244.152344 7037.414062 28205.308594 7243.207031 28318.929688 7313.367188 C 28390.667969 7357.796875 28616.71875 6885.945312 28578.601562 6771.449219 C 28566.007812 6733.59375 28487.226562 6776.519531 28403.777344 6866.230469 M 20908.433594 7019.949219 C 20776.121094 7143.023438 20763.625 7179.644531 20848.84375 7195.84375 C 21021.304688 7229.074219 21325.898438 7085.277344 21325.898438 6970.183594 C 21325.898438 6815.078125 21099.785156 6841.839844 20908.433594 7019.949219 M 23714.902344 7072.789062 C 23569.492188 7233.273438 23631.445312 7345.019531 23804.960938 7235.648438 C 23934.023438 7154.726562 24006.515625 6933.835938 23904.363281 6933.835938 C 23869.378906 6933.835938 23783.988281 6996.480469 23714.902344 7072.789062 M 24096.4375 6994.578125 C 24096.4375 7104.8125 24265.410156 7194.054688 24529.230469 7223.433594 C 24828.441406 7256.859375 24882.234375 7163.992188 24598.457031 7104.191406 C 24493.660156 7082.097656 24353.96875 7034.582031 24287.792969 6998.753906 C 24138.046875 6918.222656 24096.4375 6917.246094 24096.4375 6994.578125 M 25169.6875 7072.316406 C 25111.875 7166.316406 25190.160156 7280.160156 25312.285156 7280.160156 C 25367.25 7280.160156 25412.191406 7217.695312 25412.191406 7141.75 C 25412.191406 6998.578125 25245.203125 6950.570312 25169.6875 7072.316406 M 22056.152344 7246.078125 C 21896.25 7375.585938 21830.457031 7394.636719 21754.964844 7331.988281 C 21679.921875 7269.730469 21643.933594 7278.558594 21592.777344 7370.121094 C 21556.644531 7434.992188 21478.4375 7488.164062 21419.019531 7488.164062 C 21359.640625 7488.164062 21218.882812 7565.851562 21105.519531 7661.277344 C 20814.132812 7906.257812 20229.914062 7896.480469 20434.488281 7650.125 C 20544.949219 7517.320312 20376.847656 7533.8125 20108.046875 7681.910156 C 19990.136719 7746.449219 19748.898438 7876.15625 19571.21875 7969.222656 C 19246.101562 8140.027344 19160.222656 8249.769531 19351.828125 8249.769531 C 19587.546875 8249.769531 19429.195312 8370.074219 19040.214844 8486.59375 C 18811.777344 8554.984375 18624.949219 8638.695312 18624.949219 8672.863281 C 18624.949219 8768.609375 18985.628906 8741.25 19178.753906 8630.667969 C 19274.132812 8576.195312 19422.203125 8530.632812 19508.003906 8529.558594 C 19624.433594 8527.542969 19663.609375 8486.066406 19663.609375 8364.441406 C 19663.609375 8194.480469 19792.375 8049.601562 20072.070312 7904.546875 C 20211.980469 7832.292969 20247.898438 7836.285156 20300.660156 7930.164062 C 20405.980469 8118.3125 20993.042969 8080.191406 21244.128906 7868.777344 C 21357.140625 7773.761719 21495.914062 7695.886719 21552.664062 7695.886719 C 21609.207031 7695.886719 21693.8125 7649.160156 21741.285156 7591.792969 C 21789.066406 7534.796875 21915.324219 7488.164062 22022.550781 7488.164062 C 22287.5625 7488.164062 22642.644531 7345.515625 22503.234375 7295.203125 C 22446.222656 7274.570312 22368.101562 7217.695312 22330.074219 7168.925781 C 22275.386719 7098.683594 22217.484375 7115.132812 22056.152344 7246.078125 M 18116.480469 7362.253906 C 18063.898438 7563.617188 18116.90625 7610.175781 18248.746094 7477.800781 C 18340.238281 7386.410156 18341.382812 7361.1875 18255.679688 7290.109375 C 18175.804688 7223.652344 18149.40625 7237.890625 18116.480469 7362.253906 M 23698.25 7556.402344 C 23542.539062 7682.800781 23489.558594 7834.539062 23600.507812 7834.539062 C 23691.121094 7834.539062 23905.632812 7573.824219 23878.453125 7497.402344 C 23865.09375 7459.972656 23783.621094 7486.320312 23698.25 7556.402344 M 26637.984375 7600.445312 C 26284.75 7777.394531 26247.253906 7932.335938 26580.933594 7836.699219 C 26891.535156 7747.84375 27074.402344 7630.324219 27074.402344 7519.976562 C 27074.402344 7391.511719 27042.007812 7397.402344 26637.984375 7600.445312 M 22031.273438 7858.984375 C 21882.730469 7940.847656 21879.796875 7955.515625 21986.761719 8044.496094 C 22087.617188 8127.847656 22115.308594 8123.488281 22198.949219 8008.847656 C 22377.792969 7764.445312 22310.519531 7704.054688 22031.273438 7858.984375 M 25105.914062 7962.894531 C 25049.953125 8070.980469 24924.167969 8212.214844 24827.351562 8275.753906 C 24635.390625 8401.617188 24585.640625 8665.527344 24754.226562 8665.527344 C 24811.542969 8665.527344 24858.039062 8623.171875 24858.039062 8570.992188 C 24858.039062 8519.304688 24967.246094 8361.230469 25100.304688 8219.988281 C 25334.828125 7971.371094 25414.480469 7765.179688 25275.195312 7765.179688 C 25238.265625 7765.179688 25162.089844 7853.753906 25105.914062 7962.894531 M 17758.9375 7972.71875 C 17735.566406 8010.898438 17763.082031 8042.074219 17820.078125 8042.074219 C 17877.078125 8042.074219 17943.355469 8010.898438 17966.960938 7972.71875 C 17990.671875 7934.71875 17962.898438 7903.453125 17905.574219 7903.453125 C 17848.515625 7903.453125 17782.324219 7934.71875 17758.9375 7972.71875 M 21402.78125 7998.683594 C 21341.113281 8072.660156 21339.765625 8111.554688 21397.652344 8147.574219 C 21510.644531 8217.394531 21650.742188 8062.457031 21558.441406 7969.929688 C 21508.226562 7919.863281 21460.667969 7928.371094 21402.78125 7998.683594 M 22818.871094 7966.492188 C 22771.15625 8043.5 22843.777344 8249.769531 22918.777344 8249.769531 C 22949.003906 8249.769531 22991.144531 8203.113281 23013.085938 8146.042969 C 23034.828125 8088.910156 23102.332031 8042.074219 23163.222656 8042.074219 C 23223.972656 8042.074219 23254.261719 8010.898438 23230.535156 7972.71875 C 23176.949219 7886.167969 22871.265625 7881.6875 22818.871094 7966.492188 M 20609.324219 8307.289062 C 20546.1875 8376.800781 20494.90625 8470.417969 20494.90625 8515 C 20494.90625 8666.992188 20629.359375 8596.878906 20737.046875 8388.210938 C 20856.855469 8157.183594 20786.097656 8112.097656 20609.324219 8307.289062 M 26606.855469 8405.613281 C 26622.730469 8453.28125 26687.636719 8502.402344 26750.914062 8514.796875 C 26831.46875 8530.160156 26853.652344 8504.007812 26824.460938 8427.910156 C 26775.375 8299.839844 26564.546875 8278 26606.855469 8405.613281 M 25054.308594 8914.058594 C 24751.296875 9106.839844 24710.566406 9162.398438 24785.082031 9282.105469 C 24909.925781 9484.105469 25391.019531 9104.417969 25331.359375 8850.46875 C 25313.148438 8773.160156 25254.222656 8786.371094 25054.308594 8914.058594 M 26822.679688 8977.308594 C 27072.917969 9107.796875 27113.449219 9107.796875 27005.132812 8977.003906 C 26957.726562 8919.941406 26852.878906 8873.304688 26771.507812 8873.671875 C 26644.191406 8873.765625 26650.609375 8887.832031 26822.679688 8977.308594 M 18801.953125 9034.339844 C 18670.578125 9130.570312 18672.996094 9138.773438 18870.726562 9312.6875 C 19117.0625 9529.132812 19338.535156 9544.230469 19525.378906 9357.992188 C 19713.011719 9170.164062 19704.503906 9052.039062 19508.003906 9113.890625 C 19095.195312 9244.257812 18983.324219 9237.921875 18959.28125 9084.417969 C 18938.570312 8949.207031 18923.726562 8944.628906 18801.953125 9034.339844 M 22476.398438 9052.039062 C 22453.035156 9112.183594 22435.136719 9213.625 22436.417969 9276.976562 C 22438.371094 9359.535156 22467.257812 9343.078125 22537.925781 9219.726562 C 22592.75 9124.191406 22637.886719 9022.863281 22639.378906 8994.433594 C 22643.960938 8897.769531 22518.0625 8942.136719 22476.398438 9052.039062 M 25783.453125 9323.226562 C 25761.746094 9380.277344 25684.503906 9427.363281 25612.242188 9427.363281 C 25453.402344 9427.363281 25439.851562 9534.925781 25590.957031 9593.078125 C 25747.757812 9653.355469 25744.664062 9655.03125 25862.519531 9427.363281 C 25926.761719 9302.96875 25940.640625 9219.726562 25896.59375 9219.726562 C 25856.5625 9219.726562 25805.636719 9266.015625 25783.453125 9323.226562 M 17724.46875 9535.195312 C 17724.46875 9594.871094 17756.25 9623.742188 17794.535156 9599.464844 C 17833.4375 9575.792969 17847.339844 9527.316406 17825.230469 9491.796875 C 17765.917969 9395.488281 17724.46875 9413.503906 17724.46875 9535.195312 M 16236.027344 9703.632812 C 15984.085938 9966.519531 16046.578125 10043.703125 16323.082031 9811.15625 C 16438.164062 9714.09375 16566.703125 9634.988281 16608.890625 9634.988281 C 16650.933594 9634.988281 16685.496094 9603.882812 16685.496094 9565.683594 C 16685.496094 9424.28125 16428.03125 9502.929688 16236.027344 9703.632812 M 19641.644531 9541.625 C 19556.4375 9626.722656 19592.410156 9773.53125 19698.269531 9773.53125 C 19813.664062 9773.53125 19828.160156 9713.933594 19744.421875 9582.050781 C 19713.757812 9533.847656 19667.429688 9515.636719 19641.644531 9541.625 M 22106.21875 9628.453125 C 22132.304688 9729 22096.851562 9823.976562 21999.035156 9915.242188 C 21820.421875 10081.78125 21916.417969 10217.527344 22168.554688 10153.9375 C 22323.214844 10115.375 22334.886719 10085.878906 22299.71875 9826.835938 C 22278.199219 9670.085938 22217.1875 9527.816406 22163.851562 9510.042969 C 22093.4375 9486.863281 22077.46875 9519.304688 22106.21875 9628.453125 M 20540.878906 9612.277344 C 20461.230469 9691.707031 20490.570312 9773.53125 20598.917969 9773.53125 C 20655.976562 9773.53125 20702.476562 9726.929688 20702.476562 9669.644531 C 20702.476562 9561.371094 20620.671875 9532.042969 20540.878906 9612.277344 M 25550.855469 9912.242188 C 25550.855469 9950.082031 25581.96875 9981.386719 25620.078125 9981.386719 C 25658.070312 9981.386719 25689.554688 9950.082031 25689.554688 9912.242188 C 25689.554688 9874.101562 25658.070312 9842.824219 25620.078125 9842.824219 C 25581.96875 9842.824219 25550.855469 9874.101562 25550.855469 9912.242188 M 21414.644531 10206.476562 C 21325.914062 10538.363281 21385.5 10959.511719 21527.519531 11006.800781 C 21601.597656 11031.5 21610.445312 10981.328125 21568.824219 10769.292969 C 21511.230469 10476.695312 21511.230469 10467.246094 21575.214844 10137.171875 C 21639.402344 9805.796875 21506.144531 9863.179688 21414.644531 10206.476562 M 23303.871094 10066.191406 C 23173.980469 10251.089844 23160.554688 10604.640625 23283.242188 10604.640625 C 23415.398438 10604.640625 23574.351562 10320.96875 23476.042969 10260.464844 C 23420.089844 10225.808594 23428.046875 10185.789062 23503.730469 10123.234375 C 23609.097656 10035.769531 23590.746094 9912.242188 23472.683594 9912.242188 C 23439.160156 9912.242188 23363.011719 9981.386719 23303.871094 10066.191406 M 21066.40625 10027.3125 C 20960.699219 10069.707031 20950.179688 10258.390625 21053.226562 10258.390625 C 21171.9375 10258.390625 21395.230469 10121.003906 21395.230469 10048.03125 C 21395.230469 9978.59375 21215.207031 9966.777344 21066.40625 10027.3125 M 22641.859375 10085.515625 C 22641.859375 10142.351562 22673.066406 10189.074219 22711.085938 10189.074219 C 22749.476562 10189.074219 22780.464844 10142.351562 22780.464844 10085.515625 C 22780.464844 10028.085938 22749.476562 9981.386719 22711.085938 9981.386719 C 22673.066406 9981.386719 22641.859375 10028.085938 22641.859375 10085.515625 M 17737.8125 10317.089844 C 17649.894531 10342.070312 17571.710938 10393.433594 17564.308594 10431.285156 C 17546.582031 10525.722656 18010.613281 10554.164062 18139.789062 10466.871094 C 18232.167969 10404.886719 18232.167969 10389.332031 18139.789062 10328.832031 C 18024.535156 10252.882812 17971.136719 10251.089844 17737.8125 10317.089844 M 24419.542969 10304.953125 C 24332.257812 10391.664062 24373.296875 10604.640625 24477.179688 10604.640625 C 24542.050781 10604.640625 24581.167969 10539.511719 24581.167969 10431.285156 C 24581.167969 10263.144531 24513.804688 10210.667969 24419.542969 10304.953125 M 22191.300781 10396.644531 C 22215.21875 10435.125 22281.1875 10465.984375 22338.472656 10465.984375 C 22395.558594 10465.984375 22422.84375 10435.125 22399.328125 10396.644531 C 22375.792969 10358.722656 22309.851562 10327.753906 22252.789062 10327.753906 C 22195.574219 10327.753906 22168.019531 10358.722656 22191.300781 10396.644531 M 22956.472656 10669.027344 C 22934.589844 10704.554688 22945.050781 10751.164062 22979.707031 10772.570312 C 23014.445312 10793.925781 23060.742188 10765.183594 23082.679688 10707.960938 C 23125.789062 10596.117188 23021.546875 10563.625 22956.472656 10669.027344 M 13464.769531 10743.15625 C 13441.203125 10781.109375 13453.21875 10812.460938 13491.414062 10812.460938 C 13529.542969 10812.460938 13579.8125 10781.109375 13603.277344 10743.15625 C 13626.886719 10705.070312 13615.003906 10674.007812 13576.972656 10674.007812 C 13538.691406 10674.007812 13488.488281 10705.070312 13464.769531 10743.15625 M 16853.65625 10845.824219 C 16780.015625 10901.320312 16624.9375 10947.597656 16508.8125 10948.855469 C 16269.78125 10951.414062 16131.40625 11058.566406 16131.40625 11242.191406 C 16131.40625 11409.757812 16249.453125 11400.503906 16304.707031 11228.097656 C 16336.839844 11126.398438 16409.148438 11089.363281 16575.425781 11089.363281 C 16714.933594 11089.363281 16851.03125 11035.886719 16928.289062 10950.359375 C 17083.871094 10778.292969 17034.210938 10708.816406 16853.65625 10845.824219 M 14922.601562 10941.28125 C 14872.597656 11097.957031 14920.351562 11228.097656 15027.367188 11228.097656 C 15108.859375 11228.097656 15110.324219 11017.449219 15029.78125 10889.863281 C 14982.242188 10814.402344 14959.027344 10825.503906 14922.601562 10941.28125 M 15540.066406 11164.441406 C 15120.113281 11594.230469 14543.214844 11989.589844 14335.824219 11989.589844 C 14225.988281 11989.589844 14189.046875 12024.277344 14206.992188 12111.203125 C 14247.058594 12305.488281 14583.195312 12234.632812 14917.082031 11961.113281 C 15515.941406 11470.179688 15599.617188 11396.539062 15828.101562 11158.792969 C 15956.386719 11025.355469 16061.683594 10892.847656 16061.75 10864.375 C 16062.730469 10724.539062 15850.25 10846.664062 15540.066406 11164.441406 M 22364.820312 10931.585938 C 22364.820312 10973.875 22345.949219 11058.226562 22322.664062 11118.222656 C 22299.71875 11178.976562 22311.867188 11228.097656 22349.957031 11228.097656 C 22454.882812 11228.097656 22517.65625 11007.019531 22436.417969 10925.402344 C 22386.929688 10876.171875 22364.820312 10878.261719 22364.820312 10931.585938 M 13430.109375 11232.335938 C 13430.109375 11272.28125 13461.535156 11286.074219 13499.53125 11262.511719 C 13537.539062 11239.207031 13568.824219 11206.246094 13568.824219 11189.261719 C 13568.824219 11172.613281 13537.539062 11158.792969 13499.53125 11158.792969 C 13461.535156 11158.792969 13430.109375 11191.820312 13430.109375 11232.335938 M 13018.449219 11535.367188 C 12887.15625 11671.027344 12738.167969 11782.042969 12687.359375 11782.042969 C 12594.898438 11782.042969 12453.753906 12054.402344 12502.882812 12138.058594 C 12516.988281 12162.757812 12650.101562 12061.394531 12798.234375 11913.242188 C 12946.339844 11764.722656 13099.921875 11643.691406 13139.601562 11643.691406 C 13179.222656 11643.691406 13231.699219 11737.214844 13257.136719 11851.476562 C 13282.011719 11965.757812 13323.722656 12058.679688 13349.210938 12058.035156 C 13374.574219 12057.675781 13517.566406 11953.785156 13666.925781 11827.496094 C 13993.835938 11550.84375 13957.082031 11416.410156 13571.277344 11478.132812 C 13356.339844 11512.5625 13300.066406 11498.167969 13280.847656 11404.398438 C 13262.046875 11312.34375 13207.835938 11339.820312 13018.449219 11535.367188 M 19786.339844 11456.027344 C 19606.332031 11540.035156 19458.070312 11631.667969 19457.148438 11659.929688 C 19455.855469 11717.269531 19947.617188 11936.769531 19987.742188 11896.683594 C 20001.746094 11882.628906 19965.765625 11831.796875 19907.855469 11783.394531 C 19754.601562 11656.46875 19778.386719 11574.269531 19967.601562 11574.269531 C 20058.6875 11574.269531 20206.929688 11513.167969 20296.53125 11437.871094 L 20460.15625 11301.796875 L 20286.914062 11302.28125 C 20191.722656 11302.734375 19966.46875 11371.652344 19786.339844 11456.027344 M 21926.046875 11343.511719 C 21842.316406 11427.582031 21878.332031 11501.488281 21983.761719 11460.8125 C 22041.050781 11438.773438 22087.839844 11393.058594 22087.839844 11359.222656 C 22087.839844 11286.652344 21992.480469 11277.257812 21926.046875 11343.511719 M 15646.523438 11643.691406 C 15646.523438 11681.710938 15693.339844 11712.746094 15750.644531 11712.746094 C 15807.605469 11712.746094 15854.105469 11681.710938 15854.105469 11643.691406 C 15854.105469 11605.324219 15807.605469 11574.269531 15750.644531 11574.269531 C 15693.339844 11574.269531 15646.523438 11605.324219 15646.523438 11643.691406 M 17170.398438 11646.140625 C 17170.398438 11678.472656 17203.710938 11725.167969 17243.957031 11750.179688 C 17334.972656 11806.453125 17824.9375 11721.28125 17763.820312 11659.929688 C 17695.675781 11591.867188 17170.398438 11579.785156 17170.398438 11646.140625 M 17250.863281 12063.1875 C 17166.5625 12141.613281 17117.46875 12237.417969 17141.574219 12276.304688 C 17186.050781 12348.453125 17516.777344 12085.683594 17516.777344 11978.042969 C 17516.777344 11880.46875 17410.859375 11914.242188 17250.863281 12063.1875 M 15248.265625 12068.613281 C 15144.117188 12173.800781 15134.851562 12380.691406 15231.480469 12440.171875 C 15318.863281 12494.484375 15387.882812 12324.410156 15357.792969 12129.21875 C 15339.261719 12010.238281 15317.9375 11998.304688 15248.265625 12068.613281 M 21924.042969 12133.5625 C 21712.9375 12299.386719 21684.363281 12474.644531 21868.488281 12474.644531 C 22062.320312 12474.644531 22100.191406 12554.058594 21972.960938 12694.152344 C 21857.5 12822.019531 21913 12863.746094 22067.242188 12765.792969 C 22191.113281 12687.34375 22146.765625 12418.929688 22004.101562 12381.398438 C 21882.4375 12349.871094 21826.140625 12197.644531 21936.03125 12197.644531 C 22024.824219 12197.644531 22269.46875 11994.648438 22183.542969 11991.933594 C 22141.15625 11990.683594 22024.308594 12054.625 21924.042969 12133.5625 M 17949.664062 12109.191406 C 17825.519531 12124.183594 17724.46875 12168.226562 17724.46875 12205.992188 C 17724.46875 12305.691406 18296.917969 12248.84375 18330.660156 12145.722656 C 18346.234375 12098.105469 18317.730469 12064.277344 18266.746094 12070.464844 C 18216.109375 12076.15625 18073.578125 12093.71875 17949.664062 12109.191406 M 21019.75 12119.054688 C 20990.207031 12167.101562 20984.546875 12225.316406 21007.273438 12248.597656 C 21069.246094 12310.445312 21136.800781 12219.339844 21103.34375 12118.671875 C 21079.867188 12048.347656 21063.785156 12048.347656 21019.75 12119.054688 M 12079.648438 12197.644531 C 12055.863281 12235.808594 12067.902344 12266.964844 12106.167969 12266.964844 C 12144.417969 12266.964844 12194.671875 12235.808594 12218.402344 12197.644531 C 12242.085938 12159.707031 12229.996094 12128.363281 12191.683594 12128.363281 C 12153.363281 12128.363281 12103.292969 12159.707031 12079.648438 12197.644531 M 22739.269531 12276.730469 C 22607.585938 12424.679688 22607.953125 12424.679688 22763.378906 12329.191406 C 22848.851562 12276.730469 22918.777344 12209.757812 22918.777344 12181.242188 C 22918.777344 12097.210938 22880.417969 12117.832031 22739.269531 12276.730469 M 20061.835938 12411.03125 C 19995.378906 12449.902344 19940.863281 12513.167969 19940.863281 12552.148438 C 19940.863281 12641.757812 20218.390625 12561.207031 20353.746094 12432.699219 C 20442.203125 12348.453125 20437.796875 12336.613281 20319.074219 12338.082031 C 20244.363281 12339.140625 20128.441406 12372.050781 20061.835938 12411.03125 M 11837.183594 12583.023438 C 11837.183594 12642.09375 11868.238281 12671.351562 11906.496094 12647.761719 C 11944.660156 12624.222656 11975.835938 12575.691406 11975.835938 12540.023438 C 11975.835938 12503.863281 11944.660156 12474.644531 11906.496094 12474.644531 C 11868.238281 12474.644531 11837.183594 12523.339844 11837.183594 12583.023438 M 13707.34375 12886.855469 C 13707.34375 13034.089844 13881.019531 13155.492188 13967.664062 13068.804688 C 14024.210938 13011.847656 13901.613281 12805.050781 13788.992188 12767.273438 C 13743.320312 12751.949219 13707.34375 12805.050781 13707.34375 12886.855469 M 21360.574219 12820.988281 C 21336.949219 12859.078125 21350.808594 12890.488281 21390.988281 12890.488281 C 21431.464844 12890.488281 21464.664062 12859.078125 21464.664062 12820.988281 C 21464.664062 12782.953125 21450.785156 12751.769531 21434.046875 12751.769531 C 21416.988281 12751.769531 21384.15625 12782.953125 21360.574219 12820.988281 M 12891.257812 12970.121094 C 12927.320312 13078.035156 13082.105469 13096.875 13087.382812 12994.117188 C 13089.609375 12956.132812 13039.257812 12914.121094 12975.671875 12900.742188 C 12903.703125 12886.011719 12872.167969 12911.953125 12891.257812 12970.121094 M 21192.996094 12999.941406 C 21196 13080.574219 21212.59375 13096.875 21234.730469 13041.5625 C 21254.523438 12991.792969 21251.988281 12931.9375 21228.992188 12909.023438 C 21206.332031 12886.011719 21189.925781 12926.75 21192.996094 12999.941406 M 18226.34375 13005.621094 C 18075.292969 13066.039062 18133.207031 13167.335938 18318.753906 13167.335938 C 18426.246094 13167.335938 18486.78125 13134.210938 18470.640625 13084.960938 C 18438.027344 12987.710938 18345.980469 12957.851562 18226.34375 13005.621094 M 13199.394531 13144.386719 C 13127.746094 13215.722656 13144.6875 13734.871094 13217.222656 13690.085938 C 13252.308594 13668.265625 13300.960938 13559.761719 13325.320312 13448.742188 L 13369.929688 13246.355469 L 13601.867188 13383.261719 C 13771.753906 13483.46875 13847.238281 13497.921875 13884.230469 13438.125 C 13995.789062 13258.3125 13358.847656 12985.023438 13199.394531 13144.386719 M 15002.621094 13141.582031 C 14934.226562 13210.0625 15085.796875 13444.53125 15199.054688 13444.53125 C 15330.789062 13444.53125 15328.035156 13343.40625 15191.457031 13206.898438 C 15068.175781 13083.863281 15062.667969 13081.609375 15002.621094 13141.582031 M 18624.949219 13167.335938 C 18624.949219 13205.410156 18673.324219 13236.378906 18732.75 13236.378906 C 18792.0625 13236.378906 18821.515625 13205.410156 18797.941406 13167.335938 C 18774.335938 13129.203125 18725.894531 13098.054688 18689.949219 13098.054688 C 18654.035156 13098.054688 18624.949219 13129.203125 18624.949219 13167.335938 M 9861.144531 13338.191406 C 10020.003906 13465.421875 10494.75 13605.019531 10613.269531 13560.101562 C 10713.390625 13521.699219 10295.726562 13338 9967.261719 13275.75 C 9738.253906 13232.65625 9732.484375 13235.824219 9861.144531 13338.191406 M 12355.34375 13375.253906 C 12448.382812 13694.363281 12754.675781 14341.898438 12850.574219 14421.511719 C 12927.542969 14485.15625 12945.265625 14458.816406 12945.265625 14281.421875 C 12945.265625 14010.019531 12742.984375 13604.34375 12493.175781 13375.253906 L 12305.214844 13202.023438 L 12355.34375 13375.253906 M 11540.011719 13496.1875 C 11480.4375 13799.15625 11557.894531 14067.757812 11705.15625 14067.757812 C 11809.832031 14067.757812 11822.996094 14038.488281 11775.265625 13911.753906 C 11742.941406 13826.320312 11731.574219 13654.5 11750.21875 13530.980469 C 11792.78125 13243.449219 11596.265625 13211.0625 11540.011719 13496.1875 M 18624.949219 13444.53125 C 18624.949219 13520.507812 18601.230469 13583.375 18573.050781 13584.160156 C 18544.0625 13584.449219 18478.769531 13611.910156 18427.246094 13644.382812 C 18353.304688 13691.085938 18350.445312 13735.472656 18414.460938 13854.867188 C 18485.925781 13988.546875 18465.800781 14033.070312 18240.582031 14239.210938 C 17932.464844 14521.742188 17967.808594 14640.972656 18323.824219 14518.164062 C 18526.445312 14448.683594 18580.449219 14393.367188 18586.90625 14248.90625 C 18591.554688 14142.734375 18662.804688 14019.5625 18758.449219 13952.695312 C 18905.570312 13849.324219 18910.621094 13829.847656 18808.445312 13755.125 C 18705.09375 13679.648438 18707.683594 13661.46875 18834.863281 13546.109375 C 18941.257812 13449.648438 18953.300781 13406.726562 18886.25 13364.121094 C 18733.742188 13267.007812 18624.949219 13300.738281 18624.949219 13444.53125 M 13931.78125 13605.074219 L 13636.378906 13759.691406 L 13831.652344 13833.289062 C 14001.5 13897.378906 14056.042969 13882.8125 14248.554688 13722.367188 C 14455.203125 13549.558594 14476.710938 13440.175781 14301.386719 13447.433594 C 14260.179688 13449.007812 14093.730469 13520.058594 13931.78125 13605.074219 M 20471.761719 13490.480469 C 20391.953125 13570.253906 20421.273438 13652.09375 20529.496094 13652.09375 C 20586.582031 13652.09375 20633.113281 13605.253906 20633.113281 13548.199219 C 20633.113281 13440.175781 20551.421875 13410.835938 20471.761719 13490.480469 M 20159.375 13790.632812 C 20159.375 13886.050781 20175.101562 13924.636719 20194.1875 13877.449219 C 20213.625 13829.78125 20213.625 13751.613281 20194.1875 13704.054688 C 20175.101562 13656.515625 20159.375 13695.285156 20159.375 13790.632812 M 19802.214844 13896.484375 C 19802.214844 13955.207031 19747.726562 14022.882812 19680.796875 14047.277344 C 19449.21875 14132.992188 19376.367188 14387.632812 19563.210938 14459.304688 C 19723.785156 14521.273438 20009.714844 14217.972656 20009.714844 13986.480469 C 20009.714844 13858.445312 19973.773438 13790.632812 19906.148438 13790.632812 C 19848.914062 13790.632812 19802.214844 13838.367188 19802.214844 13896.484375 M 13222.5 13991.585938 C 13222.5 14095.738281 13504.589844 14159.664062 13589.578125 14074.421875 C 13631.417969 14032.875 13651.851562 13996.097656 13634.585938 13992.714844 C 13325.945312 13936.265625 13222.5 13936.070312 13222.5 13991.585938 M 16616.246094 14400.855469 C 16616.246094 14545.855469 16570.515625 14724.796875 16514.5 14799.097656 C 16387.351562 14966.933594 16380.339844 15106.835938 16498.792969 15106.835938 C 16547.796875 15106.835938 16655.507812 14969.015625 16736.972656 14800.808594 C 16862.488281 14542.972656 16872.828125 14467.21875 16802.972656 14316.449219 C 16685.496094 14063.117188 16616.246094 14094.078125 16616.246094 14400.855469 M 13156.742188 14535.511719 C 13060.164062 14883.019531 13062.980469 14898.765625 13218.375 14898.765625 C 13402.335938 14898.765625 13451.925781 14793.808594 13399.273438 14513.242188 C 13341.019531 14203.136719 13246.785156 14211.328125 13156.742188 14535.511719 M 11452.8125 14766.332031 C 11426.96875 14807.921875 11440.816406 14876.492188 11483.152344 14918.605469 C 11539.722656 14975.210938 11560.394531 14955.097656 11560.394531 14843.257812 C 11560.394531 14676.09375 11524.464844 14650.644531 11452.8125 14766.332031 M 18981.023438 14752.507812 C 18915.347656 14794.285156 18910.492188 14826.480469 18963.792969 14859.367188 C 19051.765625 14913.945312 19178.753906 14852.957031 19178.753906 14756.042969 C 19178.753906 14675.613281 19104.726562 14674.261719 18981.023438 14752.507812 M 16023.003906 15322.058594 L 15819.480469 15537.425781 L 16038.367188 15491.300781 C 16167.605469 15463.546875 16275.390625 15474.707031 16302.148438 15518.085938 C 16389.550781 15659.5 16618.394531 15595.234375 16689.070312 15408.773438 C 16779.269531 15171.035156 16722.410156 15121.054688 16544.484375 15282.140625 C 16405.5625 15407.507812 16401.742188 15407.3125 16362.945312 15258.554688 C 16310.199219 15057.554688 16264.710938 15066.304688 16023.003906 15322.058594 M 18629.90625 15285.867188 C 18398.25 15481.394531 18337.328125 15641.089844 18538.242188 15528.070312 C 18604.660156 15490.261719 18752.996094 15381.46875 18867.160156 15285.824219 C 19019.761719 15157.761719 19044.171875 15110.828125 18959.214844 15108.984375 C 18895.285156 15107.75 18746.96875 15187.246094 18629.90625 15285.867188 M 12267.460938 15316.566406 C 12147.078125 15509.65625 12163.304688 15591.265625 12323.425781 15591.265625 C 12440.851562 15591.265625 12455.964844 15560.722656 12417.625 15400.972656 C 12358.855469 15155.992188 12365.347656 15159.949219 12267.460938 15316.566406 M 10343.933594 15370.667969 C 10150.964844 15437.613281 9886.011719 15560.683594 9755.511719 15644.5 L 9517.160156 15796.660156 L 9704.691406 15798.222656 C 9933.152344 15799.523438 10548.710938 15573.769531 10833.019531 15384.632812 C 11040.503906 15246.101562 11040.503906 15245.964844 10867.722656 15247.71875 C 10772.292969 15248.867188 10536.574219 15304.042969 10343.933594 15370.667969 M 12945.265625 15302.550781 C 12945.265625 15435.613281 13287.847656 15676.976562 13409.203125 15629.316406 C 13520.207031 15585.929688 13510.898438 15561.839844 13326.476562 15413.195312 C 13118.414062 15245.667969 12945.265625 15195.144531 12945.265625 15302.550781 M 17114.535156 15388.855469 C 17127.828125 15429.707031 17168.789062 15463.523438 17205.007812 15463.523438 C 17241.457031 15463.523438 17281.753906 15429.707031 17295.273438 15388.855469 C 17309.171875 15347.996094 17268.183594 15314.285156 17205.007812 15314.285156 C 17141.574219 15314.285156 17100.691406 15347.996094 17114.535156 15388.855469 M 15278.84375 15566.324219 C 15223.882812 15621.828125 15286.292969 15729.890625 15373.671875 15729.890625 C 15409.699219 15729.890625 15439.011719 15683.246094 15439.011719 15625.957031 C 15439.011719 15519.003906 15356.898438 15488.492188 15278.84375 15566.324219 M 12529.8125 15762.503906 C 12529.8125 15824.347656 12570.460938 15848.550781 12633.316406 15824.425781 C 12690.15625 15802.464844 12719.734375 15756.554688 12698.515625 15722.496094 C 12638.242188 15624.738281 12529.8125 15650.125 12529.8125 15762.503906 M 13047.476562 15871.242188 C 13023.117188 15910.816406 12945.96875 15925.40625 12876.214844 15903.039062 C 12738.832031 15859.367188 12633.707031 15964.441406 12703.042969 16076.359375 C 12731.757812 16122.558594 12790.960938 16121.835938 12880.21875 16074.082031 C 12983.742188 16018.609375 13014.6875 16024.371094 13014.6875 16099.804688 C 13014.6875 16231.933594 13198.109375 16376.472656 13292.207031 16318.464844 C 13345.886719 16284.894531 13346.609375 16246.140625 13293.566406 16182.125 C 13238.046875 16115.472656 13250.234375 16079.882812 13342.082031 16044.773438 C 13457.613281 15999.898438 13456.769531 15991.128906 13330.527344 15898.082031 C 13170.539062 15780.296875 13107.378906 15774.617188 13047.476562 15871.242188 M 14756.488281 15934.195312 C 14771.738281 15979.792969 14806.902344 16015.035156 14834.265625 16012.179688 C 14917.234375 16003.5625 14901.46875 15908.503906 14811.804688 15878.765625 C 14766.160156 15863.539062 14741.230469 15888.488281 14756.488281 15934.195312 M 17793.46875 15976.339844 C 17793.46875 16035.59375 17825.230469 16064.574219 17864.085938 16040.886719 C 17902.910156 16016.941406 17916.324219 15968.144531 17894.4375 15932.941406 C 17835.304688 15836.847656 17793.46875 15854.792969 17793.46875 15976.339844 M 10915.542969 16313.429688 C 10698.625 16444.285156 10521.40625 16533.691406 10521.40625 16512.761719 C 10521.40625 16492.496094 10412.847656 16558.398438 10280.191406 16659.40625 C 10102.328125 16794.945312 10050.816406 16812.285156 10084.394531 16724.773438 C 10120.914062 16629.390625 10104.089844 16616.34375 9996.59375 16658.550781 C 9480.9375 16862.421875 8180.707031 17094.839844 6819.566406 17226.824219 L 6407.738281 17267.191406 L 6577.277344 17399.335938 C 6845.472656 17608.71875 7685.324219 18015.582031 7849.289062 18015.582031 C 8011.71875 18015.582031 9710.539062 17350.480469 10275.238281 17065.992188 C 10467.644531 16968.96875 10838.171875 16751.832031 11099.019531 16583.898438 C 11494.074219 16329.519531 11559.269531 16261.960938 11488.710938 16177.332031 C 11375.074219 16040.320312 11365.300781 16042.867188 10915.542969 16313.429688 M 14019.804688 16421.046875 C 13997.046875 16458.371094 14010.433594 16549.960938 14050.210938 16624.25 C 14113.46875 16741.804688 14097.941406 16762.496094 13932.902344 16781.640625 C 13818.386719 16794.511719 13733.984375 16851.722656 13720.066406 16924.636719 C 13701.113281 17025.496094 13749.351562 17045.929688 14005.675781 17045.929688 C 14175.167969 17045.929688 14427.171875 17093.101562 14565.40625 17151.050781 C 14803.632812 17250.601562 14828.601562 17247.90625 15024.480469 17103.480469 C 15288.460938 16907.902344 15284.183594 16882.007812 14995.148438 16936.058594 C 14720.570312 16987.429688 14192.246094 16917.132812 14192.246094 16829.070312 C 14192.246094 16796.21875 14267.847656 16768.574219 14361.136719 16768.574219 C 14596.667969 16768.574219 14650.1875 16643.566406 14437.144531 16590.121094 C 14340.535156 16565.875 14261.1875 16502.539062 14261.1875 16449.632812 C 14261.1875 16339.414062 14083.125 16318.605469 14019.804688 16421.046875 M 10971.5 16991.035156 C 10552.515625 17221.082031 9913.570312 17563.191406 9551.648438 17751.195312 L 8893.765625 18093.453125 L 9274.5625 18047.121094 C 9804.34375 17983.148438 10553.320312 17680.550781 11328.492188 17217.984375 C 11964.46875 16838.671875 11982.011719 16821.253906 11866.4375 16693.230469 C 11800.390625 16620.492188 11743.503906 16563.921875 11739.871094 16567.214844 C 11736.375 16570.503906 11390.34375 16761.464844 10971.5 16991.035156 M 12772.1875 16838.007812 C 12795.871094 16876.210938 12846.160156 16907.351562 12884.398438 16907.351562 C 12922.410156 16907.351562 12934.195312 16876.210938 12910.929688 16838.007812 C 12887.308594 16799.980469 12836.679688 16768.574219 12798.671875 16768.574219 C 12760.554688 16768.574219 12748.519531 16799.980469 12772.1875 16838.007812 M 16442.910156 16907.351562 C 16419.515625 16945.480469 16433.09375 16976.753906 16473.753906 16976.753906 C 16514.023438 16976.753906 16546.84375 16945.480469 16546.84375 16907.351562 C 16546.84375 16869.132812 16532.945312 16838.007812 16516.367188 16838.007812 C 16499.171875 16838.007812 16466.320312 16869.132812 16442.910156 16907.351562 M 15756.992188 17080.691406 C 15632.070312 17196.132812 15604.226562 17253.503906 15673.195312 17253.503906 C 15872.078125 17253.503906 16131.40625 17117.265625 16131.40625 17013.007812 C 16131.40625 16855.492188 15967.863281 16885.132812 15756.992188 17080.691406 "/>
</g>
</svg>
