<?xml version="1.0" encoding="UTF-8"?>
<svg xmlns="http://www.w3.org/2000/svg" xmlns:xlink="http://www.w3.org/1999/xlink" width="800pt" height="800pt" viewBox="0 0 800 800" version="1.1">
<g id="surface388">
<path style=" stroke:none;fill-rule:nonzero;fill:rgb(0%,0%,0%);fill-opacity:1;" d="M 325.78125 97.34375 L 369.6875 39.6875 C 388.75 14.6875 418.4375 0 450 0 C 494.53125 0 533.75 29.21875 546.5625 71.875 L 574.375 164.6875 C 590.46875 218.4375 630.78125 261.5625 683.4375 281.25 L 745.625 304.53125 C 778.28125 316.875 800 348.125 800 382.96875 C 800 409.375 787.65625 434.21875 766.40625 450 L 661.25 528.90625 C 623.28125 557.34375 603.125 603.75 608.4375 650.9375 L 612.34375 686.40625 C 619.0625 746.875 571.71875 799.84375 510.78125 799.84375 C 487.65625 799.84375 465 791.875 447.03125 777.5 L 360.46875 708.28125 C 353.4375 702.65625 345.9375 697.8125 337.8125 693.90625 C 313.125 681.5625 285.15625 677.65625 258.125 682.5 L 128.75 706.09375 C 74.6875 715.9375 25 674.375 25 619.53125 C 25 598.90625 32.34375 578.90625 45.46875 562.96875 L 62.96875 542.03125 C 85.78125 514.84375 98.28125 480.46875 98.28125 445 C 98.28125 415.625 89.6875 386.875 73.59375 362.1875 L 13.75 271.09375 C 4.84375 257.34375 0 241.25 0 224.84375 C 0 172.65625 47.03125 132.96875 98.4375 141.71875 L 178.59375 155.3125 C 234.6875 164.84375 291.40625 142.5 325.78125 97.34375 Z M 325.78125 97.34375 "/>
</g>
</svg>
