<?xml version="1.0" encoding="UTF-8"?>
<svg xmlns="http://www.w3.org/2000/svg" xmlns:xlink="http://www.w3.org/1999/xlink" width="24pt" height="24pt" viewBox="0 0 24 24" version="1.1">
<g id="surface96">
<path style=" stroke:none;fill-rule:nonzero;fill:rgb(0%,0%,0%);fill-opacity:1;" d="M 6 14 C 5.449219 14 4.980469 13.804688 4.585938 13.414062 C 4.195312 13.019531 4 12.550781 4 12 C 4 11.449219 4.195312 10.980469 4.585938 10.585938 C 4.980469 10.195312 5.449219 10 6 10 C 6.550781 10 7.019531 10.195312 7.414062 10.585938 C 7.804688 10.980469 8 11.449219 8 12 C 8 12.550781 7.804688 13.019531 7.414062 13.414062 C 7.019531 13.804688 6.550781 14 6 14 Z M 12 14 C 11.449219 14 10.980469 13.804688 10.585938 13.414062 C 10.195312 13.019531 10 12.550781 10 12 C 10 11.449219 10.195312 10.980469 10.585938 10.585938 C 10.980469 10.195312 11.449219 10 12 10 C 12.550781 10 13.019531 10.195312 13.414062 10.585938 C 13.804688 10.980469 14 11.449219 14 12 C 14 12.550781 13.804688 13.019531 13.414062 13.414062 C 13.019531 13.804688 12.550781 14 12 14 Z M 18 14 C 17.449219 14 16.980469 13.804688 16.585938 13.414062 C 16.195312 13.019531 16 12.550781 16 12 C 16 11.449219 16.195312 10.980469 16.585938 10.585938 C 16.980469 10.195312 17.449219 10 18 10 C 18.550781 10 19.019531 10.195312 19.414062 10.585938 C 19.804688 10.980469 20 11.449219 20 12 C 20 12.550781 19.804688 13.019531 19.414062 13.414062 C 19.019531 13.804688 18.550781 14 18 14 Z M 18 14 "/>
</g>
</svg>
