<?xml version="1.0" encoding="UTF-8"?>
<svg xmlns="http://www.w3.org/2000/svg" xmlns:xlink="http://www.w3.org/1999/xlink" width="11354pt" height="12744pt" viewBox="0 0 11354 12744" version="1.1">
<g id="surface348">
<path style=" stroke:none;fill-rule:nonzero;fill:rgb(13.725491%,12.156863%,12.54902%);fill-opacity:1;" d="M 6164.972656 5508 C 6453.425781 5843.96875 6966.574219 6042.378906 7401.789062 6075.871094 C 7547.300781 6087.796875 8480.71875 5976.636719 8380.574219 5723.699219 C 8338.894531 5618.078125 7431.570312 5475.179688 7253.882812 5395.949219 C 6877.835938 5228.125 6567.105469 5031.386719 6449.222656 4623.332031 C 7005.242188 4975.496094 7902.78125 5736.828125 8556.078125 5100.582031 C 8920.960938 4745.394531 8145.257812 4715.972656 7885.5625 4599.71875 C 7670.929688 4504.269531 7032.066406 4144.964844 7113.300781 3864.5 C 7480.902344 4273.460938 8379.125 4697.738281 8885.484375 4325.371094 C 9345.425781 3986.460938 8809.75 3957.949219 8538.316406 3870.925781 C 8197.566406 3761.457031 7918.714844 3523.84375 7773.335938 3193.277344 C 8061.460938 3325.035156 8317.890625 3526.085938 8628.765625 3607.984375 C 8937.640625 3688.617188 9442.753906 3577.46875 9595.339844 3253.773438 C 9091.023438 3055.929688 8698.085938 3188.285156 8402.59375 2593.214844 C 8711.738281 2714.75 9018.519531 2870.589844 9359.667969 2803.601562 C 9578.222656 2761.242188 9951.488281 2526.417969 9995.84375 2295.308594 C 9600.558594 2346.136719 9233.144531 2619.171875 8951.628906 2136.949219 C 9233.8125 2278.980469 9585.421875 2391.433594 9888.40625 2239.878906 C 10011.878906 2177.738281 10109.171875 2072.140625 10215.378906 1998.273438 C 10353.09375 1902.96875 10474.214844 1868.269531 10568.375 1709.351562 C 10392.199219 1694.394531 9991.851562 1764.5625 9970.683594 1506.867188 C 10111.382812 1568.847656 10436.535156 1676.136719 10577.136719 1547.8125 C 10790.332031 1354.230469 10399.054688 1398.621094 10396.519531 1216.605469 C 10755.996094 1327.375 11003.496094 1186.160156 10662.460938 902.753906 C 10912.589844 954.878906 10917.78125 648.359375 11037.152344 497.527344 C 11177.34375 319.644531 11502.402344 221.976562 11244.558594 70.808594 C 11004.4375 -70.730469 10733.765625 108.167969 10542.59375 235.042969 C 10357.859375 357.453125 10222.949219 379.3125 10175.546875 634.585938 C 10129.976562 490.632812 10021.644531 362.582031 9880.011719 487.832031 C 9767.222656 335.5625 9543.242188 683.410156 9502.320312 819.792969 C 9446.359375 1007.695312 9482.535156 1184.472656 9555.5 1359.800781 C 9544.339844 1365.089844 9532.929688 1370.628906 9521.660156 1375.8125 C 9371.664062 1199.644531 9434.25 966.511719 9460.527344 757.464844 C 9206.761719 948.355469 8835.910156 1376.070312 9076.714844 1708.421875 C 8681.457031 1701.492188 8857.277344 983.828125 9034.5625 838.253906 C 8737.019531 774.925781 8457.09375 1039.777344 8381.765625 1300.769531 C 8350.3125 1409.003906 8462.214844 2087.320312 8479.351562 2069.859375 C 8356.894531 2192.867188 8059.730469 1606.277344 8043.546875 1527.03125 C 7993.707031 1280.511719 8078.132812 1127.746094 8237.34375 983.828125 C 7841.242188 880.242188 7549.761719 1378.160156 7545.621094 1693.304688 C 7540.726562 2057.507812 7702.332031 2301.597656 7884.679688 2597.367188 C 7613.632812 2494.074219 7370.589844 2175.179688 7319.371094 1891.4375 C 7273.105469 1636.078125 7531.261719 1083.058594 7074.445312 1509.625 C 6518.1875 2029.429688 6911.664062 2726.132812 7317.453125 3183.875 C 6851.050781 2967.417969 6278.253906 2295.460938 6372.625 1739.578125 C 5930.539062 1781.683594 5898.640625 2473.34375 5989.941406 2786.621094 C 6102.625 3173.894531 6411.378906 3485.996094 6639.617188 3805.109375 C 6308.609375 3661.355469 6022.949219 3432.703125 5867.433594 3091.300781 C 5727.507812 2783.984375 5789.316406 2392.371094 5662.214844 2104.898438 C 5313.761719 2427.011719 5122.742188 2864.910156 5252.476562 3344.246094 C 5367.527344 3769.414062 5852.046875 4079.675781 5919.125 4497.296875 C 5472.804688 4386.023438 5185.4375 4089.585938 4982.289062 3674.320312 C 4942.910156 3593.996094 4721.738281 2715.484375 4721.21875 2715.78125 C 4591.695312 2748.105469 4393.839844 3143.855469 4353.238281 3259.53125 C 4271.820312 3493.53125 4312.949219 3756.976562 4386.417969 3986.285156 C 4432.519531 4131.085938 5251.582031 5166.457031 5253.59375 5162.425781 C 5193.988281 5262.515625 4697.597656 4867.71875 4651.6875 4814.636719 C 4504.722656 4646.4375 4438.523438 4419.515625 4375.683594 4207.757812 C 4308.75 3984.042969 4275.175781 3762.59375 4250.59375 3533.417969 C 4216.476562 3211.65625 4176.519531 3048.472656 3959.347656 3393.957031 C 3692.128906 3819.628906 3597.78125 4307.917969 3779.21875 4785.566406 C 3825.078125 4906.761719 4608.472656 5704.222656 4592.488281 5731.292969 C 4500.320312 5885.234375 4065.542969 5420.78125 4028.734375 5363.675781 C 3898.175781 5161.035156 3817.207031 4916.960938 3724.65625 4694.457031 C 3643.414062 4497.886719 3532.613281 4323.523438 3437.152344 4133.039062 C 3335.570312 3930.449219 3292.539062 3554.324219 3131.222656 3408.40625 C 2832.242188 3819.257812 2863.46875 4582.277344 3024.632812 5034.882812 C 3226.359375 5602.507812 3570.933594 6039.089844 4016.640625 6432.28125 C 3347.554688 6261.457031 3199.863281 5725.375 3003.6875 5133.898438 C 2921.867188 4888.039062 2896.828125 4666.398438 2865.546875 4411.855469 C 2832.242188 4140.195312 2780.453125 3999.492188 2586.945312 4262.542969 C 2225.371094 4752.363281 2164.539062 5284.082031 2425.394531 5826.597656 C 2542.621094 6069.503906 2670.207031 6317.15625 2842.453125 6526.105469 C 2897.972656 6593.019531 3214.589844 7010.804688 3260.046875 7024.898438 C 2691.082031 6852.242188 2386.988281 6278.082031 2094.675781 5814.949219 C 1836.886719 5406.429688 1437.835938 4922.734375 1358.15625 5726.035156 C 1259.304688 6726.234375 2121.695312 7206.882812 2769.59375 7753.234375 C 2295.128906 7687.753906 1878.652344 7161.214844 1614.019531 6791.929688 C 1430.769531 6535.957031 1036.488281 5786.394531 782.449219 6372 C 617.402344 6752.074219 758.710938 7271.21875 1062.109375 7538.4375 C 1361.171875 7802.789062 1642.179688 8143.246094 1977.023438 8350.730469 C 1609.402344 8329.855469 1157.335938 7945.390625 891.070312 7712.328125 C 578.441406 7437.847656 117.253906 7067.417969 19.804688 7737.503906 C -55.929688 8260.667969 507.054688 8589.304688 886.046875 8831.917969 C 1023.285156 8919.613281 1197.175781 9045.761719 1347.53125 9106.324219 C 1494.394531 9165.804688 1741.476562 9126.46875 1832.226562 9238 C 1444.210938 9384.003906 446.839844 8700.453125 328.382812 9406.785156 C 241.601562 9922.753906 1135.484375 10359.296875 1563.21875 10328.171875 C 1317.640625 10768.964844 1028.867188 10998.253906 1024.195312 11536.632812 C 1021.949219 11787.980469 1060.902344 12007.324219 1105.074219 12257.148438 C 1169.859375 12622.425781 1132.320312 12636.320312 1492.714844 12724.980469 C 1448.039062 12280.574219 1183.117188 11773.230469 1303.976562 11327.765625 C 1391.359375 11006.296875 1850.527344 10226.421875 2196.375 10250.5 C 2113.074219 10408.316406 1984.394531 10538.394531 2056.867188 10714.570312 C 2142.167969 10921.757812 2393.800781 10896.179688 2536.03125 11041.082031 C 2662.296875 11170.394531 2593.914062 11317.144531 2690.023438 11448.132812 C 2784.695312 11577.289062 3003.6875 11589.28125 3146.046875 11624.417969 C 3563.683594 11728.0625 3836.726562 11734.023438 3830.558594 11225.8125 C 3829.25 11110.6875 3706.347656 11118.265625 3779.65625 11035.859375 C 3837.78125 10970.503906 3971.78125 11025.800781 4039.664062 11016.90625 C 4196.015625 10996.503906 4354.195312 10963.257812 4503.242188 10901.582031 C 4379.882812 10693.597656 4177.996094 10499.230469 4007.339844 10328.171875 C 4256.367188 10377.980469 4707.527344 10446.757812 4692.0625 10076.378906 C 4675.765625 9695.355469 4150.875 9438.554688 3917.535156 9229.238281 C 3824.882812 9145.902344 3334.183594 8693.828125 3478.957031 8609.5 C 3603.433594 8537.613281 3929.507812 8932.007812 3997.449219 8995.191406 C 4152.308594 9138.972656 4216.476562 9163.875 4443.539062 9206.191406 C 4737.539062 9261.070312 4989.203125 9332.691406 5287.757812 9285.054688 C 5348.742188 9275.9375 5656.0625 9257.628906 5678.769531 9159.984375 C 5696.921875 9081.574219 5390.054688 8815.75 5330.441406 8760.6875 C 4945.535156 8405.050781 3790.171875 8121.574219 3835.460938 7504.78125 C 4254.222656 7911.914062 4666.34375 8239.15625 5255.679688 8355.425781 C 5498.035156 8403.34375 6530.292969 8364.785156 6613.859375 8060.171875 C 6663.503906 7880.042969 5628.355469 7563.082031 5439.109375 7504.195312 C 5086.226562 7394.433594 4234.539062 7328.082031 4438.246094 6768.632812 C 4800.96875 7119.011719 5142.804688 7355.679688 5641.058594 7477.855469 C 6058.089844 7580.179688 6688.058594 7652.585938 7051.691406 7343.960938 C 7275.605469 7153.859375 7070.445312 7107.738281 6837.65625 6995.480469 C 6605.007812 6884.066406 6355.390625 6817.085938 6110.070312 6739.625 C 5686.914062 6606.175781 5051.832031 6546.542969 5021.539062 5985.375 C 5463.742188 6133.964844 5799.3125 6523.046875 6246.097656 6695.238281 C 6698.378906 6869.464844 7311.265625 6769.214844 7726.894531 6522.007812 C 8005.191406 6356.039062 7893.675781 6269.390625 7601.59375 6230.765625 C 7337.070312 6196.0625 7132.039062 6170.5 6868.082031 6084.683594 C 6378.667969 5926.488281 5892.453125 5843.71875 5722.839844 5285.117188 C 5835.460938 5339.90625 6083.316406 5412.9375 6164.972656 5508 "/>
</g>
</svg>
