<?xml version="1.0" encoding="UTF-8"?>
<svg xmlns="http://www.w3.org/2000/svg" xmlns:xlink="http://www.w3.org/1999/xlink" width="31114pt" height="35568pt" viewBox="0 0 31114 35568" version="1.1">
<g id="surface318">
<path style=" stroke:none;fill-rule:nonzero;fill:rgb(0%,0%,0%);fill-opacity:1;" d="M 19999.84375 12.617188 L 8892.734375 12.617188 C 7664.050781 12.617188 6671.332031 1005.363281 6671.332031 2234.085938 C 6671.332031 3462.714844 7664.050781 4455.503906 8892.734375 4455.503906 L 8892.734375 13674.386719 C 8892.734375 14493.515625 8663.78125 15305.773438 8233.207031 15999.972656 L 722.050781 28210.738281 C 256.898438 28974.378906 7.085938 29842.035156 7.085938 30737.679688 C 7.085938 33396.390625 2166.046875 35555.382812 4824.75 35555.382812 L 26289.25 35555.382812 C 28947.953125 35555.382812 31106.914062 33396.390625 31106.914062 30737.679688 C 31106.914062 29849.117188 30857.101562 28974.378906 30391.949219 28210.738281 L 22880.792969 16006.847656 C 22450.21875 15305.773438 22221.265625 14500.539062 22221.265625 13681.28125 L 22221.265625 4455.503906 C 23449.949219 4455.503906 24442.667969 3462.714844 24442.667969 2234.085938 C 24442.667969 1005.363281 23449.949219 12.617188 22221.265625 12.617188 Z M 13335.570312 13674.386719 L 13335.570312 4455.503906 L 17778.429688 4455.503906 L 17778.429688 13674.386719 C 17778.429688 15319.53125 18236.621094 16930.167969 19097.449219 18332.394531 L 21492.4375 22226.84375 L 9621.5625 22226.84375 L 12016.550781 18332.394531 C 12877.378906 16930.167969 13335.570312 15319.53125 13335.570312 13674.386719 Z M 13335.570312 13674.386719 "/>
</g>
</svg>
