<?xml version="1.0" encoding="UTF-8"?>
<svg xmlns="http://www.w3.org/2000/svg" xmlns:xlink="http://www.w3.org/1999/xlink" width="16975pt" height="8268pt" viewBox="0 0 16975 8268" version="1.1">
<g id="surface363">
<path style=" stroke:none;fill-rule:nonzero;fill:rgb(0%,0%,0%);fill-opacity:1;" d="M 2852.664062 4.070312 C 2844.121094 7.730469 2838.628906 17.796875 2841.070312 26.339844 C 2842.289062 30 2853.886719 44.035156 2867.011719 57.460938 C 2880.121094 70.882812 2892.328125 84.921875 2894.160156 88.585938 C 2902.398438 104.757812 2895.992188 122.15625 2878.289062 130.996094 C 2850.53125 145.335938 2832.832031 167.925781 2827.640625 195.371094 C 2821.234375 227.71875 2839.238281 274.71875 2879.203125 332.078125 C 2947.5625 430.023438 2954.585938 442.84375 2945.121094 451.992188 C 2938.714844 458.40625 2910.03125 461.453125 2851.445312 461.453125 C 2728.171875 462.066406 2594.53125 441.320312 2477.96875 403.78125 C 2428.226562 387.613281 2418.460938 385.476562 2397.109375 385.476562 C 2353.769531 385.476562 2310.75 403.476562 2275.660156 435.828125 C 2242.09375 466.949219 2228.054688 497.15625 2241.179688 510.273438 C 2250.640625 519.738281 2258.570312 518.210938 2293.664062 501.117188 C 2344.015625 476.714844 2375.136719 471.523438 2399.550781 484.34375 L 2408.703125 488.914062 L 2401.375 503.257812 C 2392.53125 520.957031 2392.226562 528.585938 2400.15625 544.453125 C 2420.292969 583.5 2511.21875 607.914062 2685.449219 620.425781 C 2708.945312 621.949219 2733.054688 623.476562 2738.859375 623.476562 C 2748.921875 623.476562 2748.613281 623.785156 2726.648438 637.210938 C 2702.84375 652.164062 2689.109375 662.847656 2645.78125 700.988281 C 2607.347656 734.542969 2592.089844 744 2563.09375 751.015625 C 2487.414062 769.9375 2423.34375 831.582031 2387.949219 920.371094 C 2376.359375 949.355469 2376.359375 963.394531 2388.257812 964.617188 C 2394.96875 965.53125 2397.714844 963.394531 2404.433594 952.105469 C 2424.566406 917.320312 2456.601562 900.839844 2507.859375 898.703125 C 2536.855469 897.480469 2543.5625 898.398438 2566.152344 905.414062 C 2580.1875 909.6875 2595.449219 913.351562 2600.023438 913.351562 C 2618.316406 913.351562 2677.820312 888.9375 2726.34375 861.480469 L 2748.613281 848.65625 L 2739.160156 862.703125 C 2704.0625 913.65625 2692.773438 978.953125 2711.386719 1022.285156 C 2721.152344 1045.171875 2731.835938 1047.304688 2740.078125 1028.390625 C 2746.171875 1013.742188 2764.484375 994.210938 2786.136719 978.953125 L 2805.367188 965.226562 L 2823.066406 969.796875 C 2845.953125 975.597656 2867.925781 975.597656 2888.667969 969.492188 C 2911.25 962.785156 2919.796875 956.070312 2935.054688 932.273438 C 3001.867188 830.054688 3176.40625 771.769531 3457.429688 757.730469 C 3491.007812 756.207031 3523.636719 754.679688 3530.046875 754.679688 L 3541.644531 754.679688 L 3519.976562 781.226562 C 3459.570312 854.15625 3427.832031 922.8125 3408.601562 1020.152344 C 3395.789062 1086.054688 3400.058594 1078.734375 3371.386719 1084.53125 C 3323.167969 1094.296875 3276.488281 1097.042969 3142.53125 1098.554688 C 2801.09375 1102.523438 2318.078125 1066.835938 2143.84375 1024.726562 C 2073.363281 1007.636719 2027.898438 1005.503906 1942.460938 1014.351562 C 1800.578125 1029.308594 1593.691406 1089.109375 1416.109375 1166.613281 C 1357.523438 1192.246094 1340.433594 1201.703125 1312.066406 1224.59375 C 1280.328125 1249.90625 1240.351562 1271.265625 1208.007812 1280.117188 C 1186.960938 1285.609375 1172.011719 1286.832031 1081.988281 1288.664062 C 983.4375 1290.796875 978.859375 1291.105469 952.925781 1299.035156 C 920.890625 1308.492188 897.695312 1320.089844 872.972656 1338.097656 C 862.910156 1345.421875 849.796875 1353.355469 843.992188 1355.789062 C 764.355469 1387.222656 688.0625 1451.601562 640.472656 1528.1875 C 627.960938 1548.023438 599.890625 1605.699219 599.890625 1611.496094 C 599.890625 1619.722656 618.5 1633.148438 640.164062 1640.171875 C 668.242188 1649.320312 669.460938 1651.765625 664.277344 1691.738281 C 662.140625 1708.523438 660.003906 1724.085938 659.085938 1726.226562 C 658.171875 1728.359375 642.609375 1736.597656 624.296875 1744.523438 C 556.25 1774.117188 492.484375 1815.011719 411.324219 1881.832031 C 378.667969 1908.6875 371.953125 1915.402344 360.054688 1936.152344 C 328.023438 1991.988281 266.6875 2061.558594 209.320312 2107.636719 C 173.003906 2136.613281 104.054688 2182.085938 65.601562 2202.21875 C 28.984375 2221.445312 33.867188 2214.121094 15.257812 2280.328125 C 0.3125 2334.039062 -0.296875 2350.210938 9.460938 2417.640625 C 14.039062 2448.769531 20.449219 2482.328125 23.804688 2492.398438 C 32.035156 2517.730469 48.210938 2546.714844 68.042969 2571.117188 C 178.195312 2708.125 479.976562 2802.71875 872.972656 2823.765625 C 940.410156 2827.429688 1086.871094 2825.597656 1127.765625 2820.714844 C 1142.71875 2818.882812 1158.585938 2820.101562 1191.839844 2825.289062 C 1324.261719 2845.429688 1422.210938 2851.84375 1603.757812 2852.144531 C 1782.570312 2852.144531 1910.117188 2845.429688 2076.71875 2826.507812 C 2135.90625 2819.492188 2246.675781 2803.941406 2270.46875 2799.058594 C 2279.015625 2797.226562 2309.839844 2794.476562 2339.132812 2792.953125 C 2469.726562 2786.242188 2601.246094 2745.660156 2773.023438 2659.90625 C 2845.039062 2624.226562 2893.550781 2597.0625 2995.160156 2535.726562 C 3106.230469 2468.914062 3093.109375 2474.40625 3128.796875 2480.191406 C 3268.859375 2502.773438 3490.085938 2564.710938 3609.082031 2614.761719 C 3658.808594 2635.816406 3675.898438 2644.359375 3723.507812 2671.503906 C 3829.691406 2732.238281 3906.882812 2741.695312 4069.214844 2713.925781 C 4183.027344 2694.394531 4198.886719 2694.394531 4212.621094 2713.617188 C 4238.5625 2749.929688 4266.023438 2917.132812 4281.59375 3131.652344 L 4283.730469 3160.335938 L 4262.0625 3141.109375 C 4243.140625 3124.019531 4239.476562 3118.835938 4233.375 3101.4375 C 4224.21875 3074.894531 4197.972656 3047.730469 4172.960938 3038.578125 C 4145.804688 3028.820312 4099.730469 3030.039062 4064.941406 3041.324219 C 4028.949219 3053.226562 4010.03125 3065.738281 4008.808594 3078.863281 C 4007.585938 3090.453125 4012.164062 3093.511719 4034.121094 3096.558594 C 4082.640625 3102.964844 4101.867188 3110.59375 4112.246094 3127.679688 C 4115.601562 3133.175781 4124.453125 3154.84375 4131.765625 3175.882812 C 4139.398438 3196.9375 4148.859375 3220.4375 4152.828125 3228.679688 C 4159.84375 3242.40625 4161.972656 3251.261719 4161.0625 3263.46875 C 4160.453125 3274.761719 4143.671875 3279.03125 4107.363281 3277.203125 C 4056.699219 3275.0625 3983.171875 3256.753906 3851.65625 3214.332031 C 3761.039062 3184.734375 3716.179688 3180.152344 3674.066406 3195.71875 C 3633.195312 3210.976562 3604.5 3260.71875 3617.625 3294.585938 C 3622.8125 3308.316406 3631.054688 3309.839844 3647.515625 3300.382812 C 3661.25 3292.15625 3663.382812 3291.851562 3704.585938 3291.851562 C 3752.496094 3291.851562 3779.339844 3296.71875 3779.339844 3305.265625 C 3779.339844 3316.558594 3789.410156 3338.828125 3799.175781 3350.726562 C 3821.148438 3376.359375 3858.980469 3390.398438 3956.320312 3409.007812 C 4124.757812 3441.660156 4154.960938 3449.289062 4164.109375 3459.96875 C 4172.960938 3470.644531 4134.515625 3494.449219 4066.164062 3520.085938 C 4046.933594 3527.40625 3991.109375 3546.015625 3942.582031 3561.570312 C 3817.792969 3601.242188 3747.921875 3625.046875 3721.976562 3636.949219 C 3661.554688 3664.410156 3622.507812 3708.339844 3618.546875 3753.195312 C 3616.710938 3774.253906 3622.207031 3790.734375 3634.105469 3798.359375 C 3644.785156 3805.382812 3652.398438 3802.023438 3666.4375 3783.710938 C 3679.5625 3766.320312 3698.785156 3750.449219 3724.417969 3736.414062 C 3751.582031 3721.457031 3753.105469 3721.457031 3765.921875 3735.800781 C 3772.335938 3742.820312 3782.390625 3751.0625 3788.496094 3754.113281 C 3818.09375 3769.371094 3868.4375 3777 3907.496094 3772.421875 C 3931.910156 3769.671875 3937.089844 3767.539062 3999.957031 3735.800781 C 4076.230469 3697.046875 4123.234375 3676.308594 4165.632812 3662.574219 C 4283.730469 3624.742188 4350.242188 3638.472656 4370.386719 3704.984375 C 4378.007812 3730 4376.789062 3779.136719 4367.335938 3834.972656 C 4353.90625 3914.609375 4349.328125 3962.515625 4350.242188 4010.726562 C 4351.464844 4053.144531 4351.765625 4055.894531 4360.621094 4073.265625 C 4368.554688 4088.53125 4372.828125 4093.105469 4390.210938 4103.484375 C 4401.195312 4110.195312 4413.402344 4118.433594 4417.066406 4121.792969 C 4434.761719 4137.664062 4446.96875 4182.828125 4449.710938 4239.878906 C 4451.542969 4281.375 4453.984375 4287.171875 4466.191406 4283.511719 C 4470.464844 4281.988281 4476.265625 4273.746094 4482.976562 4259.101562 C 4498.535156 4225.230469 4502.5 4206.308594 4502.5 4163.90625 L 4502.5 4126.675781 L 4512.574219 4121.492188 C 4532.714844 4111.109375 4551.007812 4092.796875 4560.160156 4073.574219 C 4579.691406 4033.613281 4579.691406 4000.660156 4561.382812 3868.539062 C 4548.28125 3773.644531 4546.753906 3733.359375 4555.890625 3717.492188 C 4559.550781 3711.695312 4566.875 3704.371094 4572.675781 3701.625 C 4599.835938 3687.898438 4631.570312 3697.046875 4808.242188 3769.0625 C 4841.191406 3782.492188 4887.578125 3800.5 4911.375 3809.042969 C 4948.902344 3822.457031 4957.140625 3824.289062 4977.890625 3824.289062 C 5022.753906 3824.289062 5076.445312 3811.46875 5095.671875 3796.53125 C 5113.367188 3782.796875 5117.335938 3759.90625 5106.648438 3736.105469 C 5099.023438 3719.625 5068.820312 3689.722656 5047.164062 3677.53125 C 5028.554688 3667.15625 5026.414062 3660.75 5034.648438 3640.914062 C 5048.078125 3608.875 5074.921875 3601.242188 5137.476562 3610.703125 C 5167.078125 3614.976562 5178.671875 3613.449219 5181.421875 3604.601562 C 5185.996094 3590.253906 5158.535156 3561.570312 5124.960938 3545.40625 C 5107.265625 3536.871094 5102.074219 3535.953125 5077.664062 3535.953125 C 5052.960938 3535.953125 5048.078125 3536.871094 5030.382812 3545.714844 C 5008.714844 3556.382812 4975.757812 3586.289062 4959.578125 3610.398438 C 4954.394531 3618.027344 4949.8125 3624.742188 4949.511719 3625.351562 C 4948.902344 3625.960938 4937.914062 3618.332031 4924.804688 3608.875 C 4891.242188 3584.761719 4863.773438 3572.25 4822.890625 3563.398438 C 4752.09375 3547.847656 4720.058594 3521.304688 4705.71875 3466.675781 C 4701.445312 3450.207031 4701.445312 3448.984375 4710.292969 3421.21875 C 4731.957031 3352.558594 4750.566406 3261.9375 4760.332031 3175.882812 C 4776.8125 3029.429688 4776.8125 2830.171875 4760.03125 2658.996094 C 4757.585938 2633.375 4756.058594 2611.710938 4756.671875 2610.796875 C 4759.417969 2608.046875 5028.246094 2719.421875 5324.21875 2846.039062 C 5521.023438 2929.953125 5515.230469 2928.121094 5663.519531 2965.050781 C 6217.636719 3103.265625 6736.367188 3148.433594 7189.164062 3097.78125 C 7258.132812 3090.152344 7308.171875 3082.828125 7395.125 3067.261719 C 7432.96875 3060.246094 7475.386719 3053.53125 7489.726562 3052.3125 C 7509.566406 3050.480469 7523.585938 3046.507812 7550.4375 3035.523438 C 7569.359375 3027.902344 7586.140625 3021.796875 7587.671875 3022.40625 C 7591.332031 3023.628906 7560.507812 3062.078125 7522.363281 3104.796875 C 7506.207031 3122.796875 7489.726562 3143.550781 7485.453125 3150.875 C 7474.773438 3168.863281 7465.3125 3207.316406 7465.3125 3232.339844 C 7465.3125 3343.40625 7547.386719 3511.84375 7699.042969 3711.390625 C 7837.265625 3893.253906 8026.453125 4091.273438 8118.289062 4150.171875 C 8164.679688 4179.777344 8174.433594 4194.734375 8161.324219 4215.765625 C 8142.09375 4247.203125 8060.3125 4281.375 7956.878906 4301.519531 C 7934.90625 4305.789062 7913.546875 4309.449219 7909.273438 4309.449219 C 7905.007812 4309.449219 7894.332031 4305.484375 7885.488281 4300.601562 C 7876.945312 4295.414062 7858.632812 4287.785156 7845.203125 4283.210938 C 7811.328125 4271.609375 7761.90625 4270.695312 7727.726562 4281.375 C 7692.9375 4292.359375 7664.867188 4307.925781 7645.042969 4327.453125 C 7625.820312 4346.066406 7624.292969 4349.117188 7631.921875 4356.441406 C 7635.585938 4360.40625 7644.433594 4361.320312 7676.765625 4361.320312 C 7727.726562 4361.320312 7748.476562 4365.894531 7776.246094 4382.070312 L 7797.90625 4395.191406 L 7797.90625 4413.804688 C 7797.90625 4463.535156 7824.453125 4480.015625 7912.015625 4486.117188 C 7938.871094 4487.949219 7961.152344 4490.085938 7961.761719 4490.695312 C 7962.375 4491.304688 7954.4375 4498.628906 7943.753906 4506.5625 C 7933.078125 4514.5 7915.070312 4529.148438 7903.179688 4539.21875 C 7870.53125 4566.375 7853.441406 4573.394531 7790.277344 4585.585938 C 7726.804688 4597.792969 7698.125 4606.339844 7657.542969 4624.945312 C 7635.277344 4635.324219 7622.15625 4639.292969 7601.097656 4641.734375 C 7512.308594 4653.332031 7382.929688 4727.476562 7382.929688 4767.144531 C 7382.929688 4780.570312 7392.992188 4780.570312 7456.15625 4766.226562 C 7536.402344 4747.914062 7557.152344 4744.554688 7581.875 4747 C 7610.863281 4749.746094 7633.445312 4758.902344 7649.609375 4774.773438 C 7687.753906 4811.695312 7771.671875 4816.269531 7863.515625 4786.367188 C 7936.429688 4762.5625 7983.734375 4729 8011.5 4681.710938 C 8037.425781 4637.460938 8062.148438 4618.539062 8069.460938 4637.765625 C 8079.226562 4662.789062 8068.550781 4726.257812 8040.175781 4813.21875 C 8027.675781 4851.96875 8024.617188 4857.460938 7991.671875 4907.203125 C 7933.078125 4995.375 7915.070312 5038.101562 7922.699219 5070.140625 C 7930.328125 5101.882812 7930.023438 5104.609375 7919.953125 5132.382812 C 7907.445312 5167.171875 7901.957031 5194.328125 7899.515625 5232.164062 C 7896.464844 5283.417969 7905.621094 5319.429688 7921.78125 5319.429688 C 7929.414062 5319.429688 7945.28125 5300.207031 7960.234375 5273.351562 C 7980.375 5236.128906 7995.332031 5213.25 8015.160156 5189.445312 L 8033.164062 5167.472656 L 8061.230469 5166.257812 C 8096.320312 5164.425781 8113.105469 5157.101562 8136.601562 5133.296875 C 8175.347656 5094.253906 8199.148438 5026.503906 8218.988281 4898.964844 C 8227.832031 4842.207031 8229.355469 4836.714844 8245.53125 4799.1875 C 8268.414062 4745.777344 8281.539062 4720.152344 8296.179688 4699.109375 C 8310.523438 4678.65625 8323.640625 4669.503906 8339.210938 4669.503906 C 8356.296875 4669.503906 8377.960938 4693.003906 8398.101562 4732.046875 C 8411.835938 4759.203125 8413.96875 4765.921875 8417.023438 4793.082031 C 8441.414062 5000.257812 8463.695312 5138.488281 8481.699219 5193.414062 C 8491.773438 5224.234375 8508.554688 5235.519531 8526.257812 5223.316406 C 8532.363281 5219.046875 8532.96875 5219.65625 8542.429688 5242.539062 C 8561.640625 5288.914062 8564.382812 5300.507812 8563.164062 5328.585938 C 8561.640625 5357.882812 8553.714844 5377.402344 8532.96875 5402.429688 C 8517.101562 5421.652344 8512.832031 5430.804688 8518.015625 5436.910156 C 8523.203125 5443.015625 8537.851562 5442.710938 8560.421875 5435.6875 C 8609.25 5420.429688 8637.621094 5388.691406 8652.882812 5332.246094 C 8657.765625 5313.632812 8659.289062 5298.984375 8659.289062 5262.667969 L 8659.59375 5216.609375 L 8671.492188 5207.753906 C 8696.210938 5189.445312 8713.597656 5161.984375 8719.09375 5132.078125 C 8726.113281 5094.554688 8715.125 5056.109375 8661.425781 4928.867188 C 8623.28125 4838.851562 8598.261719 4774.773438 8579.644531 4719.84375 C 8561.640625 4666.757812 8545.484375 4612.132812 8545.484375 4603.898438 C 8545.484375 4584.984375 8580.253906 4524.570312 8603.445312 4503.820312 C 8625.414062 4483.980469 8637.3125 4479.097656 8667.226562 4477.875 C 8698.34375 4476.351562 8714.511719 4479.40625 8771.269531 4497.40625 C 8875.628906 4530.0625 8921.398438 4535.25 8994.015625 4521.820312 C 9109.351562 4500.460938 9168.851562 4477.265625 9175.265625 4451.035156 C 9178.617188 4437.910156 9169.160156 4424.179688 9145.058594 4406.78125 C 9132.542969 4397.632812 9122.46875 4389.394531 9122.46875 4388.175781 C 9122.167969 4385.734375 9155.125 4375.660156 9181.671875 4370.171875 C 9191.742188 4368.03125 9215.84375 4366.507812 9235.070312 4366.8125 C 9276.566406 4367.117188 9287.851562 4363.148438 9311.046875 4341.492188 C 9339.414062 4314.945312 9345.515625 4289.3125 9327.222656 4272.222656 C 9315.015625 4260.324219 9278.398438 4250.253906 9248.804688 4250.253906 C 9228.359375 4249.945312 9218.285156 4252.085938 9186.25 4262.765625 C 9103.554688 4290.226562 9097.144531 4291.140625 8999.808594 4292.667969 C 8915.292969 4294.195312 8911.632812 4293.886719 8883.5625 4286.871094 C 8855.789062 4279.851562 8774.019531 4250.558594 8723.976562 4229.503906 L 8699.875 4219.429688 L 8671.800781 4155.363281 C 8634.265625 4068.695312 8604.976562 4006.457031 8574.148438 3946.949219 C 8445.996094 3700.40625 8316.320312 3539.304688 8195.1875 3476.441406 L 8176.265625 3466.375 L 8207.695312 3448.679688 C 8327.921875 3382.15625 8417.632812 3311.976562 8602.226562 3140.5 C 8667.53125 3079.777344 8725.804688 3028.511719 8758.148438 3002.585938 L 8780.425781 2984.882812 L 8814.59375 3005.332031 C 8920.175781 3067.875 9013.847656 3108.148438 9089.511719 3122.796875 C 9143.53125 3133.175781 9188.992188 3130.429688 9267.109375 3111.507812 C 9336.671875 3094.734375 9373.59375 3103.265625 9494.429688 3163.691406 C 9715.957031 3274.453125 10005.515625 3472.171875 10236.191406 3670.515625 C 10315.84375 3738.851562 10359.773438 3779.746094 10440.332031 3860.605469 C 10577.03125 3997.613281 10693.890625 4133.695312 10928.234375 4426.925781 C 11340.160156 4943.203125 11339.550781 4942.289062 11446.039062 5066.480469 C 11568.398438 5209.28125 11691.363281 5337.742188 11772.226562 5407.921875 C 11792.359375 5425.3125 11836.304688 5466.5 11869.875 5499.453125 C 12023.65625 5650.492188 12244.570312 5834.1875 12565.566406 6077.984375 C 13018.070312 6421.558594 13592.929688 6816.703125 13981.367188 7051.035156 C 14011.566406 7069.039062 14057.648438 7098.945312 14083.589844 7116.953125 C 14439.980469 7364.109375 15112.480469 7695.476562 15889.960938 8007.015625 C 16125.820312 8101.296875 16247.265625 8146.765625 16306.449219 8162.023438 C 16443.160156 8197.117188 16810.84375 8258.746094 16927.09375 8265.761719 C 16958.210938 8267.59375 16960.351562 8267.59375 16966.757812 8261.1875 C 16974.6875 8253.25 16971.640625 8245.011719 16957.910156 8238 C 16938.082031 8227.628906 16809.320312 8175.449219 16634.476562 8106.792969 C 16498.6875 8053.40625 16130.703125 7907.546875 16071.203125 7883.4375 C 16069.375 7882.828125 16065.40625 7884.660156 16062.351562 7887.40625 C 16057.46875 7892.289062 16056.25 7892.289062 16040.082031 7885.570312 C 15942.429688 7845.910156 15651.347656 7683.277344 15346.828125 7498.671875 C 14785.992188 7158.761719 14232.183594 6784.96875 13734.210938 6410.570312 C 13631.386719 6333.371094 13604.53125 6311.105469 13563.339844 6271.429688 C 13472.402344 6183.554688 13412.300781 6129.253906 13166.671875 5912.90625 C 12983.589844 5751.796875 12875.878906 5652.015625 12742.847656 5520.816406 C 12386.453125 5169 12055.382812 4771.71875 11718.21875 4291.140625 C 11644.683594 4185.878906 11638.886719 4177.027344 11621.488281 4138.578125 C 11577.246094 4041.246094 11495.476562 3891.117188 11427.117188 3781.269531 C 11201.023438 3418.171875 10882.460938 3057.496094 10498.296875 2730.40625 C 10333.546875 2590.046875 10123.300781 2433.8125 9968.914062 2336.78125 C 9945.414062 2321.832031 9903 2292.226562 9874.316406 2271.183594 C 9685.445312 2129.917969 9459.332031 2004.1875 8997.066406 1783.273438 C 8915.601562 1744.523438 8833.207031 1704.253906 8813.984375 1693.570312 L 8778.902344 1674.648438 L 8773.40625 1647.1875 C 8756.621094 1564.8125 8707.808594 1461.675781 8630.605469 1345.722656 C 8613.824219 1320.699219 8600.394531 1299.644531 8600.394531 1299.035156 C 8600.394531 1298.421875 8608.328125 1301.777344 8618.089844 1306.660156 C 8645.554688 1320.398438 8690.109375 1334.125 8730.078125 1341.148438 C 8806.058594 1354.269531 8933 1342.367188 9078.835938 1308.1875 L 9122.46875 1298.117188 L 9171.90625 1263.941406 C 9286.9375 1184.3125 9381.226562 1101.914062 9406.25 1058.601562 C 9416.320312 1041.203125 9430.054688 1000.011719 9437.988281 964.3125 C 9441.648438 947.523438 9442.871094 931.050781 9442.261719 907.859375 C 9440.734375 866.96875 9432.804688 848.65625 9406.554688 824.566406 C 9367.1875 788.550781 9318.066406 757.730469 9299.757812 757.730469 C 9291.210938 757.730469 9277.789062 770.546875 9277.789062 778.785156 C 9277.789062 787.027344 9303.117188 836.464844 9313.792969 848.964844 L 9322.648438 859.644531 L 9310.132812 875.210938 C 9303.117188 884.058594 9291.515625 899.621094 9284.1875 909.996094 C 9264.667969 937.148438 9245.75 946.609375 9229.273438 937.757812 C 9226.21875 936.242188 9211.269531 932.273438 9196.015625 928.917969 C 9126.75 913.65625 9068.78125 865.140625 9005.914062 769.019531 C 8965.632812 707.703125 8911.328125 594.789062 8898.824219 547.507812 C 8891.5 518.820312 8887.226562 510.882812 8873.796875 499.289062 C 8864.335938 490.742188 8834.429688 477.015625 8825.273438 477.015625 C 8803.617188 477.015625 8778.59375 457.183594 8756.320312 422.398438 C 8748.085938 409.273438 8738.925781 397.675781 8736.179688 396.765625 C 8725.195312 392.492188 8718.480469 401.949219 8714.820312 425.753906 C 8711.773438 446.503906 8717.871094 472.4375 8734.351562 507.53125 C 8748.691406 537.742188 8749.914062 542.011719 8754.488281 583.804688 C 8757.230469 607.914062 8760.28125 629.273438 8761.503906 631.109375 C 8762.421875 632.632812 8749.609375 620.425781 8732.820312 603.640625 C 8716.039062 586.855469 8692.546875 564.28125 8680.65625 553 C 8664.476562 537.742188 8658.679688 530.414062 8656.542969 520.957031 C 8654.101562 511.191406 8652.269531 509.054688 8646.167969 509.054688 C 8639.757812 509.054688 8638.234375 511.496094 8633.652344 530.113281 C 8630.605469 542.011719 8626.023438 557.574219 8622.972656 564.898438 C 8618.398438 577.40625 8617.480469 578.328125 8608.636719 576.492188 C 8585.445312 571.914062 8564.382812 552.085938 8532.664062 504.476562 C 8522.597656 489.523438 8517.714844 484.34375 8511.304688 483.730469 C 8499.40625 482.203125 8495.433594 491.660156 8497.265625 516.988281 C 8500.007812 553.914062 8529.921875 605.167969 8580.5625 659.488281 C 8600.09375 680.234375 8601.3125 682.980469 8605.277344 703.730469 C 8610.773438 731.1875 8614.132812 780.921875 8611.382812 794.65625 C 8607.417969 815.101562 8605.277344 815.101562 8587.578125 795.875 C 8513.4375 713.488281 8482.3125 684.507812 8463.085938 678.707031 C 8452.710938 675.660156 8446.605469 675.96875 8427.6875 680.234375 C 8386.8125 689.082031 8363.3125 679.316406 8341.648438 644.839844 C 8329.445312 625.609375 8322.117188 620.726562 8314.492188 626.832031 C 8307.46875 632.9375 8310.523438 672.304688 8319.679688 691.832031 C 8328.832031 711.046875 8357.21875 741.257812 8380.097656 756.507812 C 8389.554688 762.613281 8401.761719 770.855469 8406.953125 774.210938 C 8420.992188 783.367188 8497.265625 852.628906 8495.433594 854.460938 C 8492.992188 857.203125 8351.113281 867.277344 8229.355469 873.6875 C 8147.894531 877.953125 8099.371094 881.617188 8076.789062 885.882812 C 7931.546875 912.128906 7861.074219 971.015625 7841.84375 1081.792969 C 7837.882812 1105.269531 7837.265625 1129.992188 7838.183594 1227.015625 C 7839.101562 1328.023438 7838.484375 1344.199219 7834.523438 1346.945312 C 7831.777344 1348.773438 7811.9375 1349.386719 7782.648438 1348.773438 C 7725.28125 1347.25 7692.632812 1341.757812 7488.203125 1300.558594 C 7307.867188 1263.941406 7238.300781 1250.515625 7122.046875 1230.679688 C 6530.085938 1129.382812 5873.445312 1065.308594 5179.890625 1041.507812 C 4944.628906 1033.578125 4790.851562 1031.75 4386.546875 1032.96875 C 3965.777344 1033.878906 3960.894531 1033.878906 3948.6875 1027.78125 C 3937.089844 1021.984375 3936.480469 1020.761719 3935.566406 1006.417969 C 3934.957031 993.90625 3939.226562 978.648438 3957.84375 924.335938 C 3975.238281 873.378906 3980.734375 853.238281 3980.734375 841.03125 C 3980.734375 818.460938 3988.667969 782.753906 3999.34375 754.984375 C 4004.535156 742.171875 4023.457031 700.988281 4041.75 663.148438 C 4060.667969 623.785156 4078.367188 582.886719 4082.949219 567.03125 C 4100.039062 507.832031 4090.578125 454.125 4056.09375 416.90625 C 4032.898438 391.574219 3997.210938 376.929688 3939.839844 368.382812 C 3888.886719 360.757812 3761.957031 364.117188 3629.835938 376.015625 C 3501.375 387.910156 3433.015625 388.21875 3422.03125 377.238281 C 3420.8125 376.015625 3425.695312 365.945312 3433.324219 354.957031 C 3466.894531 307.066406 3482.152344 263.121094 3479.710938 220.699219 C 3478.796875 205.136719 3476.050781 190.503906 3473 184.707031 C 3468.417969 175.554688 3468.417969 174.03125 3474.21875 156.632812 C 3490.085938 109.945312 3474.828125 47.085938 3443.703125 30.609375 C 3435.15625 26.035156 3431.492188 25.425781 3424.472656 28.171875 C 3412.882812 32.742188 3408.300781 44.945312 3402.808594 87.667969 C 3396.09375 138.015625 3391.515625 145.035156 3350.632812 165.484375 C 3315.550781 182.875 3287.167969 210.632812 3237.429688 275.9375 C 3180.671875 350.695312 3166.640625 361.976562 3133.984375 361.976562 C 3104.097656 361.976562 3075.710938 343.671875 3047.027344 305.539062 C 3014.378906 262.203125 2989.96875 205.136719 2975.632812 138.015625 C 2966.789062 95.601562 2958.859375 74.238281 2943.597656 50.75 C 2920.40625 14.75 2879.203125 -6.617188 2852.664062 4.070312 Z M 2852.664062 4.070312 "/>
</g>
</svg>
