<?xml version="1.0" encoding="UTF-8"?>
<svg xmlns="http://www.w3.org/2000/svg" xmlns:xlink="http://www.w3.org/1999/xlink" width="14568pt" height="14568pt" viewBox="0 0 14568 14568" version="1.1">
<g id="surface303">
<path style=" stroke:none;fill-rule:nonzero;fill:rgb(0%,0%,0%);fill-opacity:1;" d="M 7284 910.5 C 7639.660156 910.5 7969.746094 1092.609375 8160.320312 1394.164062 L 14323.3125 11221.921875 C 14482.601562 11475.117188 14568 11768.203125 14568 12066.996094 C 14568 12946.210938 13856.710938 13657.5 12977.496094 13657.5 L 1590.503906 13657.5 C 711.289062 13657.5 0 12946.210938 0 12066.996094 C 0 11768.203125 85.398438 11475.117188 244.6875 11221.921875 L 6407.679688 1394.164062 C 6595.445312 1092.609375 6928.339844 910.5 7284 910.5 Z M 9133.414062 6373.5 L 7284 3425.765625 L 5033.355469 7013.691406 L 5554.085938 7707.949219 C 5736.140625 7949.8125 6100.359375 7949.8125 6282.414062 7707.949219 L 7010.859375 6737.664062 C 7181.578125 6507.257812 7451.847656 6373.5 7739.25 6373.5 Z M 9133.414062 6373.5 "/>
</g>
</svg>
