<?xml version="1.0" encoding="UTF-8"?>
<svg xmlns="http://www.w3.org/2000/svg" xmlns:xlink="http://www.w3.org/1999/xlink" width="310806pt" height="78124pt" viewBox="0 0 310806 78124" version="1.1">
<g id="surface358">
<path style=" stroke:none;fill-rule:nonzero;fill:rgb(0%,0%,0%);fill-opacity:1;" d="M 84179.28125 213.417969 C 83534.003906 262.089844 82389.265625 331.421875 81646.839844 373.0625 C 80904.535156 414.570312 80106.40625 484.109375 79877.4375 525.605469 C 79648.53125 574.179688 79072.714844 615.90625 78594 629.78125 C 78115.113281 636.511719 77574.003906 685.121094 77379.726562 733.671875 C 77192.410156 775.253906 76456.980469 823.945312 75748.980469 830.78125 C 75041.394531 837.832031 74319.734375 865.492188 74146.492188 893.355469 C 73966.011719 927.992188 73466.46875 955.738281 73036.292969 969.558594 C 72140.988281 997.324219 72148 997.324219 71724.972656 1087.542969 C 71551.355469 1122.191406 70975.234375 1163.835938 70434.441406 1177.773438 C 69899.933594 1191.679688 69372.707031 1240.253906 69268.695312 1281.84375 C 69164.515625 1316.5625 68914.808594 1330.398438 68713.605469 1309.636719 C 68477.558594 1281.84375 68200.1875 1302.683594 67915.625 1379.070312 C 67679.6875 1441.445312 67367.5 1490.078125 67228.5625 1490.078125 C 67089.90625 1490.078125 66777.777344 1538.652344 66534.886719 1594.101562 C 66229.613281 1670.535156 66055.832031 1677.34375 65965.824219 1628.808594 C 65632.933594 1448.417969 64161.839844 1614.949219 63801.011719 1864.542969 C 63599.722656 2003.308594 63273.757812 2003.308594 62829.691406 1864.542969 C 62531.398438 1760.636719 62357.839844 1753.636719 61636.285156 1816.152344 C 60880.152344 1871.53125 60748.417969 1906.261719 60276.191406 2135.292969 C 59790.484375 2378.167969 59714.121094 2391.894531 59166.191406 2378.167969 C 58167.0625 2357.253906 57355.246094 2433.671875 56876.585938 2593.222656 C 56217.121094 2815.613281 55703.765625 2850.1875 55419.382812 2704.5 C 55245.808594 2614.023438 55030.710938 2586.144531 54579.820312 2593.222656 C 53913.675781 2593.222656 53656.933594 2641.964844 53434.992188 2787.78125 C 53324.035156 2857.074219 53240.734375 2864.058594 53074.34375 2801.539062 C 52942.480469 2759.929688 52463.589844 2739.195312 51797.476562 2759.929688 C 50888.507812 2787.78125 50687.253906 2815.613281 50444.445312 2933.488281 C 50173.816406 3072.203125 50146.058594 3078.726562 49771.566406 2968.078125 C 49396.714844 2864.058594 49368.980469 2864.058594 48987.292969 3009.875 C 48688.902344 3127.339844 48383.804688 3168.894531 47759.199219 3196.714844 C 47301.484375 3217.574219 46711.441406 3266.472656 46440.925781 3301.042969 C 45837.296875 3391.285156 45816.527344 3391.285156 45427.804688 3301.042969 C 44983.96875 3196.714844 44262.292969 3210.582031 43311.664062 3328.757812 C 42853.902344 3384.304688 42277.988281 3432.996094 42028.148438 3432.996094 C 41778.140625 3432.996094 41438.097656 3467.550781 41264.761719 3509.195312 C 41091.179688 3550.792969 40466.792969 3592.515625 39877.007812 3613.308594 C 37990.003906 3668.910156 36387.105469 3759.011719 35117.363281 3883.855469 C 34971.679688 3897.75 34548.367188 3925.574219 34187.667969 3953.339844 C 33826.898438 3981.070312 33431.488281 4043.515625 33313.253906 4092.085938 C 33174.585938 4147.570312 32924.710938 4168.511719 32591.742188 4140.742188 C 32182.488281 4112.910156 32036.585938 4133.71875 31849.164062 4230.800781 C 31627.121094 4355.671875 31592.753906 4355.671875 31134.644531 4244.695312 C 30746.011719 4154.636719 30614.125 4147.570312 30461.621094 4210.105469 C 30253.546875 4300.105469 29066.992188 4411.09375 28393.914062 4411.09375 C 28164.941406 4404.207031 27825.09375 4452.746094 27630.792969 4508.257812 C 27443.433594 4556.785156 27026.988281 4619.347656 26721.988281 4633.195312 C 26277.6875 4660.984375 26062.449219 4709.585938 25722.484375 4876.179688 C 25333.992188 5070.332031 25243.875 5084.15625 24834.394531 5049.550781 C 24404.277344 5014.851562 24355.6875 5028.640625 24168.546875 5195.136719 C 23904.789062 5444.886719 23648.136719 5486.703125 23356.546875 5333.957031 C 22877.984375 5077.125 21621.910156 5229.898438 21018.304688 5625.253906 C 20830.871094 5750.285156 20740.804688 5764.105469 20532.605469 5715.550781 C 20123.292969 5618.441406 19734.789062 5646.136719 19297.617188 5791.90625 C 19075.621094 5868.296875 18784.253906 5930.578125 18652.402344 5930.578125 C 18520.515625 5930.578125 18222.222656 5958.320312 17993.324219 5993.128906 C 17757.523438 6034.671875 17271.382812 6097.09375 16910.753906 6145.695312 C 16549.929688 6187.347656 16001.8125 6291.621094 15696.609375 6381.742188 C 15391.292969 6465.09375 14843.082031 6603.792969 14482.390625 6687.128906 C 14121.691406 6770.0625 13670.417969 6902.113281 13476.140625 6971.46875 C 12130.03125 7471.050781 11623.625 7637.636719 10638.414062 7887.390625 C 10020.644531 8039.855469 9306.167969 8220.429688 9035.628906 8296.710938 C 8771.828125 8366.101562 8161.429688 8518.8125 7682.539062 8636.761719 C 6606.910156 8900.460938 5205.53125 9323.617188 4664.46875 9538.734375 C 3672.222656 9941.171875 2853.214844 10371.421875 2333.027344 10766.808594 C 1722.308594 11238.703125 931.492188 12085.089844 494.355469 12744.402344 C 216.699219 13153.648438 182.074219 13257.8125 175.117188 13611.648438 C 168.144531 14028.074219 286.171875 14360.964844 730.269531 15131.277344 C 980.035156 15561.167969 1417.03125 16144.097656 1548.78125 16220.496094 C 1604.296875 16248.195312 1646.023438 16317.578125 1646.023438 16366.167969 C 1646.023438 16414.746094 1722.308594 16532.585938 1812.527344 16629.703125 C 1895.976562 16726.789062 2041.550781 16921.160156 2124.765625 17059.898438 C 2214.980469 17198.683594 2333.027344 17351.640625 2395.28125 17400.207031 C 2457.78125 17441.820312 2610.34375 17663.773438 2721.363281 17892.621094 C 3040.535156 18517.261719 3304.496094 18767.203125 3644.058594 18767.203125 C 3887.261719 18767.203125 3914.882812 18787.839844 3887.261719 18905.867188 C 3838.671875 19093.082031 4588.113281 19911.769531 5309.4375 20445.929688 C 5628.726562 20681.863281 5920.167969 20931.730469 5954.953125 20994.136719 C 5989.605469 21056.550781 6246.207031 21292.445312 6530.523438 21521.433594 C 8182.167969 22826.082031 8272.472656 22846.71875 9347.886719 22340.457031 C 9965.171875 22048.640625 10041.554688 22027.886719 10596.84375 22027.886719 C 11387.746094 22027.886719 12324.21875 22139.089844 12942.078125 22305.664062 C 13219.574219 22382.070312 13531.667969 22444.472656 13635.742188 22444.472656 C 13739.804688 22444.472656 13934.113281 22506.964844 14066.195312 22576.34375 C 14517.050781 22826.082031 14725.132812 22909.25 15002.726562 22957.839844 C 15155.316406 22985.617188 15467.507812 23096.542969 15696.609375 23207.59375 C 15925.445312 23311.597656 16313.902344 23436.625 16563.738281 23478.125 C 17188.1875 23596.136719 17479.621094 23686.40625 17639.511719 23838.800781 C 17840.703125 24019.261719 18256.832031 24178.917969 18520.515625 24178.917969 C 18909.039062 24178.917969 19727.84375 24428.730469 19977.5625 24616.039062 C 20102.550781 24713.144531 20352.25 24831.148438 20532.605469 24865.875 C 20816.957031 24935.175781 21510.882812 24914.441406 21871.535156 24838.011719 C 21947.882812 24824.226562 22308.78125 24921.355469 22669.84375 25059.9375 C 23259.429688 25288.96875 23398.199219 25316.703125 23995.023438 25316.703125 C 24640.175781 25323.71875 24667.828125 25330.703125 24910.800781 25545.820312 C 25188.367188 25788.714844 25521.316406 25878.875 25937.605469 25823.390625 C 26243.019531 25781.730469 26402.644531 25858.109375 27033.917969 26336.785156 C 27526.6875 26711.503906 27762.746094 26815.417969 28144.15625 26815.417969 L 28491.140625 26815.417969 L 28657.632812 27190.328125 C 28810.332031 27523.050781 28858.875 27571.832031 29191.722656 27689.851562 C 29386.011719 27759.128906 29663.722656 27911.90625 29802.492188 28029.808594 C 29948.222656 28147.773438 30170.285156 28314.273438 30302.027344 28397.527344 C 30440.738281 28473.882812 30628.222656 28612.734375 30718.28125 28689.03125 C 31724.316406 29556.351562 32258.703125 30083.636719 32786.109375 30735.824219 C 32945.554688 30923.167969 33236.886719 31283.863281 33452.195312 31533.714844 C 33660.441406 31783.460938 33972.582031 32185.941406 34146.011719 32435.6875 C 34319.503906 32685.480469 34631.796875 33081.085938 34846.699219 33323.992188 C 35054.949219 33566.929688 35228.394531 33802.671875 35228.394531 33844.144531 C 35228.394531 33892.902344 35394.6875 34163.5625 35596.011719 34454.871094 C 35790.292969 34746.335938 36081.777344 35169.492188 36227.375 35391.519531 C 37115.765625 36723.894531 37462.710938 37209.605469 37920.449219 37771.53125 C 38080.183594 37972.714844 38212.074219 38160.042969 38212.074219 38194.753906 C 38212.074219 38222.550781 38281.3125 38319.695312 38371.542969 38409.921875 C 38461.839844 38499.945312 38760.148438 38826.101562 39037.546875 39131.304688 C 39988.152344 40172.132812 41160.75 41323.765625 41306.695312 41358.457031 C 41389.496094 41379.246094 41597.738281 41559.972656 41764.332031 41761.128906 C 41938.011719 41955.484375 42312.769531 42274.507812 42590.09375 42461.910156 C 42874.566406 42649.261719 43214.625 42885.097656 43346.410156 42996.152344 C 43700.3125 43280.71875 43672.515625 43266.773438 44352.402344 43710.707031 C 44699.367188 43932.707031 45337.46875 44328.292969 45774.871094 44584.824219 C 47016.894531 45313.683594 47051.671875 45348.253906 47231.988281 45840.890625 C 47322.222656 46083.71875 47447.167969 46368.332031 47509.414062 46486.230469 C 47898.003906 47145.382812 48550.382812 49081.277344 48550.382812 49566.898438 C 48550.382812 49691.703125 48592.054688 50004.03125 48647.542969 50260.820312 C 48702.773438 50510.515625 48786.042969 50905.78125 48827.699219 51134.851562 C 48876.285156 51364.078125 48938.710938 51690.109375 48973.503906 51863.746094 C 49077.441406 52342.269531 49070.546875 53667.480469 48966.492188 53910.425781 C 48910.996094 54021.457031 48848.503906 54305.765625 48827.699219 54534.769531 C 48772.070312 54964.867188 48661.429688 55325.710938 48342.125 56096.113281 C 48238.050781 56345.882812 48099.179688 56734.425781 48036.703125 56963.234375 C 47967.445312 57192.269531 47870.328125 57455.96875 47807.824219 57546.1875 C 47752.335938 57636.355469 47592.597656 58011 47461.039062 58378.6875 C 46475.597656 61112.597656 46447.761719 61216.675781 46364.523438 63069.152344 C 46343.707031 63561.683594 46274.425781 64297.113281 46212.175781 64699.734375 C 46114.898438 65351.894531 45816.527344 66441.46875 45636.199219 66816.074219 C 45517.992188 67058.847656 44942.339844 68862.878906 44942.339844 68987.664062 C 44942.339844 69057.089844 44851.996094 69251.339844 44748.03125 69424.828125 C 44498.183594 69820.285156 44248.398438 70305.871094 44248.398438 70396.078125 C 44248.398438 70493.285156 43513.007812 71478.527344 43283.902344 71693.59375 C 42964.847656 71992.160156 42590.09375 72075.355469 41091.179688 72200.296875 C 40633.410156 72235.050781 40196.164062 72304.425781 40120.066406 72346.054688 C 39766.042969 72547.277344 38975.023438 72679.113281 37934.484375 72713.6875 C 36081.777344 72776.078125 35415.597656 72817.808594 35339.179688 72873.296875 C 35131.300781 73025.832031 34284.8125 73317.429688 33591.011719 73469.839844 C 32584.828125 73691.957031 32043.441406 73879.304688 31426.039062 74212.359375 C 30281.28125 74822.957031 29330.570312 75780.640625 29330.570312 76321.765625 C 29330.570312 76738.09375 29490.199219 76765.796875 30447.582031 76557.710938 C 30794.648438 76481.304688 30857.105469 76481.304688 30961.308594 76585.347656 C 31100.035156 76731.011719 31287.359375 76731.011719 31724.316406 76606.246094 C 32161.425781 76467.394531 32758.320312 76398.023438 32966.472656 76453.464844 C 33084.226562 76481.304688 33181.390625 76592.332031 33271.695312 76793.601562 C 33493.800781 77300.054688 34090.425781 77695.542969 34798.339844 77820.367188 C 35346.261719 77917.441406 38850.378906 77959.253906 39738.335938 77876.027344 C 40140.710938 77841.222656 40612.476562 77778.707031 40785.929688 77730.222656 C 41035.78125 77674.625 41264.761719 77674.625 41791.988281 77743.980469 C 42937.132812 77896.730469 43388.03125 77903.644531 43922.132812 77785.730469 C 44366.222656 77688.492188 45719.421875 77619.191406 47648.222656 77598.394531 C 48224.152344 77591.367188 48668.363281 77473.609375 49035.800781 77230.644531 C 49431.460938 76966.972656 50215.371094 76564.617188 50319.550781 76564.617188 C 50375.085938 76564.617188 50520.742188 76481.304688 50645.65625 76370.363281 C 50770.488281 76266.222656 50985.707031 76127.59375 51117.554688 76065.140625 C 51499.078125 75891.675781 52595.3125 75038.308594 52893.894531 74684.160156 C 53039.601562 74503.710938 53289.3125 74198.425781 53442.054688 73997.253906 C 53594.515625 73796.175781 53823.441406 73511.640625 53948.34375 73372.898438 C 54066.367188 73227.105469 54170.421875 73088.328125 54170.421875 73060.59375 C 54170.421875 73032.804688 54232.894531 72928.863281 54309.273438 72817.808594 C 54420.246094 72658.15625 54600.6875 72262.785156 55211.167969 70840.242188 C 55419.382812 70354.484375 55807.910156 69556.585938 55995.539062 69251.339844 C 56113.132812 69057.089844 56279.621094 68758.839844 56369.804688 68585.265625 C 56459.925781 68411.769531 56612.820312 68148.03125 56703.128906 67995.445312 C 56800.34375 67842.671875 56952.878906 67579.167969 57050.109375 67405.726562 C 57147.210938 67232.222656 57285.773438 67017.203125 57355.246094 66919.976562 C 57424.617188 66822.890625 57695.277344 66434.496094 57945.066406 66052.769531 C 58611.054688 65053.542969 58715.066406 64914.863281 59013.457031 64526.003906 C 59159.207031 64331.792969 59353.488281 64061.519531 59436.71875 63922.570312 C 59520.023438 63783.78125 59610.296875 63658.878906 59644.941406 63644.933594 C 59672.589844 63631.03125 59783.519531 63499.273438 59887.53125 63346.714844 C 60387.277344 62590.585938 60762.246094 62090.960938 61282.246094 61438.75 C 61518.40625 61154.257812 61754.292969 60841.761719 61816.699219 60744.546875 C 61879.246094 60647.382812 62080.429688 60370.265625 62260.644531 60134.074219 C 62447.996094 59898.242188 62725.59375 59509.589844 62878.308594 59273.632812 C 63031.003906 59030.917969 63315.355469 58628.46875 63516.480469 58378.6875 C 63717.648438 58128.875 63932.847656 57802.925781 63995.316406 57650.316406 C 64057.828125 57504.640625 64196.628906 57192.269531 64300.59375 56963.234375 C 64404.777344 56734.425781 64515.839844 56470.828125 64543.605469 56373.683594 C 64571.070312 56276.546875 64619.695312 56165.441406 64654.273438 56123.820312 C 64688.984375 56082.152344 64820.800781 55741.929688 64952.671875 55360.40625 C 65133.257812 54833.183594 65209.5 54458.355469 65279.019531 53750.703125 C 65376.101562 52730.992188 65376.101562 52730.992188 65882.515625 52946.101562 C 66493.238281 53209.558594 66992.679688 53403.765625 67284.101562 53494.0625 C 67631.167969 53591.289062 67922.523438 53695.269531 68408.117188 53889.582031 C 68588.671875 53958.871094 68789.816406 54014.46875 68866.214844 54014.46875 C 68935.675781 54014.46875 69351.851562 54153.167969 69788.804688 54319.683594 C 70794.9375 54708.179688 73202.703125 55471.890625 74049.238281 55672.613281 C 74243.59375 55714.164062 74625 55825.21875 74902.585938 55908.5 C 75402.476562 56054.324219 75416.371094 56061.453125 75568.539062 56408.441406 C 75908.894531 57150.695312 75943.621094 57400.457031 75998.953125 59530.464844 C 76020.007812 60480.953125 76068.375 61390.136719 76103.132812 61542.871094 C 76137.828125 61695.359375 76165.5625 61959.007812 76165.5625 62125.546875 C 76165.5625 62451.785156 76339.054688 63422.875 76456.980469 63763.035156 C 76491.746094 63873.988281 76616.589844 64186.148438 76720.636719 64456.753906 C 76824.625 64720.582031 76998.058594 65143.777344 77095.183594 65393.472656 C 77247.925781 65782.199219 77414.519531 66586.96875 77435.132812 67024.117188 C 77435.132812 67100.523438 77414.519531 67891.304688 77386.679688 68779.597656 L 77338.152344 70396.078125 L 77123.085938 70757.117188 C 77011.945312 70958.308594 76644.375 71374.695312 76318.191406 71693.59375 C 75721.207031 72269.683594 75485.582031 72394.609375 75020.539062 72401.59375 C 73535.804688 72415.484375 72571.40625 72450.101562 72495.050781 72498.746094 C 72265.96875 72644.289062 71773.554688 72685.953125 69886.125 72741.40625 L 67873.890625 72796.90625 L 67402.089844 73018.980469 C 67138.378906 73136.863281 66479.386719 73338.203125 65944.878906 73469.839844 C 64196.628906 73893.199219 63412.4375 74274.769531 62496.609375 75148.914062 C 61886.238281 75732.105469 61615.582031 76162.160156 61691.972656 76446.65625 C 61754.292969 76696.453125 61983.292969 76744.929688 62531.398438 76606.246094 C 63086.46875 76467.394531 63218.171875 76467.394531 63336.082031 76606.246094 C 63433.109375 76731.011719 63523.472656 76724.171875 64446.414062 76529.898438 C 65181.792969 76377.230469 65514.894531 76418.949219 65577.433594 76675.582031 C 65646.773438 76953.101562 66160.035156 77459.734375 66548.765625 77633.035156 C 67110.667969 77889.675781 67929.394531 77945.167969 70406.390625 77924.410156 C 72265.96875 77903.644531 72724.160156 77876.027344 73029.476562 77778.707031 C 73383.09375 77674.625 73480.320312 77667.632812 74292.132812 77778.707031 C 75464.910156 77931.460938 75762.859375 77945.167969 76103.132812 77876.027344 C 76311.375 77841.222656 77171.558594 77813.472656 78038.863281 77820.367188 C 79995.390625 77834.207031 81237.511719 77771.84375 81619.183594 77639.890625 C 81917.523438 77535.835938 82923.4375 76904.695312 83263.433594 76599.253906 C 83367.488281 76502.097656 83520.195312 76425.71875 83596.535156 76425.71875 C 83672.742188 76425.71875 83818.707031 76335.632812 83922.90625 76224.695312 C 84026.90625 76120.691406 84165.363281 76002.671875 84227.710938 75967.921875 C 84290.214844 75933.347656 84630.371094 75641.765625 84977.320312 75322.460938 C 85643.457031 74711.933594 86025.175781 74205.222656 86441.429688 73400.625 C 86580.066406 73130.085938 86753.519531 72817.808594 86822.957031 72706.792969 C 87239.378906 72096.269531 87461.410156 71166.523438 87544.601562 69688.414062 C 87634.949219 68148.03125 87801.238281 66365.042969 87898.277344 65900.210938 C 87939.894531 65698.769531 87953.71875 65511.492188 87933.101562 65476.71875 C 87898.277344 65421.25 87926.027344 65220.324219 88210.730469 63520.089844 C 88273.078125 63117.695312 88335.578125 62694.511719 88342.601562 62583.46875 C 88356.335938 62465.507812 88411.898438 62063.152344 88467.40625 61681.453125 C 88633.886719 60668.382812 88724.15625 59752.484375 88737.984375 59065.75 C 88744.96875 58725.652344 88772.625 58420.4375 88800.460938 58378.6875 C 88828.308594 58323.1875 89057.082031 58337.078125 89598.367188 58413.40625 C 90805.640625 58593.847656 91811.765625 58725.652344 92852.503906 58836.714844 C 93386.664062 58899.140625 93962.660156 58975.484375 94136.027344 59017.039062 C 94406.644531 59086.496094 95024.480469 59176.710938 96148.535156 59322.21875 C 96321.828125 59343.179688 96682.570312 59405.496094 96946.328125 59461.101562 C 97216.863281 59509.589844 97806.558594 59606.738281 98264.515625 59669.234375 C 98722.238281 59731.65625 99284.386719 59828.742188 99513.324219 59884.289062 C 99742.648438 59932.929688 100179.703125 59995.292969 100484.976562 60022.964844 C 100790.273438 60050.777344 101116.265625 60099.339844 101213.4375 60140.980469 C 101310.585938 60182.707031 101560.324219 60238.199219 101768.53125 60265.980469 C 102441.351562 60356.503906 103038.222656 60460.226562 103572.621094 60577.953125 C 103856.9375 60640.519531 104252.398438 60716.886719 104439.925781 60744.546875 C 104634.171875 60772.359375 105133.65625 60862.570312 105550.003906 60939.238281 C 105973.207031 61015.378906 106472.710938 61098.753906 106660.160156 61119.597656 C 106854.484375 61147.359375 107333.015625 61209.695312 107735.675781 61265.300781 C 108138.050781 61320.800781 108686.089844 61397.210938 108949.761719 61431.71875 C 109220.410156 61466.53125 109872.507812 61563.75 110407.015625 61646.839844 C 112321.859375 61938.144531 113987.0625 62139.496094 115562.410156 62271.203125 C 115992.425781 62306.003906 116374.046875 62354.421875 116422.542969 62382.199219 C 116464.222656 62410.070312 116998.445312 62458.605469 117615.949219 62493.308594 C 118233.25 62528.035156 118892.527344 62569.667969 119080.195312 62590.585938 C 119725.304688 62652.878906 124041.203125 62618.242188 124686.351562 62541.90625 C 125033.257812 62500.238281 125872.683594 62458.605469 126539.058594 62444.71875 C 127204.972656 62424.003906 128037.457031 62382.199219 128377.5625 62340.765625 C 128724.578125 62292.148438 129348.945312 62250.433594 129765.265625 62229.726562 C 130188.714844 62215.761719 131028.136719 62174.140625 131638.660156 62146.410156 C 132249.238281 62111.742188 133144.199219 62097.761719 133623.238281 62118.726562 C 134587.691406 62153.386719 135787.898438 62056.257812 136599.519531 61868.953125 C 136897.941406 61799.390625 137335.136719 61757.832031 137633.445312 61771.628906 C 137917.800781 61778.679688 138542.652344 61736.910156 139021.214844 61681.453125 C 139500.132812 61619.257812 140270.203125 61529.019531 140728.164062 61480.371094 C 141186.015625 61424.910156 141609.183594 61369.414062 141664.71875 61341.660156 C 141720.238281 61320.800781 142192.125 61237.425781 142705.570312 61154.257812 C 143996.113281 60953.089844 144218.21875 60918.328125 144613.691406 60814.039062 C 145175.640625 60661.300781 147784.492188 59842.71875 147923.28125 59766.308594 C 147999.636719 59724.816406 148187.019531 59655.265625 148346.554688 59599.832031 C 148506.316406 59551.199219 148859.917969 59426.433594 149123.582031 59322.21875 C 149394.429688 59218.132812 149727.472656 59093.425781 149873.121094 59037.949219 C 150233.902344 58899.140625 152204.3125 57913.957031 152426.304688 57754.425781 L 152606.597656 57622.527344 L 152662.105469 57955.5625 C 152682.984375 58135.96875 152703.871094 58357.921875 152696.78125 58455.082031 C 152648.382812 58975.484375 152696.78125 61008.589844 152766.214844 61577.5625 C 152925.847656 62972.011719 153016.3125 63402.191406 153293.730469 64130.609375 C 153384.109375 64366.492188 153460.34375 64616.460938 153460.34375 64671.964844 C 153460.34375 64796.796875 153495.070312 64887.121094 154057.035156 66115.273438 C 154278.976562 66607.730469 154556.617188 67149.058594 154674.574219 67322.46875 C 154785.558594 67495.875 155000.539062 67814.949219 155139.304688 68023.101562 C 155285.027344 68238.421875 155458.449219 68502.09375 155520.972656 68613.117188 C 155590.324219 68717.113281 155722.164062 68918.410156 155812.429688 69057.089844 C 155902.578125 69195.84375 156013.6875 69466.371094 156062.003906 69660.710938 C 156152.320312 70000.695312 156152.320312 70014.664062 155971.933594 70187.980469 C 155867.9375 70292.054688 155729.121094 70451.664062 155659.679688 70555.652344 C 155590.324219 70659.933594 155472.304688 70736.210938 155375.246094 70736.210938 C 155125.460938 70736.210938 154979.808594 70895.789062 154938.0625 71214.976562 C 154903.421875 71464.703125 154854.808594 71541.070312 154625.96875 71693.59375 C 154376.222656 71860.332031 154292.867188 71874.191406 153751.652344 71853.300781 C 152932.859375 71832.378906 152238.980469 71790.90625 151406.300781 71714.539062 C 150601.59375 71645.039062 149609.523438 71672.886719 149158.289062 71790.90625 C 148984.910156 71832.378906 148596.417969 71985.207031 148291.050781 72124.027344 C 147971.726562 72269.683594 147465.449219 72429.355469 147111.527344 72498.746094 C 144530.421875 72991.183594 143100.921875 73657.289062 141865.902344 74941.296875 C 141345.558594 75489.253906 141179.011719 75766.746094 141179.011719 76099.757812 C 141179.011719 76460.59375 141304.007812 76522.847656 141907.433594 76474.398438 C 142192.125 76446.65625 142497.394531 76453.464844 142594.566406 76488.277344 C 142705.570312 76536.695312 142913.664062 76516.046875 143267.734375 76425.71875 C 143552.125 76349.46875 144121.03125 76252.46875 144530.421875 76210.804688 C 145536.4375 76106.707031 145744.675781 76162.160156 146056.972656 76654.847656 C 146327.46875 77078.035156 146722.90625 77445.867188 147063.007812 77584.429688 C 147194.6875 77639.890625 147701.25 77716.269531 148180.011719 77750.9375 C 148658.953125 77785.730469 149401.277344 77855.078125 149831.539062 77896.730469 C 150434.96875 77959.253906 150650.230469 77952.183594 150809.746094 77889.675781 C 150976.34375 77820.367188 151198.226562 77820.367188 151912.90625 77889.675781 C 152398.511719 77938.304688 152974.429688 77972.894531 153182.71875 77972.894531 C 153391.046875 77966.03125 154362.28125 77959.253906 155333.695312 77952.183594 C 156304.957031 77945.167969 157241.945312 77910.582031 157414.953125 77868.933594 C 157880.152344 77771.84375 158768.25 77737.207031 161508.992188 77716.269531 C 163909.558594 77695.542969 165096.035156 77737.207031 166698.792969 77896.730469 C 167309.363281 77959.253906 167538.265625 77959.253906 167718.800781 77889.675781 C 167899.414062 77827.261719 168142.121094 77827.261719 168808.242188 77889.675781 C 169273 77938.304688 169821.171875 77972.894531 170008.480469 77972.894531 C 173075.425781 77952.183594 176384.910156 77876.027344 176600.121094 77820.367188 C 176752.964844 77778.707031 177099.417969 77743.980469 177363.457031 77743.980469 C 177634.015625 77737.207031 178098.832031 77688.492188 178404.152344 77633.035156 C 178709.527344 77577.546875 179222.765625 77501.179688 179548.820312 77466.554688 C 182317.390625 77133.492188 182671.445312 77008.609375 183621.820312 76099.757812 C 184204.597656 75537.855469 184475.195312 75169.726562 184475.195312 74934.210938 C 184475.195312 74857.527344 184516.757812 74711.933594 184572.429688 74607.8125 C 184690.378906 74378.890625 184822.351562 73789.277344 184822.351562 73483.90625 C 184822.351562 73352.039062 184870.789062 73116.140625 184933.316406 72949.601562 C 185176.164062 72290.605469 185252.429688 70645.996094 185085.796875 69521.828125 C 185051.160156 69251.339844 185002.632812 68925.382812 184988.820312 68793.5 C 184947.136719 68467.273438 184780.574219 67509.929688 184634.929688 66781.253906 C 184572.429688 66455.269531 184502.921875 66032.015625 184475.195312 65844.710938 C 184454.355469 65650.308594 184364.101562 65296.324219 184280.859375 65046.726562 C 184197.511719 64796.796875 184086.582031 64456.753906 184031.453125 64283.257812 C 183934.277344 63964.347656 183906.335938 63887.964844 183573.222656 62965.003906 C 183469.160156 62680.671875 183344.375 62306.003906 183295.78125 62132.410156 C 183247.148438 61959.007812 183136.15625 61681.453125 183045.992188 61508.148438 C 182955.707031 61334.675781 182879.402344 61161.347656 182879.402344 61119.597656 C 182879.402344 61070.984375 182768.542969 60869.472656 182629.789062 60668.382812 C 182490.921875 60460.226562 182331.347656 60203.511719 182275.824219 60085.519531 C 182164.769531 59877.308594 181498.671875 59086.496094 181255.863281 58878.253906 C 180575.660156 58295.453125 180124.78125 57865.480469 180062.34375 57740.394531 C 179999.878906 57622.527344 180006.875 57476.867188 180083.117188 57102.050781 C 180138.554688 56831.554688 180166.382812 56512.355469 180138.554688 56394.582031 C 180117.988281 56269.601562 180131.75 56103.09375 180180.285156 56019.433594 C 180221.980469 55936.285156 180284.332031 55540.820312 180319.3125 55131.519531 C 180353.914062 54729.125 180457.726562 54007.5625 180548.003906 53528.738281 C 180638.113281 53050.175781 180769.992188 52376.941406 180832.421875 52036.980469 C 180894.832031 51690.109375 180964.378906 51357.007812 180985.167969 51287.644531 C 181026.832031 51134.851562 181082.300781 51141.878906 182116.316406 51370.886719 C 182560.394531 51475.027344 183226.296875 51544.320312 184162.929688 51586.042969 C 184926.265625 51627.644531 185675.515625 51683.035156 185828.238281 51717.902344 C 186480.605469 51863.746094 187007.832031 52023.078125 187479.683594 52238.089844 C 187750.160156 52363.101562 188117.828125 52501.980469 188291.507812 52550.523438 C 188465.027344 52599.097656 188680.078125 52668.605469 188777.230469 52703.203125 C 188874.453125 52730.992188 189103.339844 52779.589844 189290.601562 52807.296875 C 189477.863281 52835.03125 189713.898438 52897.488281 189810.839844 52946.101562 C 189908.214844 53001.613281 190053.90625 53043.144531 190130.277344 53043.144531 C 190213.246094 53043.144531 190303.578125 53070.933594 190338.253906 53105.601562 C 190379.902344 53147.140625 190705.988281 53251.289062 191066.792969 53348.292969 C 191427.414062 53445.441406 191885.632812 53570.367188 192073.105469 53632.929688 C 192454.722656 53757.765625 193176.144531 53945.082031 193391.253906 53972.707031 C 193467.675781 53979.738281 193654.933594 54021.457031 193807.554688 54063.105469 C 194126.730469 54146.351562 195500.453125 54389.035156 196270.9375 54500.121094 C 197096.421875 54618.144531 198213.492188 54777.707031 198629.816406 54840.167969 C 198837.898438 54874.832031 199122.304688 54951.136719 199254.195312 55006.523438 C 199386.058594 55062.210938 199684.386719 55145.445312 199913.566406 55193.875 C 200142.300781 55242.484375 200641.933594 55388.246094 201023.808594 55513.453125 C 201405.0625 55637.925781 201828.558594 55762.792969 201960.324219 55790.605469 C 202092.128906 55811.34375 202314.265625 55894.628906 202445.949219 55963.984375 C 202577.722656 56040.367188 202751.3125 56096.113281 202827.582031 56096.113281 C 202903.976562 56096.113281 203112 56172.523438 203292.433594 56269.601562 C 203472.984375 56366.667969 203785.03125 56484.648438 203986.359375 56540.277344 C 204388.804688 56644.328125 205110.363281 56928.675781 205498.882812 57129.863281 C 205630.699219 57206.203125 205852.921875 57282.589844 205984.757812 57310.328125 C 206116.261719 57338.015625 206275.78125 57400.457031 206331.4375 57449.113281 C 206386.792969 57504.640625 206699.324219 57643.46875 207025.523438 57761.332031 C 207351.289062 57879.164062 207913.597656 58115.035156 208274.433594 58288.605469 C 209370.492188 58815.890625 209599.664062 58926.871094 210216.980469 59183.660156 C 210543.136719 59322.21875 210841.6875 59461.101562 210876.472656 59495.714844 C 210917.65625 59523.410156 211070.359375 59585.953125 211222.945312 59634.503906 C 211375.929688 59683.117188 211577.121094 59759.449219 211674.238281 59808.027344 C 212083.761719 60022.964844 212916.238281 60398.085938 212971.664062 60398.085938 C 212999.441406 60398.085938 213117.363281 60446.367188 213228.460938 60501.75 C 213429.511719 60605.792969 213984.601562 60848.769531 214588.207031 61091.757812 C 214761.683594 61161.347656 215275.082031 61376.277344 215733.296875 61577.5625 C 216524.234375 61924.433594 217003.054688 62125.546875 217710.664062 62410.070312 C 217884.09375 62479.460938 218446.058594 62715.273438 218959.433594 62930.378906 C 219472.839844 63145.527344 220035.007812 63360.570312 220208.359375 63409.019531 C 220382.042969 63457.652344 220631.90625 63554.878906 220763.496094 63610.28125 C 221152.121094 63790.75 222525.886719 64318.042969 223434.90625 64630.367188 C 223892.875 64789.960938 224440.957031 64998.15625 224655.914062 65088.289062 C 224871.167969 65178.648438 225086.15625 65255.035156 225127.835938 65255.035156 C 225169.519531 65255.035156 225280.757812 65296.324219 225363.988281 65351.894531 C 225447.230469 65407.394531 225800.6875 65546.210938 226140.941406 65657.164062 C 226487.914062 65775.316406 227015.082031 65962.503906 227320.460938 66073.507812 C 227625.832031 66184.5625 228014.363281 66323.363281 228187.703125 66385.882812 C 228361.285156 66441.46875 228909.3125 66635.347656 229401.871094 66809.023438 C 229901.464844 66989.417969 230442.496094 67176.796875 230615.988281 67225.355469 C 230789.761719 67273.851562 231004.921875 67350.15625 231081.210938 67398.871094 C 231164.4375 67440.390625 231289.3125 67475.105469 231358.816406 67475.105469 C 231428.191406 67475.105469 231643.414062 67558.375 231830.566406 67648.726562 C 232024.753906 67745.582031 232232.9375 67821.929688 232302.363281 67821.929688 C 232371.738281 67821.929688 232496.609375 67856.511719 232579.882812 67905.21875 C 232746.496094 67995.445312 234099.246094 68481.351562 234501.695312 68592.316406 C 235348.074219 68835.164062 236874.742188 69306.796875 237381.179688 69487.238281 C 237575.515625 69549.75 237866.84375 69639.984375 238040.335938 69688.414062 C 238213.777344 69730.066406 238512.210938 69813.324219 238699.65625 69868.859375 C 238893.832031 69924.308594 239282.320312 70035.617188 239566.847656 70111.878906 C 239851.476562 70194.886719 240246.804688 70298.988281 240440.996094 70347.644531 C 240635.324219 70403.0625 240857.375 70472.378906 240940.734375 70521.078125 C 241017.195312 70562.667969 241169.648438 70597.46875 241266.867188 70597.46875 C 241364.003906 70597.46875 241516.558594 70632.117188 241599.824219 70680.75 C 241683.039062 70722.402344 241877.367188 70784.78125 242030.003906 70812.539062 C 242182.636719 70840.242188 242446.445312 70909.585938 242620 70965.214844 C 242980.570312 71090.109375 244042.148438 71346.945312 244493.152344 71430.046875 C 244666.746094 71457.800781 244902.695312 71513.21875 245013.738281 71554.84375 C 245304.953125 71658.90625 245790.769531 71776.828125 246158.519531 71839.355469 C 246505.40625 71901.933594 247046.628906 72033.730469 247386.519531 72130.871094 C 247504.578125 72172.519531 247788.820312 72235.050781 248010.84375 72269.683594 C 248232.914062 72311.40625 248559.25 72373.714844 248739.472656 72401.59375 C 248919.761719 72436.230469 249128.101562 72491.734375 249204.339844 72533.453125 C 249280.648438 72575.019531 249440.234375 72609.5625 249558.464844 72609.5625 C 249676.441406 72609.5625 249919.359375 72651.261719 250099.632812 72706.792969 C 250280.027344 72762.339844 250675.402344 72859.339844 250980.753906 72921.839844 C 251285.976562 72984.347656 251632.925781 73067.582031 251750.847656 73102.175781 C 251979.851562 73171.609375 252465.445312 73275.652344 252972.007812 73372.898438 C 253159.367188 73407.539062 253339.777344 73456.21875 253381.382812 73476.871094 C 253416.101562 73504.652344 253617.011719 73553.238281 253811.324219 73587.945312 C 254540.429688 73705.957031 255143.777344 73844.589844 255913.984375 74073.632812 C 256031.980469 74108.285156 256219.160156 74135.941406 256344.125 74135.941406 C 256462.136719 74135.941406 256642.402344 74170.660156 256753.457031 74212.359375 C 256968.679688 74302.480469 257412.546875 74392.753906 258057.894531 74476.007812 C 258286.941406 74503.710938 258564.148438 74566.125 258675.445312 74614.804688 C 258786.503906 74656.449219 258973.757812 74684.160156 259091.753906 74677.175781 C 259216.773438 74670.316406 259348.648438 74684.160156 259390.097656 74711.933594 C 259431.902344 74739.695312 259695.5625 74795.242188 259972.960938 74836.777344 C 260257.503906 74878.710938 260646.050781 74941.296875 260833.34375 74975.898438 C 261242.691406 75051.796875 262117.097656 75176.664062 262463.875 75211.445312 C 262595.714844 75232.234375 262942.703125 75273.8125 263227.039062 75315.476562 C 264031.964844 75433.460938 264760.523438 75523.863281 265065.855469 75551.570312 C 267077.960938 75745.832031 267695.433594 75808.335938 268465.496094 75898.636719 C 268965.417969 75960.988281 269929.78125 76051.203125 270616.648438 76113.722656 C 272975.605469 76307.847656 273530.609375 76356.429688 274779.71875 76467.394531 C 275466.820312 76522.847656 276104.867188 76585.347656 276202.027344 76599.253906 C 276299.136719 76613.070312 276576.828125 76641.003906 276826.511719 76661.707031 C 277076.1875 76682.554688 277388.566406 76717.167969 277520.425781 76738.09375 C 277936.757812 76793.601562 280989.621094 77050.253906 281752.808594 77084.988281 C 282155.367188 77105.839844 282890.792969 77147.417969 283383.375 77182.128906 C 283883.023438 77216.832031 284347.75 77244.511719 284424.117188 77244.511719 C 284757.378906 77237.722656 288747.105469 77334.875 289628.203125 77369.5 C 290162.5 77397.183594 290835.507812 77418.125 291119.933594 77431.964844 C 291404.226562 77438.878906 292341.082031 77473.609375 293201.644531 77508.09375 C 294061.851562 77542.917969 298023.660156 77563.683594 302013.261719 77563.683594 C 309999.535156 77563.683594 310103.503906 77556.628906 310478.238281 77175.144531 C 310721.078125 76939.265625 310735.054688 76751.949219 310554.613281 76453.464844 C 310346.5 76106.707031 309291.820312 75725.113281 307425.09375 75315.476562 C 306911.695312 75204.363281 306287.261719 75058.671875 306037.699219 74996.660156 C 305614.304688 74899.523438 305010.769531 74774.375 303643.804688 74510.691406 C 303338.597656 74448.261719 302887.363281 74358.027344 302637.640625 74309.460938 C 302388.117188 74267.8125 301985.546875 74170.660156 301735.773438 74101.289062 C 301277.824219 73983.257812 301041.957031 73934.765625 300035.785156 73754.507812 C 299730.609375 73699.007812 299355.902344 73622.65625 299203.15625 73587.945312 C 298426.1875 73393.667969 298280.515625 73358.902344 298023.660156 73296.492188 C 297766.832031 73234.195312 297038.433594 73088.328125 296462.285156 72991.183594 C 296205.738281 72949.601562 295754.820312 72845.488281 295352.195312 72748.398438 C 295220.484375 72713.6875 294956.804688 72651.261719 294762.632812 72609.5625 C 294575.308594 72561.191406 294165.851562 72450.101562 293860.582031 72366.835938 C 292902.898438 72089.328125 292556.039062 71992.160156 292195.273438 71908.921875 C 292008.007812 71860.332031 291751.132812 71783.90625 291626.253906 71735.3125 C 291508.382812 71679.894531 291355.863281 71638.164062 291286.359375 71638.164062 C 291217.054688 71638.164062 291071.210938 71610.351562 290953.382812 71575.664062 C 290835.507812 71541.070312 290585.628906 71464.703125 290391.371094 71409.160156 C 290204.019531 71353.9375 289857.085938 71256.871094 289628.203125 71194.246094 C 289399.113281 71131.652344 289121.589844 71048.457031 289003.652344 71006.808594 C 288892.828125 70965.214844 288573.597656 70875.011719 288302.628906 70805.722656 C 288032.140625 70743.171875 287748.039062 70645.996094 287664.398438 70604.328125 C 287588.152344 70562.667969 287449.453125 70527.941406 287359.191406 70527.941406 C 287268.96875 70527.941406 287157.863281 70493.285156 287116.367188 70451.664062 C 287074.648438 70409.933594 286915.144531 70347.644531 286769.4375 70312.808594 C 286346.136719 70222.621094 285811.976562 70056.371094 284320.03125 69542.761719 C 283883.023438 69397.023438 283411.121094 69244.289062 283272.3125 69216.632812 C 283133.511719 69188.839844 282946.207031 69112.511719 282856.164062 69050.164062 C 282765.910156 68980.695312 282627.140625 68932.246094 282550.753906 68932.246094 C 282474.5 68932.246094 282349.601562 68883.601562 282280.300781 68828.148438 C 282203.914062 68772.644531 282078.972656 68724.113281 281995.667969 68724.113281 C 281919.40625 68724.113281 281732.023438 68661.632812 281579.558594 68585.265625 C 281426.78125 68509.054688 281267.332031 68446.554688 281225.730469 68446.554688 C 281183.949219 68446.554688 281052 68398.089844 280947.960938 68342.453125 C 280836.992188 68287.101562 280670.472656 68238.421875 280573.261719 68238.421875 C 280476.113281 68238.421875 280337.515625 68189.625 280268.125 68134.195312 C 280191.875 68078.539062 280053.007812 68030.171875 279955.6875 68030.171875 C 279858.757812 68030.171875 279713.011719 67981.558594 279643.667969 67925.941406 C 279567.292969 67870.523438 279456.21875 67821.929688 279400.691406 67821.929688 C 279338.28125 67821.929688 278977.558594 67662.738281 278595.746094 67475.105469 C 278214.257812 67287.878906 277853.410156 67128.160156 277791.113281 67128.160156 C 277728.5625 67128.160156 277624.609375 67065.839844 277562.042969 66996.265625 C 277492.746094 66919.976562 277346.757812 66836.800781 277235.8125 66816.074219 C 277131.730469 66788.160156 276972.160156 66718.753906 276882 66649.484375 C 276791.714844 66580.003906 276625.394531 66496.910156 276500.460938 66476.148438 C 276382.445312 66448.335938 276243.777344 66378.910156 276195.144531 66323.363281 C 276153.488281 66267.90625 276084.046875 66226.261719 276042.484375 66226.261719 C 275973.097656 66226.261719 275425 65976.390625 274876.933594 65698.769531 C 274696.5625 65608.5625 274502.199219 65532.183594 274439.796875 65532.183594 C 274377.359375 65532.183594 274183.152344 65455.992188 274002.679688 65365.734375 C 273364.109375 65046.726562 273045.035156 64907.839844 272961.75 64907.839844 C 272913.324219 64907.839844 272705.0625 64824.628906 272510.707031 64720.582031 C 271851.710938 64387.296875 271775.386719 64352.605469 271671.246094 64352.605469 C 271615.773438 64352.605469 271428.472656 64276.285156 271248.027344 64179.242188 C 271067.664062 64081.921875 270859.480469 64006.066406 270783.074219 64006.066406 C 270706.910156 64006.066406 270526.550781 63929.4375 270387.789062 63832.347656 C 270248.960938 63735.261719 270068.527344 63658.878906 269992.203125 63658.878906 C 269915.804688 63658.878906 269763.277344 63596.460938 269645.25 63520.089844 C 269534.167969 63443.84375 269381.785156 63381.375 269319.269531 63381.375 C 269249.90625 63381.375 269097.253906 63318.925781 268972.351562 63242.527344 C 268847.234375 63166.289062 268680.75 63103.777344 268597.511719 63103.777344 C 268521.121094 63103.777344 268430.886719 63075.957031 268389.34375 63041.347656 C 268354.476562 63006.652344 268063.171875 62861.015625 267737.15625 62722.34375 C 267410.992188 62576.476562 267022.550781 62410.070312 266870.019531 62340.765625 C 266717.304688 62271.203125 266391.097656 62132.410156 266141.320312 62028.460938 C 265891.441406 61924.433594 265579.464844 61785.660156 265447.496094 61716.152344 C 265315.757812 61646.839844 265128.214844 61570.585938 265031.128906 61542.871094 C 264843.808594 61494.296875 264302.664062 61258.296875 264129.320312 61161.347656 C 263671.03125 60897.199219 262907.996094 60536.398438 262810.804688 60536.398438 C 262741.515625 60536.398438 262588.714844 60460.226562 262477.707031 60363.421875 C 262359.835938 60265.980469 262241.890625 60189.570312 262200.105469 60189.570312 C 262165.417969 60189.570312 261957.496094 60106.339844 261756.285156 59995.292969 C 261548.0625 59891.285156 261207.964844 59731.65625 260999.796875 59641.421875 C 260791.714844 59551.199219 260576.671875 59454.265625 260521.171875 59419.355469 C 260396.269531 59343.179688 258661.53125 58496.769531 258259.273438 58309.324219 C 258099.636719 58239.945312 257939.890625 58177.507812 257905.074219 58177.507812 C 257863.519531 58177.507812 257752.574219 58108.128906 257648.402344 58031.707031 C 257544.332031 57948.773438 257322.3125 57844.582031 257149.066406 57789.074219 C 256975.472656 57740.394531 256753.457031 57636.355469 256656.359375 57553.15625 C 256559.199219 57476.867188 256427.390625 57414.382812 256364.886719 57414.382812 C 256302.539062 57414.382812 256177.605469 57351.878906 256080.511719 57275.613281 C 255983.414062 57199.320312 255837.808594 57136.761719 255747.519531 57136.761719 C 255657.351562 57136.761719 255483.777344 57060.574219 255358.964844 56963.234375 C 255234 56866.238281 255088.363281 56789.824219 255032.730469 56789.824219 C 254977.359375 56789.824219 254811.019531 56706.75 254658.246094 56616.671875 C 254505.625 56519.445312 254317.949219 56443.046875 254234.683594 56443.046875 C 254158.460938 56443.046875 254033.441406 56380.585938 253971.085938 56311.199219 C 253901.613281 56234.792969 253755.890625 56151.613281 253651.875 56130.828125 C 253540.953125 56109.980469 253416.101562 56040.367188 253367.492188 55984.910156 C 253325.910156 55929.265625 253256.476562 55887.730469 253221.765625 55887.730469 C 253187.125 55887.730469 252652.730469 55637.925781 252042.320312 55332.75 C 251424.742188 55027.457031 250869.777344 54777.707031 250807.371094 54777.707031 C 250737.988281 54777.707031 250654.753906 54735.980469 250613.03125 54687.375 C 250571.375 54638.792969 249926.410156 54285.199219 249176.53125 53903.363281 C 247636.296875 53119.441406 246470.652344 52508.867188 245464.480469 51946.675781 C 245256.46875 51829.058594 244992.800781 51683.035156 244874.992188 51620.710938 C 244764.023438 51565.257812 244479.222656 51405.617188 244250.199219 51273.777344 C 244021.21875 51141.878906 243709.277344 50968.363281 243556.511719 50891.996094 C 243403.910156 50808.808594 243126.3125 50656.074219 242932.109375 50545.140625 C 242744.605469 50434.148438 242446.445312 50274.597656 242273.019531 50191.28125 C 242099.4375 50108.046875 241912.101562 49997.054688 241849.589844 49948.523438 C 241787.121094 49893.101562 241495.636719 49726.472656 241197.5 49573.699219 C 240899.175781 49421.328125 240600.722656 49247.714844 240531.347656 49185.339844 C 240461.960938 49122.835938 240198.253906 48970.195312 239941.695312 48838.414062 C 239684.828125 48713.28125 239428.171875 48560.839844 239365.609375 48505.179688 C 239303.109375 48449.828125 239108.703125 48338.722656 238935.511719 48269.230469 C 238755.121094 48193.332031 238588.621094 48095.9375 238567.800781 48054.21875 C 238540.03125 48012.601562 238387.234375 47915.503906 238227.648438 47839.261719 C 237769.707031 47610.1875 237485.464844 47443.710938 237353.453125 47325.742188 C 237284.164062 47263.292969 237193.863281 47214.660156 237152.320312 47214.660156 C 237110.628906 47214.660156 236992.699219 47145.382812 236881.597656 47055.050781 C 236777.5625 46965.117188 236444.609375 46756.890625 236146.410156 46583.476562 C 235660.5625 46305.738281 235237.460938 46062.941406 234501.695312 45618.9375 C 234369.785156 45542.507812 234133.894531 45396.902344 233981.375 45306.710938 C 233828.582031 45216.46875 233565.144531 45063.722656 233391.480469 44959.542969 C 233218.097656 44862.472656 232982.214844 44709.816406 232857.488281 44626.542969 C 232739.484375 44543.585938 232503.523438 44397.695312 232343.992188 44300.496094 C 232184.328125 44203.460938 231906.742188 44030.03125 231733.285156 43911.988281 C 231560.058594 43794.019531 231379.546875 43682.96875 231344.960938 43669.128906 C 231303.289062 43655.253906 230990.847656 43454.078125 230650.746094 43232.039062 C 230304.253906 43003.183594 229915.304688 42753.28125 229783.5 42670.078125 C 229374.15625 42406.40625 228291.738281 41719.585938 227729.894531 41351.554688 C 227438.511719 41157.222656 227147.121094 40976.902344 227084.539062 40935.125 C 226682.199219 40699.480469 225037.671875 39637.964844 224857.203125 39506.128906 C 224760.113281 39429.699219 224552.007812 39304.917969 224392.355469 39228.511719 C 224225.933594 39152.132812 224094.058594 39062 224094.058594 39020.351562 C 224094.058594 38978.742188 223990.015625 38909.277344 223865.058594 38853.753906 C 223733.335938 38798.304688 223587.609375 38708.089844 223538.9375 38645.667969 C 223483.46875 38583.363281 223323.726562 38465.222656 223171.050781 38389.074219 C 223018.699219 38312.679688 222831.320312 38194.753906 222754.898438 38118.398438 C 222671.6875 38049.085938 222574.453125 37986.585938 222532.921875 37986.585938 C 222484.335938 37986.585938 222310.8125 37875.570312 222144.308594 37743.765625 C 221977.691406 37612.03125 221811.398438 37500.90625 221776.703125 37500.90625 C 221748.917969 37500.90625 221610.054688 37403.789062 221478.386719 37292.683594 C 221353.390625 37174.773438 221200.769531 37084.75 221145.285156 37084.75 C 221089.832031 37084.75 220943.859375 36994.527344 220819.023438 36890.429688 C 220694.085938 36779.394531 220513.890625 36647.523438 220409.835938 36591.859375 C 219882.390625 36300.328125 218966.480469 35710.792969 218765.199219 35530.3125 C 218633.378906 35412.351562 218029.878906 35016.875 217336.011719 34600.578125 C 217231.894531 34538.058594 217044.492188 34413.292969 216919.773438 34329.980469 C 216704.628906 34177.238281 216295.214844 33948.355469 215698.644531 33643.117188 C 215525.207031 33559.90625 215309.878906 33407.242188 215212.5625 33303.21875 C 215115.554688 33199.054688 214803.292969 32990.804688 214518.910156 32844.988281 C 213693.195312 32414.894531 213200.726562 32116.570312 213110.546875 31998.777344 C 213061.933594 31936.214844 212791.1875 31790.539062 212506.871094 31672.445312 C 212222.386719 31554.492188 211923.960938 31401.726562 211847.875 31332.4375 C 211688.085938 31186.664062 210911.207031 30770.527344 210800.113281 30770.527344 C 210758.433594 30770.527344 210577.851562 30659.417969 210397.414062 30520.640625 C 210224.011719 30388.957031 209925.632812 30236.226562 209745.199219 30187.539062 C 209564.792969 30145.96875 209238.6875 29972.582031 209023.589844 29812.988281 C 208621.175781 29514.699219 208045.433594 29230.035156 207538.75 29077.378906 C 207379.222656 29028.875 207087.992188 28862.28125 206879.667969 28709.664062 C 206414.824219 28369.753906 206241.214844 28272.691406 206067.679688 28272.691406 C 205998.605469 28272.691406 205818.21875 28182.472656 205665.410156 28064.542969 C 205519.707031 27953.433594 205346.105469 27856.363281 205283.746094 27856.363281 C 205221.339844 27856.363281 205124.148438 27807.742188 205075.5625 27745.417969 C 205026.945312 27682.886719 204825.808594 27564.816406 204631.578125 27481.515625 C 204444.292969 27391.558594 204243.058594 27273.683594 204194.507812 27211.125 C 204139.019531 27148.734375 203986.359375 27065.480469 203847.320312 27016.8125 C 203708.648438 26968.253906 203479.886719 26857.226562 203348.023438 26774.066406 C 203216.066406 26683.632812 203021.710938 26607.382812 202917.824219 26607.382812 C 202813.609375 26607.382812 202709.628906 26572.664062 202688.699219 26537.957031 C 202591.652344 26385.34375 201849.34375 25885.910156 201543.953125 25767.859375 C 201231.648438 25649.683594 200836.257812 25469.4375 200398.984375 25240.371094 C 200287.945312 25177.898438 200010.429688 24990.652344 199788.558594 24824.226562 C 199559.457031 24664.695312 199344.398438 24525.839844 199295.824219 24525.839844 C 199247.34375 24525.839844 198539.660156 24192.863281 197720.84375 23783.566406 C 196083.503906 22964.753906 196069.472656 22950.757812 195673.835938 22770.460938 C 195528.207031 22694.082031 195313.105469 22590.164062 195195.210938 22527.695312 C 194667.933594 22250.226562 194182.222656 22027.886719 194098.847656 22027.886719 C 194050.429688 22027.886719 193849.09375 21916.878906 193668.859375 21785.015625 C 193432.882812 21618.414062 193162.316406 21507.328125 192801.59375 21431.105469 C 192246.519531 21306.410156 192079.980469 21243.953125 191878.855469 21070.40625 C 191746.722656 20952.339844 191600.941406 20896.917969 190511.660156 20529.183594 C 190109.328125 20390.476562 189672.121094 20210.042969 189540.378906 20133.859375 C 189304.4375 19981.242188 188624.496094 19738.253906 188444.1875 19738.253906 C 188388.613281 19738.253906 188138.695312 19648.1875 187888.917969 19537.144531 C 187632.472656 19426.167969 187174.433594 19266.484375 186868.941406 19183.164062 C 186563.621094 19099.902344 186202.957031 18975.007812 186071.066406 18905.867188 C 185939.207031 18836.488281 185627.058594 18725.390625 185377.121094 18662.898438 C 185127.582031 18600.589844 184787.554688 18475.523438 184614.019531 18392.34375 C 184440.476562 18302.050781 184052.199219 18170.328125 183746.726562 18093.949219 C 183441.523438 18017.660156 182976.347656 17864.878906 182706.042969 17760.578125 C 182442.308594 17663.773438 182074.585938 17552.835938 181901.070312 17518.207031 C 181720.597656 17483.480469 181443.167969 17393.296875 181283.550781 17309.960938 C 181123.976562 17226.800781 180797.753906 17122.414062 180561.730469 17073.796875 C 180110.898438 16976.640625 179868.164062 16900.371094 178043.351562 16296.863281 C 177425.957031 16088.628906 176856.699219 15922.074219 176773.394531 15922.074219 C 176690.492188 15922.074219 176537.554688 15873.566406 176440.339844 15817.996094 C 176336.292969 15755.472656 175926.953125 15616.792969 175524.660156 15498.832031 C 173776.101562 14992.566406 173457.007812 14895.316406 173304.234375 14812.15625 C 173123.953125 14714.980469 172145.472656 14395.734375 172034.453125 14395.734375 C 171999.714844 14395.734375 171687.617188 14284.714844 171354.597656 14152.695312 C 171014.539062 14021.09375 170681.433594 13910.109375 170612.195312 13910.109375 C 170542.8125 13910.109375 170369.351562 13847.714844 170216.699219 13771.394531 C 170063.984375 13695.007812 169897.539062 13632.578125 169848.960938 13632.578125 C 169793.507812 13632.578125 169606.105469 13590.984375 169425.878906 13535.257812 C 169113.589844 13431.160156 168544.503906 13271.679688 167718.800781 13042.664062 C 167489.75 12980.222656 167066.527344 12855.191406 166782.113281 12765.261719 C 166497.542969 12682.03125 166123.015625 12584.75 165956.410156 12557.070312 C 165789.953125 12529.261719 165554.074219 12452.949219 165436.125 12383.578125 C 165318.171875 12314.019531 165005.800781 12230.832031 164735.164062 12209.898438 C 164471.648438 12182.246094 164124.722656 12091.984375 163972.015625 12015.585938 C 163819.394531 11939.4375 163583.511719 11849.21875 163451.597656 11821.34375 C 163319.992188 11793.554688 162993.804688 11689.503906 162723.203125 11592.582031 C 162459.445312 11495.414062 162112.6875 11412.246094 161959.9375 11412.246094 C 161807.203125 11412.246094 161599.039062 11370.480469 161501.964844 11314.976562 C 161224.191406 11176.207031 160509.742188 10961.167969 159843.691406 10815.390625 C 159517.523438 10752.910156 159191.464844 10662.746094 159115.058594 10628.125 C 159038.816406 10586.320312 158865.3125 10530.722656 158733.601562 10503.035156 C 158601.6875 10482.285156 158178.535156 10371.421875 157796.652344 10267.488281 C 156984.84375 10045.460938 156506.152344 9948.242188 156166.125 9948.242188 C 156034.351562 9941.171875 155888.710938 9913.304688 155847.128906 9878.683594 C 155618.113281 9691.273438 154778.628906 9469.203125 153363.308594 9233.332031 C 153023.234375 9171.117188 152627.464844 9066.910156 152488.738281 8990.65625 C 152127.972656 8803.304688 151545.167969 8636.761719 151253.570312 8636.761719 C 151122.015625 8636.761719 150837.59375 8581.238281 150622.414062 8504.945312 C 150192.222656 8359.199219 148804.46875 8081.511719 148492.269531 8081.511719 C 148381.28125 8074.652344 148214.8125 8032.875 148117.578125 7977.328125 C 148020.378906 7922.160156 147860.761719 7880.574219 147763.75 7873.71875 C 147659.503906 7873.71875 147458.359375 7825.011719 147312.722656 7755.65625 C 147042.167969 7644.695312 146792.332031 7589.082031 145966.707031 7457.167969 C 145717.015625 7415.496094 145355.992188 7325.355469 145154.816406 7248.988281 C 144689.964844 7075.542969 143482.84375 6763.199219 143281.582031 6763.199219 C 143198.226562 6763.199219 142851.160156 6673.152344 142518.324219 6562.195312 C 141928.402344 6374.890625 141643.933594 6298.472656 140311.832031 6006.957031 C 139971.929688 5930.578125 139409.789062 5791.90625 139062.875 5687.769531 C 138410.675781 5500.550781 137910.894531 5396.480469 137328.238281 5313.257812 C 137140.933594 5285.371094 136918.8125 5229.898438 136842.472656 5188.285156 C 136766.078125 5153.558594 136454 5098.167969 136148.640625 5070.332031 C 135850.382812 5049.550781 135413.105469 4987.136719 135177.488281 4931.601562 C 134948.421875 4876.179688 134511.328125 4799.761719 134205.878906 4758.113281 C 133310.742188 4626.308594 132450.460938 4466.710938 131756.53125 4293.308594 C 131395.847656 4203.035156 131021.15625 4126.746094 130924.039062 4126.746094 C 130757.5625 4126.746094 129883.214844 3981.070312 128898.070312 3786.691406 C 128724.578125 3752.015625 128412.230469 3675.738281 128204.101562 3613.308594 C 127995.875 3550.792969 127510.21875 3467.550781 127128.675781 3425.964844 C 126747.152344 3391.285156 126323.871094 3321.984375 126191.980469 3287.222656 C 125838.035156 3182.703125 125095.777344 3085.691406 123416.542969 2933.488281 C 122861.503906 2877.859375 122368.730469 2815.613281 122327.167969 2787.78125 C 122278.601562 2759.929688 121876.148438 2690.539062 121425.15625 2634.746094 C 120974.195312 2586.144531 120516.378906 2509.871094 120412.285156 2468.300781 C 120301.265625 2426.621094 120051.535156 2391.894531 119857.1875 2391.894531 C 119329.941406 2391.894531 118164.171875 2260.175781 117761.613281 2149.089844 C 117574.203125 2093.582031 117276.007812 2017.292969 117102.414062 1968.644531 C 116929.164062 1927.039062 116429.589844 1878.621094 115992.425781 1857.640625 C 115555.355469 1843.890625 115055.773438 1788.367188 114882.382812 1739.816406 C 114583.703125 1649.601562 114063.339844 1552.40625 113320.984375 1448.417969 C 113133.726562 1420.613281 112786.828125 1406.832031 112557.746094 1413.699219 C 112328.914062 1420.613281 111905.738281 1379.070312 111621.175781 1323.613281 C 110851.179688 1163.835938 109928.160156 1087.542969 109234.257812 1129.226562 C 108887.246094 1143.171875 108415.609375 1122.191406 108145.050781 1080.640625 C 107888.175781 1032.117188 107541.289062 983.492188 107374.640625 969.558594 C 107215.300781 962.664062 106750.277344 914.125 106347.804688 865.492188 C 105945.398438 816.96875 105105.890625 782.265625 104474.5625 782.265625 C 103822.398438 789.125 103017.378906 747.519531 102601.058594 692.035156 C 101636.632812 560.316406 98507.367188 421.648438 96217.792969 407.730469 C 95204.53125 407.730469 93692.042969 380.019531 92852.503906 352.15625 C 91936.722656 324.378906 91256.863281 324.378906 91152.71875 366.152344 C 91041.664062 407.730469 90916.722656 407.730469 90805.640625 359.078125 C 90708.578125 324.378906 89855.097656 282.777344 88904.683594 268.921875 C 87953.71875 255.066406 87003.347656 213.417969 86788.242188 171.816406 C 86323.476562 88.589844 85712.820312 95.453125 84179.28125 213.417969 Z M 170272.136719 69424.828125 C 170431.863281 69507.960938 170702.300781 69646.847656 170875.769531 69730.066406 C 171049.179688 69820.285156 171243.46875 69952.085938 171312.871094 70028.621094 C 171382.253906 70104.894531 171521.046875 70201.839844 171625.273438 70250.28125 C 171729.246094 70292.054688 171902.519531 70458.648438 172013.613281 70611.117188 C 172200.960938 70888.835938 172207.941406 70909.585938 172103.792969 71076.144531 C 172027.449219 71194.246094 171930.273438 71256.871094 171812.890625 71256.871094 C 171659.894531 71249.859375 171638.917969 71284.621094 171638.917969 71471.539062 C 171638.917969 71818.644531 171368.457031 71901.933594 170417.96875 71860.332031 L 169647.714844 71832.378906 L 169675.46875 71471.539062 C 169689.292969 71277.628906 169730.976562 70868.054688 169765.703125 70569.679688 C 169807.34375 70264.363281 169835.0625 69854.9375 169835.0625 69646.847656 C 169835.0625 69438.625 169862.863281 69279.140625 169904.546875 69279.140625 C 169946.125 69279.140625 170112.652344 69348.507812 170272.136719 69424.828125 Z M 170272.136719 69424.828125 "/>
</g>
</svg>
